%FSLAX45Y45*%
G04 Gerber Fmt 4.5, Leading zero omitted, Abs format (unit mm)*
G04 Created by KiCad (PCBNEW 6.0.0-unknown-813de6a~100~ubuntu18.04.1) date 2019-06-08 23:41:17*
%MOMM*%
%LPD*%
G04 APERTURE LIST*
%ADD10C,0.050000*%
%ADD11C,0.200000*%
%ADD12C,0.300000*%
G04 APERTURE END LIST*
D10*
X16544000Y-13804000D02*
X16544000Y-3804000D01*
X7044000Y-13804000D02*
X6544000Y-13304000D01*
X7044000Y-13804000D02*
X16544000Y-13804000D01*
X6544000Y-13304000D02*
X6544000Y-3804000D01*
X6544000Y-3804000D02*
X16544000Y-3804000D01*
D11*
X7230000Y-5452000D02*
X7260000Y-5482000D01*
X7260000Y-5452000D02*
X7230000Y-5482000D01*
X7295000Y-5090000D02*
X7325000Y-5120000D01*
X7325000Y-5090000D02*
X7295000Y-5120000D01*
X7707500Y-5009000D02*
X7737500Y-5039000D01*
X7737500Y-5009000D02*
X7707500Y-5039000D01*
X7835000Y-5435000D02*
X7865000Y-5465000D01*
X7865000Y-5435000D02*
X7835000Y-5465000D01*
X7845000Y-5135000D02*
X7875000Y-5165000D01*
X7875000Y-5135000D02*
X7845000Y-5165000D01*
X7885000Y-9585000D02*
X7915000Y-9615000D01*
X7915000Y-9585000D02*
X7885000Y-9615000D01*
X7885000Y-9885000D02*
X7915000Y-9915000D01*
X7915000Y-9885000D02*
X7885000Y-9915000D01*
X8017681Y-4508494D02*
X8047681Y-4538494D01*
X8047681Y-4508494D02*
X8017681Y-4538494D01*
X8025000Y-5865000D02*
X8055000Y-5895000D01*
X8055000Y-5865000D02*
X8025000Y-5895000D01*
X8070000Y-4555000D02*
X8100000Y-4585000D01*
X8100000Y-4555000D02*
X8070000Y-4585000D01*
X8085477Y-7371523D02*
X8115477Y-7401523D01*
X8115477Y-7371523D02*
X8085477Y-7401523D01*
X8125000Y-4955000D02*
X8155000Y-4985000D01*
X8155000Y-4955000D02*
X8125000Y-4985000D01*
X8185000Y-9585000D02*
X8215000Y-9615000D01*
X8215000Y-9585000D02*
X8185000Y-9615000D01*
X8185000Y-9885000D02*
X8215000Y-9915000D01*
X8215000Y-9885000D02*
X8185000Y-9915000D01*
X8215000Y-7364000D02*
X8245000Y-7394000D01*
X8245000Y-7364000D02*
X8215000Y-7394000D01*
X8215000Y-5865000D02*
X8245000Y-5895000D01*
X8245000Y-5865000D02*
X8215000Y-5895000D01*
X8323000Y-7462000D02*
X8353000Y-7492000D01*
X8353000Y-7462000D02*
X8323000Y-7492000D01*
X8365000Y-4955000D02*
X8395000Y-4985000D01*
X8395000Y-4955000D02*
X8365000Y-4985000D01*
X8385000Y-5865000D02*
X8415000Y-5895000D01*
X8415000Y-5865000D02*
X8385000Y-5895000D01*
X8414000Y-7466000D02*
X8444000Y-7496000D01*
X8444000Y-7466000D02*
X8414000Y-7496000D01*
X8479201Y-4949241D02*
X8509201Y-4979241D01*
X8509201Y-4949241D02*
X8479201Y-4979241D01*
X8485000Y-9585000D02*
X8515000Y-9615000D01*
X8515000Y-9585000D02*
X8485000Y-9615000D01*
X8485000Y-9885000D02*
X8515000Y-9915000D01*
X8515000Y-9885000D02*
X8485000Y-9915000D01*
X8535000Y-6319000D02*
X8565000Y-6349000D01*
X8565000Y-6319000D02*
X8535000Y-6349000D01*
X8535000Y-12945000D02*
X8565000Y-12975000D01*
X8565000Y-12945000D02*
X8535000Y-12975000D01*
X8573000Y-7763000D02*
X8603000Y-7793000D01*
X8603000Y-7763000D02*
X8573000Y-7793000D01*
X8573000Y-7887000D02*
X8603000Y-7917000D01*
X8603000Y-7887000D02*
X8573000Y-7917000D01*
X8615000Y-4845000D02*
X8645000Y-4875000D01*
X8645000Y-4845000D02*
X8615000Y-4875000D01*
X8631000Y-4677000D02*
X8661000Y-4707000D01*
X8661000Y-4677000D02*
X8631000Y-4707000D01*
X8635000Y-7708000D02*
X8665000Y-7738000D01*
X8665000Y-7708000D02*
X8635000Y-7738000D01*
X8660000Y-7278000D02*
X8690000Y-7308000D01*
X8690000Y-7278000D02*
X8660000Y-7308000D01*
X8711000Y-4631000D02*
X8741000Y-4661000D01*
X8741000Y-4631000D02*
X8711000Y-4661000D01*
X8775000Y-5585000D02*
X8805000Y-5615000D01*
X8805000Y-5585000D02*
X8775000Y-5615000D01*
X8775000Y-5695000D02*
X8805000Y-5725000D01*
X8805000Y-5695000D02*
X8775000Y-5725000D01*
X8776523Y-5461477D02*
X8806523Y-5491477D01*
X8806523Y-5461477D02*
X8776523Y-5491477D01*
X8785000Y-5295000D02*
X8815000Y-5325000D01*
X8815000Y-5295000D02*
X8785000Y-5325000D01*
X8785000Y-9585000D02*
X8815000Y-9615000D01*
X8815000Y-9585000D02*
X8785000Y-9615000D01*
X8785000Y-9885000D02*
X8815000Y-9915000D01*
X8815000Y-9885000D02*
X8785000Y-9915000D01*
X8815000Y-4531000D02*
X8845000Y-4561000D01*
X8845000Y-4531000D02*
X8815000Y-4561000D01*
X8922523Y-7122523D02*
X8952523Y-7152523D01*
X8952523Y-7122523D02*
X8922523Y-7152523D01*
X9010000Y-6910000D02*
X9040000Y-6940000D01*
X9040000Y-6910000D02*
X9010000Y-6940000D01*
X9022000Y-6308000D02*
X9052000Y-6338000D01*
X9052000Y-6308000D02*
X9022000Y-6338000D01*
X9042000Y-5818000D02*
X9072000Y-5848000D01*
X9072000Y-5818000D02*
X9042000Y-5848000D01*
X9060000Y-7296000D02*
X9090000Y-7326000D01*
X9090000Y-7296000D02*
X9060000Y-7326000D01*
X9302000Y-4924000D02*
X9332000Y-4954000D01*
X9332000Y-4924000D02*
X9302000Y-4954000D01*
X9303000Y-4840000D02*
X9333000Y-4870000D01*
X9333000Y-4840000D02*
X9303000Y-4870000D01*
X9315000Y-6555000D02*
X9345000Y-6585000D01*
X9345000Y-6555000D02*
X9315000Y-6585000D01*
X9339500Y-7747000D02*
X9369500Y-7777000D01*
X9369500Y-7747000D02*
X9339500Y-7777000D01*
X9339500Y-7817000D02*
X9369500Y-7847000D01*
X9369500Y-7817000D02*
X9339500Y-7847000D01*
X9339500Y-7887000D02*
X9369500Y-7917000D01*
X9369500Y-7887000D02*
X9339500Y-7917000D01*
X9346000Y-5819000D02*
X9376000Y-5849000D01*
X9376000Y-5819000D02*
X9346000Y-5849000D01*
X9378000Y-7385000D02*
X9408000Y-7415000D01*
X9408000Y-7385000D02*
X9378000Y-7415000D01*
X9395000Y-8010000D02*
X9425000Y-8040000D01*
X9425000Y-8010000D02*
X9395000Y-8040000D01*
X9465000Y-8137500D02*
X9495000Y-8167500D01*
X9495000Y-8137500D02*
X9465000Y-8167500D01*
X9515500Y-7504016D02*
X9545500Y-7534016D01*
X9545500Y-7504016D02*
X9515500Y-7534016D01*
X9515500Y-7747000D02*
X9545500Y-7777000D01*
X9545500Y-7747000D02*
X9515500Y-7777000D01*
X9515500Y-7817000D02*
X9545500Y-7847000D01*
X9545500Y-7817000D02*
X9515500Y-7847000D01*
X9515500Y-7887000D02*
X9545500Y-7917000D01*
X9545500Y-7887000D02*
X9515500Y-7917000D01*
X9515500Y-7957000D02*
X9545500Y-7987000D01*
X9545500Y-7957000D02*
X9515500Y-7987000D01*
X9516074Y-7434018D02*
X9546074Y-7464018D01*
X9546074Y-7434018D02*
X9516074Y-7464018D01*
X9517000Y-7574000D02*
X9547000Y-7604000D01*
X9547000Y-7574000D02*
X9517000Y-7604000D01*
X9535000Y-6735000D02*
X9565000Y-6765000D01*
X9565000Y-6735000D02*
X9535000Y-6765000D01*
X9535000Y-6860000D02*
X9565000Y-6890000D01*
X9565000Y-6860000D02*
X9535000Y-6890000D01*
X9580000Y-7366000D02*
X9610000Y-7396000D01*
X9610000Y-7366000D02*
X9580000Y-7396000D01*
X9581000Y-7185000D02*
X9611000Y-7215000D01*
X9611000Y-7185000D02*
X9581000Y-7215000D01*
X9597000Y-5485000D02*
X9627000Y-5515000D01*
X9627000Y-5485000D02*
X9597000Y-5515000D01*
X9597500Y-6795000D02*
X9627500Y-6825000D01*
X9627500Y-6795000D02*
X9597500Y-6825000D01*
X9660000Y-6735000D02*
X9690000Y-6765000D01*
X9690000Y-6735000D02*
X9660000Y-6765000D01*
X9660000Y-6860000D02*
X9690000Y-6890000D01*
X9690000Y-6860000D02*
X9660000Y-6890000D01*
X9714000Y-7080000D02*
X9744000Y-7110000D01*
X9744000Y-7080000D02*
X9714000Y-7110000D01*
X9715000Y-5251500D02*
X9745000Y-5281500D01*
X9745000Y-5251500D02*
X9715000Y-5281500D01*
X9735000Y-10485000D02*
X9765000Y-10515000D01*
X9765000Y-10485000D02*
X9735000Y-10515000D01*
X9735000Y-10735000D02*
X9765000Y-10765000D01*
X9765000Y-10735000D02*
X9735000Y-10765000D01*
X9864000Y-7080000D02*
X9894000Y-7110000D01*
X9894000Y-7080000D02*
X9864000Y-7110000D01*
X9897000Y-4791000D02*
X9927000Y-4821000D01*
X9927000Y-4791000D02*
X9897000Y-4821000D01*
X9919000Y-5889000D02*
X9949000Y-5919000D01*
X9949000Y-5889000D02*
X9919000Y-5919000D01*
X9946000Y-6632000D02*
X9976000Y-6662000D01*
X9976000Y-6632000D02*
X9946000Y-6662000D01*
X9985000Y-10485000D02*
X10015000Y-10515000D01*
X10015000Y-10485000D02*
X9985000Y-10515000D01*
X9985000Y-10735000D02*
X10015000Y-10765000D01*
X10015000Y-10735000D02*
X9985000Y-10765000D01*
X9999000Y-7436000D02*
X10029000Y-7466000D01*
X10029000Y-7436000D02*
X9999000Y-7466000D01*
X10005000Y-5215000D02*
X10035000Y-5245000D01*
X10035000Y-5215000D02*
X10005000Y-5245000D01*
X10005000Y-5575000D02*
X10035000Y-5605000D01*
X10035000Y-5575000D02*
X10005000Y-5605000D01*
X10015000Y-5755000D02*
X10045000Y-5785000D01*
X10045000Y-5755000D02*
X10015000Y-5785000D01*
X10032000Y-7648000D02*
X10062000Y-7678000D01*
X10062000Y-7648000D02*
X10032000Y-7678000D01*
X10045000Y-4955000D02*
X10075000Y-4985000D01*
X10075000Y-4955000D02*
X10045000Y-4985000D01*
X10045000Y-5045000D02*
X10075000Y-5075000D01*
X10075000Y-5045000D02*
X10045000Y-5075000D01*
X10088000Y-7504000D02*
X10118000Y-7534000D01*
X10118000Y-7504000D02*
X10088000Y-7534000D01*
X10105000Y-6185000D02*
X10135000Y-6215000D01*
X10135000Y-6185000D02*
X10105000Y-6215000D01*
X10105000Y-6285000D02*
X10135000Y-6315000D01*
X10135000Y-6285000D02*
X10105000Y-6315000D01*
X10109780Y-7573826D02*
X10139780Y-7603826D01*
X10139780Y-7573826D02*
X10109780Y-7603826D01*
X10141000Y-6444000D02*
X10171000Y-6474000D01*
X10171000Y-6444000D02*
X10141000Y-6474000D01*
X10149000Y-7688000D02*
X10179000Y-7718000D01*
X10179000Y-7688000D02*
X10149000Y-7718000D01*
X10195800Y-6385800D02*
X10225800Y-6415800D01*
X10225800Y-6385800D02*
X10195800Y-6415800D01*
X10199000Y-9186000D02*
X10229000Y-9216000D01*
X10229000Y-9186000D02*
X10199000Y-9216000D01*
X10235000Y-10485000D02*
X10265000Y-10515000D01*
X10265000Y-10485000D02*
X10235000Y-10515000D01*
X10235000Y-10735000D02*
X10265000Y-10765000D01*
X10265000Y-10735000D02*
X10235000Y-10765000D01*
X10265800Y-6385800D02*
X10295800Y-6415800D01*
X10295800Y-6385800D02*
X10265800Y-6415800D01*
X10276524Y-7584476D02*
X10306524Y-7614476D01*
X10306524Y-7584476D02*
X10276524Y-7614476D01*
X10291000Y-7797999D02*
X10321000Y-7827999D01*
X10321000Y-7797999D02*
X10291000Y-7827999D01*
X10305500Y-7328766D02*
X10335500Y-7358766D01*
X10335500Y-7328766D02*
X10305500Y-7358766D01*
X10305500Y-7404524D02*
X10335500Y-7434524D01*
X10335500Y-7404524D02*
X10305500Y-7434524D01*
X10315727Y-7473773D02*
X10345727Y-7503773D01*
X10345727Y-7473773D02*
X10315727Y-7503773D01*
X10335801Y-6385800D02*
X10365801Y-6415800D01*
X10365801Y-6385800D02*
X10335801Y-6415800D01*
X10405801Y-6385800D02*
X10435801Y-6415800D01*
X10435801Y-6385800D02*
X10405801Y-6415800D01*
X10424400Y-5954000D02*
X10454400Y-5984000D01*
X10454400Y-5954000D02*
X10424400Y-5984000D01*
X10451000Y-7598999D02*
X10481000Y-7628999D01*
X10481000Y-7598999D02*
X10451000Y-7628999D01*
X10451000Y-7887000D02*
X10481000Y-7917000D01*
X10481000Y-7887000D02*
X10451000Y-7917000D01*
X10451000Y-7957000D02*
X10481000Y-7987000D01*
X10481000Y-7957000D02*
X10451000Y-7987000D01*
X10456000Y-7461000D02*
X10486000Y-7491000D01*
X10486000Y-7461000D02*
X10456000Y-7491000D01*
X10475801Y-6385800D02*
X10505801Y-6415800D01*
X10505801Y-6385800D02*
X10475801Y-6415800D01*
X10485000Y-5055000D02*
X10515000Y-5085000D01*
X10515000Y-5055000D02*
X10485000Y-5085000D01*
X10485000Y-10485000D02*
X10515000Y-10515000D01*
X10515000Y-10485000D02*
X10485000Y-10515000D01*
X10485000Y-10735000D02*
X10515000Y-10765000D01*
X10515000Y-10735000D02*
X10485000Y-10765000D01*
X10521000Y-7545999D02*
X10551000Y-7575999D01*
X10551000Y-7545999D02*
X10521000Y-7575999D01*
X10545802Y-6385800D02*
X10575802Y-6415800D01*
X10575802Y-6385800D02*
X10545802Y-6415800D01*
X10609000Y-7165000D02*
X10639000Y-7195000D01*
X10639000Y-7165000D02*
X10609000Y-7195000D01*
X10616941Y-6398376D02*
X10646941Y-6428376D01*
X10646941Y-6398376D02*
X10616941Y-6428376D01*
X10652500Y-5058000D02*
X10682500Y-5088000D01*
X10682500Y-5058000D02*
X10652500Y-5088000D01*
X10685802Y-6385800D02*
X10715802Y-6415800D01*
X10715802Y-6385800D02*
X10685802Y-6415800D01*
X10735000Y-10485000D02*
X10765000Y-10515000D01*
X10765000Y-10485000D02*
X10735000Y-10515000D01*
X10735000Y-10735000D02*
X10765000Y-10765000D01*
X10765000Y-10735000D02*
X10735000Y-10765000D01*
X10755802Y-6385800D02*
X10785802Y-6415800D01*
X10785802Y-6385800D02*
X10755802Y-6415800D01*
X10820000Y-8890000D02*
X10850000Y-8920000D01*
X10850000Y-8890000D02*
X10820000Y-8920000D01*
X10820000Y-8960000D02*
X10850000Y-8990000D01*
X10850000Y-8960000D02*
X10820000Y-8990000D01*
X10820000Y-9105000D02*
X10850000Y-9135000D01*
X10850000Y-9105000D02*
X10820000Y-9135000D01*
X10825803Y-6385800D02*
X10855803Y-6415800D01*
X10855803Y-6385800D02*
X10825803Y-6415800D01*
X10873000Y-8437000D02*
X10903000Y-8467000D01*
X10903000Y-8437000D02*
X10873000Y-8467000D01*
X10895791Y-6384533D02*
X10925791Y-6414533D01*
X10925791Y-6384533D02*
X10895791Y-6414533D01*
X10960000Y-5195000D02*
X10990000Y-5225000D01*
X10990000Y-5195000D02*
X10960000Y-5225000D01*
X10979000Y-6704000D02*
X11009000Y-6734000D01*
X11009000Y-6704000D02*
X10979000Y-6734000D01*
X10985000Y-8585000D02*
X11015000Y-8615000D01*
X11015000Y-8585000D02*
X10985000Y-8615000D01*
X10985000Y-8685000D02*
X11015000Y-8715000D01*
X11015000Y-8685000D02*
X10985000Y-8715000D01*
X10985000Y-8785000D02*
X11015000Y-8815000D01*
X11015000Y-8785000D02*
X10985000Y-8815000D01*
X10985000Y-10485000D02*
X11015000Y-10515000D01*
X11015000Y-10485000D02*
X10985000Y-10515000D01*
X10985000Y-10735000D02*
X11015000Y-10765000D01*
X11015000Y-10735000D02*
X10985000Y-10765000D01*
X11038981Y-5281000D02*
X11068981Y-5311000D01*
X11068981Y-5281000D02*
X11038981Y-5311000D01*
X11066000Y-8316000D02*
X11096000Y-8346000D01*
X11096000Y-8316000D02*
X11066000Y-8346000D01*
X11079200Y-7915400D02*
X11109200Y-7945400D01*
X11109200Y-7915400D02*
X11079200Y-7945400D01*
X11096000Y-7051000D02*
X11126000Y-7081000D01*
X11126000Y-7051000D02*
X11096000Y-7081000D01*
X11105410Y-6389560D02*
X11135410Y-6419560D01*
X11135410Y-6389560D02*
X11105410Y-6419560D01*
X11108655Y-5296548D02*
X11138655Y-5326548D01*
X11138655Y-5296548D02*
X11108655Y-5326548D01*
X11133000Y-6723000D02*
X11163000Y-6753000D01*
X11163000Y-6723000D02*
X11133000Y-6753000D01*
X11138000Y-8780000D02*
X11168000Y-8810000D01*
X11168000Y-8780000D02*
X11138000Y-8810000D01*
X11145000Y-8685000D02*
X11175000Y-8715000D01*
X11175000Y-8685000D02*
X11145000Y-8715000D01*
X11175410Y-6389560D02*
X11205410Y-6419560D01*
X11205410Y-6389560D02*
X11175410Y-6419560D01*
X11185000Y-5414000D02*
X11215000Y-5444000D01*
X11215000Y-5414000D02*
X11185000Y-5444000D01*
X11185000Y-5484000D02*
X11215000Y-5514000D01*
X11215000Y-5484000D02*
X11185000Y-5514000D01*
X11185000Y-5554000D02*
X11215000Y-5584000D01*
X11215000Y-5554000D02*
X11185000Y-5584000D01*
X11185000Y-5624000D02*
X11215000Y-5654000D01*
X11215000Y-5624000D02*
X11185000Y-5654000D01*
X11185000Y-5694000D02*
X11215000Y-5724000D01*
X11215000Y-5694000D02*
X11185000Y-5724000D01*
X11230000Y-6205000D02*
X11260000Y-6235000D01*
X11260000Y-6205000D02*
X11230000Y-6235000D01*
X11234000Y-6320000D02*
X11264000Y-6350000D01*
X11264000Y-6320000D02*
X11234000Y-6350000D01*
X11235000Y-8310000D02*
X11265000Y-8340000D01*
X11265000Y-8310000D02*
X11235000Y-8340000D01*
X11235000Y-10485000D02*
X11265000Y-10515000D01*
X11265000Y-10485000D02*
X11235000Y-10515000D01*
X11235000Y-10735000D02*
X11265000Y-10765000D01*
X11265000Y-10735000D02*
X11235000Y-10765000D01*
X11295000Y-5205000D02*
X11325000Y-5235000D01*
X11325000Y-5205000D02*
X11295000Y-5235000D01*
X11320477Y-6648477D02*
X11350477Y-6678477D01*
X11350477Y-6648477D02*
X11320477Y-6678477D01*
X11365000Y-5205000D02*
X11395000Y-5235000D01*
X11395000Y-5205000D02*
X11365000Y-5235000D01*
X11367000Y-9486000D02*
X11397000Y-9516000D01*
X11397000Y-9486000D02*
X11367000Y-9516000D01*
X11393000Y-9332000D02*
X11423000Y-9362000D01*
X11423000Y-9332000D02*
X11393000Y-9362000D01*
X11400208Y-6607192D02*
X11430208Y-6637192D01*
X11430208Y-6607192D02*
X11400208Y-6637192D01*
X11425000Y-5772000D02*
X11455000Y-5802000D01*
X11455000Y-5772000D02*
X11425000Y-5802000D01*
X11427000Y-5863000D02*
X11457000Y-5893000D01*
X11457000Y-5863000D02*
X11427000Y-5893000D01*
X11435000Y-5205000D02*
X11465000Y-5235000D01*
X11465000Y-5205000D02*
X11435000Y-5235000D01*
X11458872Y-6569001D02*
X11488872Y-6599001D01*
X11488872Y-6569001D02*
X11458872Y-6599001D01*
X11502500Y-7077000D02*
X11532500Y-7107000D01*
X11532500Y-7077000D02*
X11502500Y-7107000D01*
X11615000Y-9105000D02*
X11645000Y-9135000D01*
X11645000Y-9105000D02*
X11615000Y-9135000D01*
X11684000Y-6586000D02*
X11714000Y-6616000D01*
X11714000Y-6586000D02*
X11684000Y-6616000D01*
X11722000Y-6915000D02*
X11752000Y-6945000D01*
X11752000Y-6915000D02*
X11722000Y-6945000D01*
X11775390Y-5863610D02*
X11805390Y-5893610D01*
X11805390Y-5863610D02*
X11775390Y-5893610D01*
X11777000Y-5772000D02*
X11807000Y-5802000D01*
X11807000Y-5772000D02*
X11777000Y-5802000D01*
X11825000Y-8327500D02*
X11855000Y-8357500D01*
X11855000Y-8327500D02*
X11825000Y-8357500D01*
X11825000Y-8427500D02*
X11855000Y-8457500D01*
X11855000Y-8427500D02*
X11825000Y-8457500D01*
X11825000Y-8605000D02*
X11855000Y-8635000D01*
X11855000Y-8605000D02*
X11825000Y-8635000D01*
X11845500Y-8170000D02*
X11875500Y-8200000D01*
X11875500Y-8170000D02*
X11845500Y-8200000D01*
X11904700Y-8057700D02*
X11934700Y-8087700D01*
X11934700Y-8057700D02*
X11904700Y-8087700D01*
X11910000Y-6970000D02*
X11940000Y-7000000D01*
X11940000Y-6970000D02*
X11910000Y-7000000D01*
X12029000Y-6787998D02*
X12059000Y-6817998D01*
X12059000Y-6787998D02*
X12029000Y-6817998D01*
X12134000Y-10888000D02*
X12164000Y-10918000D01*
X12164000Y-10888000D02*
X12134000Y-10918000D01*
X12151000Y-9672000D02*
X12181000Y-9702000D01*
X12181000Y-9672000D02*
X12151000Y-9702000D01*
X12209000Y-11704000D02*
X12239000Y-11734000D01*
X12239000Y-11704000D02*
X12209000Y-11734000D01*
X12210000Y-12010000D02*
X12240000Y-12040000D01*
X12240000Y-12010000D02*
X12210000Y-12040000D01*
X12213000Y-9604000D02*
X12243000Y-9634000D01*
X12243000Y-9604000D02*
X12213000Y-9634000D01*
X12214000Y-10898000D02*
X12244000Y-10928000D01*
X12244000Y-10898000D02*
X12214000Y-10928000D01*
X12327000Y-8390000D02*
X12357000Y-8420000D01*
X12357000Y-8390000D02*
X12327000Y-8420000D01*
X12371000Y-7435000D02*
X12401000Y-7465000D01*
X12401000Y-7435000D02*
X12371000Y-7465000D01*
X12378261Y-8617249D02*
X12408261Y-8647249D01*
X12408261Y-8617249D02*
X12378261Y-8647249D01*
X12420700Y-8027500D02*
X12450700Y-8057500D01*
X12450700Y-8027500D02*
X12420700Y-8057500D01*
X12420700Y-8127500D02*
X12450700Y-8157500D01*
X12450700Y-8127500D02*
X12420700Y-8157500D01*
X12420700Y-8227500D02*
X12450700Y-8257500D01*
X12450700Y-8227500D02*
X12420700Y-8257500D01*
X12420700Y-8327500D02*
X12450700Y-8357500D01*
X12450700Y-8327500D02*
X12420700Y-8357500D01*
X12476000Y-9106000D02*
X12506000Y-9136000D01*
X12506000Y-9106000D02*
X12476000Y-9136000D01*
X12478200Y-8585000D02*
X12508200Y-8615000D01*
X12508200Y-8585000D02*
X12478200Y-8615000D01*
X12510000Y-9231500D02*
X12540000Y-9261500D01*
X12540000Y-9231500D02*
X12510000Y-9261500D01*
X12578200Y-8585000D02*
X12608200Y-8615000D01*
X12608200Y-8585000D02*
X12578200Y-8615000D01*
X12618000Y-9106000D02*
X12648000Y-9136000D01*
X12648000Y-9106000D02*
X12618000Y-9136000D01*
X12625154Y-11125154D02*
X12655154Y-11155154D01*
X12655154Y-11125154D02*
X12625154Y-11155154D01*
X12627000Y-11052000D02*
X12657000Y-11082000D01*
X12657000Y-11052000D02*
X12627000Y-11082000D01*
X12629000Y-7088000D02*
X12659000Y-7118000D01*
X12659000Y-7088000D02*
X12629000Y-7118000D01*
X12678200Y-8585000D02*
X12708200Y-8615000D01*
X12708200Y-8585000D02*
X12678200Y-8615000D01*
X12748000Y-9115000D02*
X12778000Y-9145000D01*
X12778000Y-9115000D02*
X12748000Y-9145000D01*
X12773054Y-5225000D02*
X12803054Y-5255000D01*
X12803054Y-5225000D02*
X12773054Y-5255000D01*
X12778200Y-8585000D02*
X12808200Y-8615000D01*
X12808200Y-8585000D02*
X12778200Y-8615000D01*
X12803000Y-8740000D02*
X12833000Y-8770000D01*
X12833000Y-8740000D02*
X12803000Y-8770000D01*
X12835000Y-9935000D02*
X12865000Y-9965000D01*
X12865000Y-9935000D02*
X12835000Y-9965000D01*
X12843054Y-5225000D02*
X12873054Y-5255000D01*
X12873054Y-5225000D02*
X12843054Y-5255000D01*
X12898000Y-8557000D02*
X12928000Y-8587000D01*
X12928000Y-8557000D02*
X12898000Y-8587000D01*
X12913054Y-5225000D02*
X12943054Y-5255000D01*
X12943054Y-5225000D02*
X12913054Y-5255000D01*
X12928200Y-8635000D02*
X12958200Y-8665000D01*
X12958200Y-8635000D02*
X12928200Y-8665000D01*
X12929000Y-11126000D02*
X12959000Y-11156000D01*
X12959000Y-11126000D02*
X12929000Y-11156000D01*
X12935000Y-10035000D02*
X12965000Y-10065000D01*
X12965000Y-10035000D02*
X12935000Y-10065000D01*
X12939558Y-9070241D02*
X12969558Y-9100241D01*
X12969558Y-9070241D02*
X12939558Y-9100241D01*
X12983054Y-5225000D02*
X13013054Y-5255000D01*
X13013054Y-5225000D02*
X12983054Y-5255000D01*
X13028200Y-8585000D02*
X13058200Y-8615000D01*
X13058200Y-8585000D02*
X13028200Y-8615000D01*
X13035000Y-10135000D02*
X13065000Y-10165000D01*
X13065000Y-10135000D02*
X13035000Y-10165000D01*
X13038000Y-7005500D02*
X13068000Y-7035500D01*
X13068000Y-7005500D02*
X13038000Y-7035500D01*
X13050000Y-5449000D02*
X13080000Y-5479000D01*
X13080000Y-5449000D02*
X13050000Y-5479000D01*
X13053054Y-5225000D02*
X13083054Y-5255000D01*
X13083054Y-5225000D02*
X13053054Y-5255000D01*
X13094000Y-11084000D02*
X13124000Y-11114000D01*
X13124000Y-11084000D02*
X13094000Y-11114000D01*
X13113000Y-9148000D02*
X13143000Y-9178000D01*
X13143000Y-9148000D02*
X13113000Y-9178000D01*
X13123054Y-5225000D02*
X13153054Y-5255000D01*
X13153054Y-5225000D02*
X13123054Y-5255000D01*
X13128200Y-8585000D02*
X13158200Y-8615000D01*
X13158200Y-8585000D02*
X13128200Y-8615000D01*
X13135000Y-10235000D02*
X13165000Y-10265000D01*
X13165000Y-10235000D02*
X13135000Y-10265000D01*
X13155000Y-9604000D02*
X13185000Y-9634000D01*
X13185000Y-9604000D02*
X13155000Y-9634000D01*
X13156014Y-9673993D02*
X13186014Y-9703993D01*
X13186014Y-9673993D02*
X13156014Y-9703993D01*
X13160000Y-5560000D02*
X13190000Y-5590000D01*
X13190000Y-5560000D02*
X13160000Y-5590000D01*
X13178000Y-7076000D02*
X13208000Y-7106000D01*
X13208000Y-7076000D02*
X13178000Y-7106000D01*
X13193054Y-5225000D02*
X13223054Y-5255000D01*
X13223054Y-5225000D02*
X13193054Y-5255000D01*
X13207124Y-8696707D02*
X13237124Y-8726707D01*
X13237124Y-8696707D02*
X13207124Y-8726707D01*
X13235000Y-10335000D02*
X13265000Y-10365000D01*
X13265000Y-10335000D02*
X13235000Y-10365000D01*
X13263054Y-5225000D02*
X13293054Y-5255000D01*
X13293054Y-5225000D02*
X13263054Y-5255000D01*
X13285000Y-5560000D02*
X13315000Y-5590000D01*
X13315000Y-5560000D02*
X13285000Y-5590000D01*
X13309000Y-8593000D02*
X13339000Y-8623000D01*
X13339000Y-8593000D02*
X13309000Y-8623000D01*
X13333054Y-5225000D02*
X13363054Y-5255000D01*
X13363054Y-5225000D02*
X13333054Y-5255000D01*
X13335000Y-10435000D02*
X13365000Y-10465000D01*
X13365000Y-10435000D02*
X13335000Y-10465000D01*
X13363000Y-6981000D02*
X13393000Y-7011000D01*
X13393000Y-6981000D02*
X13363000Y-7011000D01*
X13403054Y-5225000D02*
X13433054Y-5255000D01*
X13433054Y-5225000D02*
X13403054Y-5255000D01*
X13435000Y-10535000D02*
X13465000Y-10565000D01*
X13465000Y-10535000D02*
X13435000Y-10565000D01*
X13460000Y-5710000D02*
X13490000Y-5740000D01*
X13490000Y-5710000D02*
X13460000Y-5740000D01*
X13473054Y-5225000D02*
X13503054Y-5255000D01*
X13503054Y-5225000D02*
X13473054Y-5255000D01*
X13478200Y-6951000D02*
X13508200Y-6981000D01*
X13508200Y-6951000D02*
X13478200Y-6981000D01*
X13482000Y-7024000D02*
X13512000Y-7054000D01*
X13512000Y-7024000D02*
X13482000Y-7054000D01*
X13489000Y-8596000D02*
X13519000Y-8626000D01*
X13519000Y-8596000D02*
X13489000Y-8626000D01*
X13543054Y-5225000D02*
X13573054Y-5255000D01*
X13573054Y-5225000D02*
X13543054Y-5255000D01*
X13610000Y-11065000D02*
X13640000Y-11095000D01*
X13640000Y-11065000D02*
X13610000Y-11095000D01*
X13613054Y-5225000D02*
X13643054Y-5255000D01*
X13643054Y-5225000D02*
X13613054Y-5255000D01*
X13626000Y-7046000D02*
X13656000Y-7076000D01*
X13656000Y-7046000D02*
X13626000Y-7076000D01*
X13663000Y-10751000D02*
X13693000Y-10781000D01*
X13693000Y-10751000D02*
X13663000Y-10781000D01*
X13683054Y-5225000D02*
X13713054Y-5255000D01*
X13713054Y-5225000D02*
X13683054Y-5255000D01*
X13737000Y-9787000D02*
X13767000Y-9817000D01*
X13767000Y-9787000D02*
X13737000Y-9817000D01*
X13753054Y-5225000D02*
X13783054Y-5255000D01*
X13783054Y-5225000D02*
X13753054Y-5255000D01*
X13780000Y-7818000D02*
X13810000Y-7848000D01*
X13810000Y-7818000D02*
X13780000Y-7848000D01*
X13820000Y-7980000D02*
X13850000Y-8010000D01*
X13850000Y-7980000D02*
X13820000Y-8010000D01*
X13885000Y-8027500D02*
X13915000Y-8057500D01*
X13915000Y-8027500D02*
X13885000Y-8057500D01*
X13885000Y-8127500D02*
X13915000Y-8157500D01*
X13915000Y-8127500D02*
X13885000Y-8157500D01*
X13885000Y-8227500D02*
X13915000Y-8257500D01*
X13915000Y-8227500D02*
X13885000Y-8257500D01*
X13885000Y-8327500D02*
X13915000Y-8357500D01*
X13915000Y-8327500D02*
X13885000Y-8357500D01*
X13885000Y-8427500D02*
X13915000Y-8457500D01*
X13915000Y-8427500D02*
X13885000Y-8457500D01*
X13885000Y-8513000D02*
X13915000Y-8543000D01*
X13915000Y-8513000D02*
X13885000Y-8543000D01*
X13886000Y-7626000D02*
X13916000Y-7656000D01*
X13916000Y-7626000D02*
X13886000Y-7656000D01*
X13890000Y-6993000D02*
X13920000Y-7023000D01*
X13920000Y-6993000D02*
X13890000Y-7023000D01*
X13940323Y-9116324D02*
X13970323Y-9146324D01*
X13970323Y-9116324D02*
X13940323Y-9146324D01*
X13955000Y-6923000D02*
X13985000Y-6953000D01*
X13985000Y-6923000D02*
X13955000Y-6953000D01*
X13979000Y-8681000D02*
X14009000Y-8711000D01*
X14009000Y-8681000D02*
X13979000Y-8711000D01*
X13985000Y-7370000D02*
X14015000Y-7400000D01*
X14015000Y-7370000D02*
X13985000Y-7400000D01*
X14013742Y-7119244D02*
X14043742Y-7149244D01*
X14043742Y-7119244D02*
X14013742Y-7149244D01*
X14024000Y-7050000D02*
X14054000Y-7080000D01*
X14054000Y-7050000D02*
X14024000Y-7080000D01*
X14035000Y-7902000D02*
X14065000Y-7932000D01*
X14065000Y-7902000D02*
X14035000Y-7932000D01*
X14073000Y-10808000D02*
X14103000Y-10838000D01*
X14103000Y-10808000D02*
X14073000Y-10838000D01*
X14082000Y-9263000D02*
X14112000Y-9293000D01*
X14112000Y-9263000D02*
X14082000Y-9293000D01*
X14130000Y-9099000D02*
X14160000Y-9129000D01*
X14160000Y-9099000D02*
X14130000Y-9129000D01*
X14130000Y-9169000D02*
X14160000Y-9199000D01*
X14160000Y-9169000D02*
X14130000Y-9199000D01*
X14130000Y-9570000D02*
X14160000Y-9600000D01*
X14160000Y-9570000D02*
X14130000Y-9600000D01*
X14130000Y-9640000D02*
X14160000Y-9670000D01*
X14160000Y-9640000D02*
X14130000Y-9670000D01*
X14130000Y-9710000D02*
X14160000Y-9740000D01*
X14160000Y-9710000D02*
X14130000Y-9740000D01*
X14130000Y-9780000D02*
X14160000Y-9810000D01*
X14160000Y-9780000D02*
X14130000Y-9810000D01*
X14130000Y-9850000D02*
X14160000Y-9880000D01*
X14160000Y-9850000D02*
X14130000Y-9880000D01*
X14130000Y-9920000D02*
X14160000Y-9950000D01*
X14160000Y-9920000D02*
X14130000Y-9950000D01*
X14130000Y-9990000D02*
X14160000Y-10020000D01*
X14160000Y-9990000D02*
X14130000Y-10020000D01*
X14130000Y-10060000D02*
X14160000Y-10090000D01*
X14160000Y-10060000D02*
X14130000Y-10090000D01*
X14130000Y-10130000D02*
X14160000Y-10160000D01*
X14160000Y-10130000D02*
X14130000Y-10160000D01*
X14130000Y-10200000D02*
X14160000Y-10230000D01*
X14160000Y-10200000D02*
X14130000Y-10230000D01*
X14130000Y-10270000D02*
X14160000Y-10300000D01*
X14160000Y-10270000D02*
X14130000Y-10300000D01*
X14130000Y-10340000D02*
X14160000Y-10370000D01*
X14160000Y-10340000D02*
X14130000Y-10370000D01*
X14252000Y-10808000D02*
X14282000Y-10838000D01*
X14282000Y-10808000D02*
X14252000Y-10838000D01*
X14257000Y-9389000D02*
X14287000Y-9419000D01*
X14287000Y-9389000D02*
X14257000Y-9419000D01*
X14261000Y-8855000D02*
X14291000Y-8885000D01*
X14291000Y-8855000D02*
X14261000Y-8885000D01*
X14358000Y-6379000D02*
X14388000Y-6409000D01*
X14388000Y-6379000D02*
X14358000Y-6409000D01*
X14359010Y-6296198D02*
X14389010Y-6326198D01*
X14389010Y-6296198D02*
X14359010Y-6326198D01*
X14363000Y-8931000D02*
X14393000Y-8961000D01*
X14393000Y-8931000D02*
X14363000Y-8961000D01*
X14409000Y-7080500D02*
X14439000Y-7110500D01*
X14439000Y-7080500D02*
X14409000Y-7110500D01*
X14421000Y-8677000D02*
X14451000Y-8707000D01*
X14451000Y-8677000D02*
X14421000Y-8707000D01*
X14424000Y-8364000D02*
X14454000Y-8394000D01*
X14454000Y-8364000D02*
X14424000Y-8394000D01*
X14449000Y-7592000D02*
X14479000Y-7622000D01*
X14479000Y-7592000D02*
X14449000Y-7622000D01*
X14455000Y-10752799D02*
X14485000Y-10782799D01*
X14485000Y-10752799D02*
X14455000Y-10782799D01*
X14458000Y-8048000D02*
X14488000Y-8078000D01*
X14488000Y-8048000D02*
X14458000Y-8078000D01*
X14461223Y-7133500D02*
X14491223Y-7163500D01*
X14491223Y-7133500D02*
X14461223Y-7163500D01*
X14471000Y-4588000D02*
X14501000Y-4618000D01*
X14501000Y-4588000D02*
X14471000Y-4618000D01*
X14471000Y-6289000D02*
X14501000Y-6319000D01*
X14501000Y-6289000D02*
X14471000Y-6319000D01*
X14471000Y-6432000D02*
X14501000Y-6462000D01*
X14501000Y-6432000D02*
X14471000Y-6462000D01*
X14474000Y-8839000D02*
X14504000Y-8869000D01*
X14504000Y-8839000D02*
X14474000Y-8869000D01*
X14474000Y-9002000D02*
X14504000Y-9032000D01*
X14504000Y-9002000D02*
X14474000Y-9032000D01*
X14537000Y-8932000D02*
X14567000Y-8962000D01*
X14567000Y-8932000D02*
X14537000Y-8962000D01*
X14590000Y-9044000D02*
X14620000Y-9074000D01*
X14620000Y-9044000D02*
X14590000Y-9074000D01*
X14643000Y-8932000D02*
X14673000Y-8962000D01*
X14673000Y-8932000D02*
X14643000Y-8962000D01*
X14658000Y-5304000D02*
X14688000Y-5334000D01*
X14688000Y-5304000D02*
X14658000Y-5334000D01*
X14762000Y-6849000D02*
X14792000Y-6879000D01*
X14792000Y-6849000D02*
X14762000Y-6879000D01*
X14762000Y-6919000D02*
X14792000Y-6949000D01*
X14792000Y-6919000D02*
X14762000Y-6949000D01*
X14762000Y-6989000D02*
X14792000Y-7019000D01*
X14792000Y-6989000D02*
X14762000Y-7019000D01*
X14762000Y-7059000D02*
X14792000Y-7089000D01*
X14792000Y-7059000D02*
X14762000Y-7089000D01*
X14762000Y-7129000D02*
X14792000Y-7159000D01*
X14792000Y-7129000D02*
X14762000Y-7159000D01*
X14762000Y-7199000D02*
X14792000Y-7229000D01*
X14792000Y-7199000D02*
X14762000Y-7229000D01*
X14762000Y-7269000D02*
X14792000Y-7299000D01*
X14792000Y-7269000D02*
X14762000Y-7299000D01*
X14762000Y-7339000D02*
X14792000Y-7369000D01*
X14792000Y-7339000D02*
X14762000Y-7369000D01*
X14762000Y-7600000D02*
X14792000Y-7630000D01*
X14792000Y-7600000D02*
X14762000Y-7630000D01*
X14762000Y-7670000D02*
X14792000Y-7700000D01*
X14792000Y-7670000D02*
X14762000Y-7700000D01*
X14762000Y-7919000D02*
X14792000Y-7949000D01*
X14792000Y-7919000D02*
X14762000Y-7949000D01*
X14762000Y-7989000D02*
X14792000Y-8019000D01*
X14792000Y-7989000D02*
X14762000Y-8019000D01*
X14959000Y-8932000D02*
X14989000Y-8962000D01*
X14989000Y-8932000D02*
X14959000Y-8962000D01*
X14960000Y-9099000D02*
X14990000Y-9129000D01*
X14990000Y-9099000D02*
X14960000Y-9129000D01*
X14960000Y-9169000D02*
X14990000Y-9199000D01*
X14990000Y-9169000D02*
X14960000Y-9199000D01*
X14960000Y-9570000D02*
X14990000Y-9600000D01*
X14990000Y-9570000D02*
X14960000Y-9600000D01*
X14960000Y-9640000D02*
X14990000Y-9670000D01*
X14990000Y-9640000D02*
X14960000Y-9670000D01*
X14960000Y-9710000D02*
X14990000Y-9740000D01*
X14990000Y-9710000D02*
X14960000Y-9740000D01*
X14960000Y-9780000D02*
X14990000Y-9810000D01*
X14990000Y-9780000D02*
X14960000Y-9810000D01*
X14960000Y-9850000D02*
X14990000Y-9880000D01*
X14990000Y-9850000D02*
X14960000Y-9880000D01*
X14960000Y-9920000D02*
X14990000Y-9950000D01*
X14990000Y-9920000D02*
X14960000Y-9950000D01*
X14960000Y-9990000D02*
X14990000Y-10020000D01*
X14990000Y-9990000D02*
X14960000Y-10020000D01*
X14960000Y-10060000D02*
X14990000Y-10090000D01*
X14990000Y-10060000D02*
X14960000Y-10090000D01*
X14960000Y-10130000D02*
X14990000Y-10160000D01*
X14990000Y-10130000D02*
X14960000Y-10160000D01*
X14960000Y-10200000D02*
X14990000Y-10230000D01*
X14990000Y-10200000D02*
X14960000Y-10230000D01*
X14960000Y-10270000D02*
X14990000Y-10300000D01*
X14990000Y-10270000D02*
X14960000Y-10300000D01*
X14960000Y-10340000D02*
X14990000Y-10370000D01*
X14990000Y-10340000D02*
X14960000Y-10370000D01*
X15003000Y-7437000D02*
X15033000Y-7467000D01*
X15033000Y-7437000D02*
X15003000Y-7467000D01*
X15056000Y-6919000D02*
X15086000Y-6949000D01*
X15086000Y-6919000D02*
X15056000Y-6949000D01*
X15056000Y-6989000D02*
X15086000Y-7019000D01*
X15086000Y-6989000D02*
X15056000Y-7019000D01*
X15056000Y-7059000D02*
X15086000Y-7089000D01*
X15086000Y-7059000D02*
X15056000Y-7089000D01*
X15056000Y-7129000D02*
X15086000Y-7159000D01*
X15086000Y-7129000D02*
X15056000Y-7159000D01*
X15056000Y-7199000D02*
X15086000Y-7229000D01*
X15086000Y-7199000D02*
X15056000Y-7229000D01*
X15056000Y-7269000D02*
X15086000Y-7299000D01*
X15086000Y-7269000D02*
X15056000Y-7299000D01*
X15056000Y-7339000D02*
X15086000Y-7369000D01*
X15086000Y-7339000D02*
X15056000Y-7369000D01*
X15056000Y-7600000D02*
X15086000Y-7630000D01*
X15086000Y-7600000D02*
X15056000Y-7630000D01*
X15056000Y-7670000D02*
X15086000Y-7700000D01*
X15086000Y-7670000D02*
X15056000Y-7700000D01*
X15056000Y-7919000D02*
X15086000Y-7949000D01*
X15086000Y-7919000D02*
X15056000Y-7949000D01*
X15056000Y-7989000D02*
X15086000Y-8019000D01*
X15086000Y-7989000D02*
X15056000Y-8019000D01*
X15116000Y-8126477D02*
X15146000Y-8156477D01*
X15146000Y-8126477D02*
X15116000Y-8156477D01*
X15196000Y-6838000D02*
X15226000Y-6868000D01*
X15226000Y-6838000D02*
X15196000Y-6868000D01*
X15220000Y-10995000D02*
X15250000Y-11025000D01*
X15250000Y-10995000D02*
X15220000Y-11025000D01*
X15317000Y-6769000D02*
X15347000Y-6799000D01*
X15347000Y-6769000D02*
X15317000Y-6799000D01*
X15317000Y-8819000D02*
X15347000Y-8849000D01*
X15347000Y-8819000D02*
X15317000Y-8849000D01*
X15444458Y-11125642D02*
X15474458Y-11155642D01*
X15474458Y-11125642D02*
X15444458Y-11155642D01*
X15445105Y-11055645D02*
X15475105Y-11085645D01*
X15475105Y-11055645D02*
X15445105Y-11085645D01*
X15446000Y-6471000D02*
X15476000Y-6501000D01*
X15476000Y-6471000D02*
X15446000Y-6501000D01*
X15446000Y-6564999D02*
X15476000Y-6594999D01*
X15476000Y-6564999D02*
X15446000Y-6594999D01*
X15485000Y-11385000D02*
X15515000Y-11415000D01*
X15515000Y-11385000D02*
X15485000Y-11415000D01*
X15485000Y-11585000D02*
X15515000Y-11615000D01*
X15515000Y-11585000D02*
X15485000Y-11615000D01*
X15485000Y-11785000D02*
X15515000Y-11815000D01*
X15515000Y-11785000D02*
X15485000Y-11815000D01*
X16085000Y-12885000D02*
X16115000Y-12915000D01*
X16115000Y-12885000D02*
X16085000Y-12915000D01*
X16285000Y-11185000D02*
X16315000Y-11215000D01*
X16315000Y-11185000D02*
X16285000Y-11215000D01*
X16285000Y-12685000D02*
X16315000Y-12715000D01*
X16315000Y-12685000D02*
X16285000Y-12715000D01*
X16285000Y-12885000D02*
X16315000Y-12915000D01*
X16315000Y-12885000D02*
X16285000Y-12915000D01*
X6770000Y-9150000D02*
G75*
G03X6770000Y-9150000I-20000J0D01*
G01*
X8120000Y-5220000D02*
G75*
G03X8120000Y-5220000I-20000J0D01*
G01*
X8120000Y-5360000D02*
G75*
G03X8120000Y-5360000I-20000J0D01*
G01*
X8120000Y-5500000D02*
G75*
G03X8120000Y-5500000I-20000J0D01*
G01*
X8120000Y-5635000D02*
G75*
G03X8120000Y-5635000I-20000J0D01*
G01*
X8255000Y-5635000D02*
G75*
G03X8255000Y-5635000I-20000J0D01*
G01*
X8260000Y-5220000D02*
G75*
G03X8260000Y-5220000I-20000J0D01*
G01*
X8260000Y-5360000D02*
G75*
G03X8260000Y-5360000I-20000J0D01*
G01*
X8260000Y-5500000D02*
G75*
G03X8260000Y-5500000I-20000J0D01*
G01*
X8395000Y-5640000D02*
G75*
G03X8395000Y-5640000I-20000J0D01*
G01*
X8400000Y-5220000D02*
G75*
G03X8400000Y-5220000I-20000J0D01*
G01*
X8400000Y-5360000D02*
G75*
G03X8400000Y-5360000I-20000J0D01*
G01*
X8400000Y-5500000D02*
G75*
G03X8400000Y-5500000I-20000J0D01*
G01*
X8420000Y-8950000D02*
G75*
G03X8420000Y-8950000I-20000J0D01*
G01*
X8535000Y-5640000D02*
G75*
G03X8535000Y-5640000I-20000J0D01*
G01*
X8540000Y-5220000D02*
G75*
G03X8540000Y-5220000I-20000J0D01*
G01*
X8540000Y-5360000D02*
G75*
G03X8540000Y-5360000I-20000J0D01*
G01*
X8540000Y-5500000D02*
G75*
G03X8540000Y-5500000I-20000J0D01*
G01*
X8620000Y-8950000D02*
G75*
G03X8620000Y-8950000I-20000J0D01*
G01*
X8655000Y-10684000D02*
G75*
G03X8655000Y-10684000I-20000J0D01*
G01*
X8848000Y-4075000D02*
G75*
G03X8848000Y-4075000I-20000J0D01*
G01*
X8848000Y-4272000D02*
G75*
G03X8848000Y-4272000I-20000J0D01*
G01*
X9899000Y-7311500D02*
G75*
G03X9899000Y-7311500I-20000J0D01*
G01*
X9962000Y-6208000D02*
G75*
G03X9962000Y-6208000I-20000J0D01*
G01*
X10018419Y-6058581D02*
G75*
G03X10018419Y-6058581I-20000J0D01*
G01*
X10070000Y-7322000D02*
G75*
G03X10070000Y-7322000I-20000J0D01*
G01*
X10277000Y-7285766D02*
G75*
G03X10277000Y-7285766I-20000J0D01*
G01*
X10295000Y-5315000D02*
G75*
G03X10295000Y-5315000I-20000J0D01*
G01*
X10295000Y-5445000D02*
G75*
G03X10295000Y-5445000I-20000J0D01*
G01*
X10295000Y-5590000D02*
G75*
G03X10295000Y-5590000I-20000J0D01*
G01*
X10295000Y-5730000D02*
G75*
G03X10295000Y-5730000I-20000J0D01*
G01*
X10430000Y-5590000D02*
G75*
G03X10430000Y-5590000I-20000J0D01*
G01*
X10435000Y-5315000D02*
G75*
G03X10435000Y-5315000I-20000J0D01*
G01*
X10435000Y-5445000D02*
G75*
G03X10435000Y-5445000I-20000J0D01*
G01*
X10435000Y-5730000D02*
G75*
G03X10435000Y-5730000I-20000J0D01*
G01*
X10570000Y-5730000D02*
G75*
G03X10570000Y-5730000I-20000J0D01*
G01*
X10575000Y-5315000D02*
G75*
G03X10575000Y-5315000I-20000J0D01*
G01*
X10575000Y-5450000D02*
G75*
G03X10575000Y-5450000I-20000J0D01*
G01*
X10575000Y-5590000D02*
G75*
G03X10575000Y-5590000I-20000J0D01*
G01*
X10577500Y-4804000D02*
G75*
G03X10577500Y-4804000I-20000J0D01*
G01*
X10710000Y-5595000D02*
G75*
G03X10710000Y-5595000I-20000J0D01*
G01*
X10710000Y-5730000D02*
G75*
G03X10710000Y-5730000I-20000J0D01*
G01*
X10715000Y-5315000D02*
G75*
G03X10715000Y-5315000I-20000J0D01*
G01*
X10715000Y-5450000D02*
G75*
G03X10715000Y-5450000I-20000J0D01*
G01*
X10920000Y-4000000D02*
G75*
G03X10920000Y-4000000I-20000J0D01*
G01*
X11120000Y-4000000D02*
G75*
G03X11120000Y-4000000I-20000J0D01*
G01*
X11320000Y-4000000D02*
G75*
G03X11320000Y-4000000I-20000J0D01*
G01*
X11492000Y-6382000D02*
G75*
G03X11492000Y-6382000I-20000J0D01*
G01*
X11520000Y-4000000D02*
G75*
G03X11520000Y-4000000I-20000J0D01*
G01*
X11720000Y-4000000D02*
G75*
G03X11720000Y-4000000I-20000J0D01*
G01*
X11873000Y-9286000D02*
G75*
G03X11873000Y-9286000I-20000J0D01*
G01*
X11918000Y-8939000D02*
G75*
G03X11918000Y-8939000I-20000J0D01*
G01*
X12043000Y-9116000D02*
G75*
G03X12043000Y-9116000I-20000J0D01*
G01*
X12132000Y-9605000D02*
G75*
G03X12132000Y-9605000I-20000J0D01*
G01*
X12339000Y-6186000D02*
G75*
G03X12339000Y-6186000I-20000J0D01*
G01*
X12341000Y-6280000D02*
G75*
G03X12341000Y-6280000I-20000J0D01*
G01*
X12381000Y-9714000D02*
G75*
G03X12381000Y-9714000I-20000J0D01*
G01*
X12540000Y-9434000D02*
G75*
G03X12540000Y-9434000I-20000J0D01*
G01*
X12575700Y-7263000D02*
G75*
G03X12575700Y-7263000I-20000J0D01*
G01*
X12720000Y-7800000D02*
G75*
G03X12720000Y-7800000I-20000J0D01*
G01*
X12920000Y-7600000D02*
G75*
G03X12920000Y-7600000I-20000J0D01*
G01*
X13120000Y-7400000D02*
G75*
G03X13120000Y-7400000I-20000J0D01*
G01*
X13120000Y-8100000D02*
G75*
G03X13120000Y-8100000I-20000J0D01*
G01*
X13313200Y-7190800D02*
G75*
G03X13313200Y-7190800I-20000J0D01*
G01*
X13320000Y-7900000D02*
G75*
G03X13320000Y-7900000I-20000J0D01*
G01*
X13417000Y-6547000D02*
G75*
G03X13417000Y-6547000I-20000J0D01*
G01*
X13520000Y-7700000D02*
G75*
G03X13520000Y-7700000I-20000J0D01*
G01*
X13706000Y-10433000D02*
G75*
G03X13706000Y-10433000I-20000J0D01*
G01*
X13720000Y-7500000D02*
G75*
G03X13720000Y-7500000I-20000J0D01*
G01*
X14225000Y-6668000D02*
G75*
G03X14225000Y-6668000I-20000J0D01*
G01*
X15024000Y-6679000D02*
G75*
G03X15024000Y-6679000I-20000J0D01*
G01*
X15120000Y-8400000D02*
G75*
G03X15120000Y-8400000I-20000J0D01*
G01*
X15120000Y-8600000D02*
G75*
G03X15120000Y-8600000I-20000J0D01*
G01*
X15800000Y-11677500D02*
X15800000Y-11722500D01*
X15777500Y-11700000D02*
X15822500Y-11700000D01*
X6767678Y-7267678D02*
X6767678Y-7232322D01*
X6732322Y-7232322D01*
X6732322Y-7267678D01*
X6767678Y-7267678D01*
X6767678Y-7517678D02*
X6767678Y-7482322D01*
X6732322Y-7482322D01*
X6732322Y-7517678D01*
X6767678Y-7517678D01*
X6767678Y-7767678D02*
X6767678Y-7732322D01*
X6732322Y-7732322D01*
X6732322Y-7767678D01*
X6767678Y-7767678D01*
X6767678Y-8017678D02*
X6767678Y-7982322D01*
X6732322Y-7982322D01*
X6732322Y-8017678D01*
X6767678Y-8017678D01*
X6817678Y-5617678D02*
X6817678Y-5582322D01*
X6782322Y-5582322D01*
X6782322Y-5617678D01*
X6817678Y-5617678D01*
X6817678Y-5817678D02*
X6817678Y-5782322D01*
X6782322Y-5782322D01*
X6782322Y-5817678D01*
X6817678Y-5817678D01*
X6817678Y-6017678D02*
X6817678Y-5982322D01*
X6782322Y-5982322D01*
X6782322Y-6017678D01*
X6817678Y-6017678D01*
X7017678Y-5617678D02*
X7017678Y-5582322D01*
X6982322Y-5582322D01*
X6982322Y-5617678D01*
X7017678Y-5617678D01*
X7017678Y-5817678D02*
X7017678Y-5782322D01*
X6982322Y-5782322D01*
X6982322Y-5817678D01*
X7017678Y-5817678D01*
X7017678Y-6017678D02*
X7017678Y-5982322D01*
X6982322Y-5982322D01*
X6982322Y-6017678D01*
X7017678Y-6017678D01*
X7017678Y-7267678D02*
X7017678Y-7232322D01*
X6982322Y-7232322D01*
X6982322Y-7267678D01*
X7017678Y-7267678D01*
X7017678Y-7517678D02*
X7017678Y-7482322D01*
X6982322Y-7482322D01*
X6982322Y-7517678D01*
X7017678Y-7517678D01*
X7017678Y-7767678D02*
X7017678Y-7732322D01*
X6982322Y-7732322D01*
X6982322Y-7767678D01*
X7017678Y-7767678D01*
X7017678Y-8017678D02*
X7017678Y-7982322D01*
X6982322Y-7982322D01*
X6982322Y-8017678D01*
X7017678Y-8017678D01*
X7017678Y-11017678D02*
X7017678Y-10982322D01*
X6982322Y-10982322D01*
X6982322Y-11017678D01*
X7017678Y-11017678D01*
X7017678Y-11267678D02*
X7017678Y-11232322D01*
X6982322Y-11232322D01*
X6982322Y-11267678D01*
X7017678Y-11267678D01*
X7017678Y-11517678D02*
X7017678Y-11482322D01*
X6982322Y-11482322D01*
X6982322Y-11517678D01*
X7017678Y-11517678D01*
X7017678Y-11767678D02*
X7017678Y-11732322D01*
X6982322Y-11732322D01*
X6982322Y-11767678D01*
X7017678Y-11767678D01*
X7017678Y-12017678D02*
X7017678Y-11982322D01*
X6982322Y-11982322D01*
X6982322Y-12017678D01*
X7017678Y-12017678D01*
X7017678Y-12267678D02*
X7017678Y-12232322D01*
X6982322Y-12232322D01*
X6982322Y-12267678D01*
X7017678Y-12267678D01*
X7267678Y-4017678D02*
X7267678Y-3982322D01*
X7232322Y-3982322D01*
X7232322Y-4017678D01*
X7267678Y-4017678D01*
X7267678Y-4267678D02*
X7267678Y-4232322D01*
X7232322Y-4232322D01*
X7232322Y-4267678D01*
X7267678Y-4267678D01*
X7267678Y-4517678D02*
X7267678Y-4482322D01*
X7232322Y-4482322D01*
X7232322Y-4517678D01*
X7267678Y-4517678D01*
X7267678Y-4767678D02*
X7267678Y-4732322D01*
X7232322Y-4732322D01*
X7232322Y-4767678D01*
X7267678Y-4767678D01*
X7267678Y-7267678D02*
X7267678Y-7232322D01*
X7232322Y-7232322D01*
X7232322Y-7267678D01*
X7267678Y-7267678D01*
X7267678Y-7517678D02*
X7267678Y-7482322D01*
X7232322Y-7482322D01*
X7232322Y-7517678D01*
X7267678Y-7517678D01*
X7267678Y-7767678D02*
X7267678Y-7732322D01*
X7232322Y-7732322D01*
X7232322Y-7767678D01*
X7267678Y-7767678D01*
X7267678Y-8017678D02*
X7267678Y-7982322D01*
X7232322Y-7982322D01*
X7232322Y-8017678D01*
X7267678Y-8017678D01*
X7267678Y-11017678D02*
X7267678Y-10982322D01*
X7232322Y-10982322D01*
X7232322Y-11017678D01*
X7267678Y-11017678D01*
X7417678Y-5917678D02*
X7417678Y-5882322D01*
X7382322Y-5882322D01*
X7382322Y-5917678D01*
X7417678Y-5917678D01*
X7417678Y-6117678D02*
X7417678Y-6082322D01*
X7382322Y-6082322D01*
X7382322Y-6117678D01*
X7417678Y-6117678D01*
X7417678Y-6317678D02*
X7417678Y-6282322D01*
X7382322Y-6282322D01*
X7382322Y-6317678D01*
X7417678Y-6317678D01*
X7417678Y-6517678D02*
X7417678Y-6482322D01*
X7382322Y-6482322D01*
X7382322Y-6517678D01*
X7417678Y-6517678D01*
X7417678Y-6717678D02*
X7417678Y-6682322D01*
X7382322Y-6682322D01*
X7382322Y-6717678D01*
X7417678Y-6717678D01*
X7517678Y-7267678D02*
X7517678Y-7232322D01*
X7482322Y-7232322D01*
X7482322Y-7267678D01*
X7517678Y-7267678D01*
X7517678Y-7517678D02*
X7517678Y-7482322D01*
X7482322Y-7482322D01*
X7482322Y-7517678D01*
X7517678Y-7517678D01*
X7517678Y-7767678D02*
X7517678Y-7732322D01*
X7482322Y-7732322D01*
X7482322Y-7767678D01*
X7517678Y-7767678D01*
X7517678Y-8017678D02*
X7517678Y-7982322D01*
X7482322Y-7982322D01*
X7482322Y-8017678D01*
X7517678Y-8017678D01*
X7517678Y-11017678D02*
X7517678Y-10982322D01*
X7482322Y-10982322D01*
X7482322Y-11017678D01*
X7517678Y-11017678D01*
X7517678Y-12267678D02*
X7517678Y-12232322D01*
X7482322Y-12232322D01*
X7482322Y-12267678D01*
X7517678Y-12267678D01*
X7717678Y-13217678D02*
X7717678Y-13182322D01*
X7682322Y-13182322D01*
X7682322Y-13217678D01*
X7717678Y-13217678D01*
X7767678Y-11017678D02*
X7767678Y-10982322D01*
X7732322Y-10982322D01*
X7732322Y-11017678D01*
X7767678Y-11017678D01*
X7767678Y-11267678D02*
X7767678Y-11232322D01*
X7732322Y-11232322D01*
X7732322Y-11267678D01*
X7767678Y-11267678D01*
X7767678Y-12267678D02*
X7767678Y-12232322D01*
X7732322Y-12232322D01*
X7732322Y-12267678D01*
X7767678Y-12267678D01*
X7767678Y-12517678D02*
X7767678Y-12482322D01*
X7732322Y-12482322D01*
X7732322Y-12517678D01*
X7767678Y-12517678D01*
X7817678Y-4117678D02*
X7817678Y-4082322D01*
X7782322Y-4082322D01*
X7782322Y-4117678D01*
X7817678Y-4117678D01*
X7817678Y-4317678D02*
X7817678Y-4282322D01*
X7782322Y-4282322D01*
X7782322Y-4317678D01*
X7817678Y-4317678D01*
X7817678Y-4517678D02*
X7817678Y-4482322D01*
X7782322Y-4482322D01*
X7782322Y-4517678D01*
X7817678Y-4517678D01*
X7817678Y-4717678D02*
X7817678Y-4682322D01*
X7782322Y-4682322D01*
X7782322Y-4717678D01*
X7817678Y-4717678D01*
X7917678Y-13217678D02*
X7917678Y-13182322D01*
X7882322Y-13182322D01*
X7882322Y-13217678D01*
X7917678Y-13217678D01*
X8017678Y-4117678D02*
X8017678Y-4082322D01*
X7982322Y-4082322D01*
X7982322Y-4117678D01*
X8017678Y-4117678D01*
X8017678Y-4317678D02*
X8017678Y-4282322D01*
X7982322Y-4282322D01*
X7982322Y-4317678D01*
X8017678Y-4317678D01*
X8017678Y-12267678D02*
X8017678Y-12232322D01*
X7982322Y-12232322D01*
X7982322Y-12267678D01*
X8017678Y-12267678D01*
X8217678Y-4117678D02*
X8217678Y-4082322D01*
X8182322Y-4082322D01*
X8182322Y-4117678D01*
X8217678Y-4117678D01*
X8417678Y-4117678D02*
X8417678Y-4082322D01*
X8382322Y-4082322D01*
X8382322Y-4117678D01*
X8417678Y-4117678D01*
X8602678Y-13195678D02*
X8602678Y-13160322D01*
X8567322Y-13160322D01*
X8567322Y-13195678D01*
X8602678Y-13195678D01*
X8617678Y-4117678D02*
X8617678Y-4082322D01*
X8582322Y-4082322D01*
X8582322Y-4117678D01*
X8617678Y-4117678D01*
X8698678Y-13491678D02*
X8698678Y-13456322D01*
X8663322Y-13456322D01*
X8663322Y-13491678D01*
X8698678Y-13491678D01*
X8966678Y-13493678D02*
X8966678Y-13458322D01*
X8931322Y-13458322D01*
X8931322Y-13493678D01*
X8966678Y-13493678D01*
X9292678Y-13545178D02*
X9292678Y-13509822D01*
X9257322Y-13509822D01*
X9257322Y-13545178D01*
X9292678Y-13545178D01*
X9817678Y-9617678D02*
X9817678Y-9582322D01*
X9782322Y-9582322D01*
X9782322Y-9617678D01*
X9817678Y-9617678D01*
X10017678Y-9617678D02*
X10017678Y-9582322D01*
X9982322Y-9582322D01*
X9982322Y-9617678D01*
X10017678Y-9617678D01*
X10117678Y-4017678D02*
X10117678Y-3982322D01*
X10082322Y-3982322D01*
X10082322Y-4017678D01*
X10117678Y-4017678D01*
X10117678Y-4217678D02*
X10117678Y-4182322D01*
X10082322Y-4182322D01*
X10082322Y-4217678D01*
X10117678Y-4217678D01*
X10217678Y-10017678D02*
X10217678Y-9982322D01*
X10182322Y-9982322D01*
X10182322Y-10017678D01*
X10217678Y-10017678D01*
X10317678Y-4017678D02*
X10317678Y-3982322D01*
X10282322Y-3982322D01*
X10282322Y-4017678D01*
X10317678Y-4017678D01*
X10317678Y-4217678D02*
X10317678Y-4182322D01*
X10282322Y-4182322D01*
X10282322Y-4217678D01*
X10317678Y-4217678D01*
X10417678Y-9617678D02*
X10417678Y-9582322D01*
X10382322Y-9582322D01*
X10382322Y-9617678D01*
X10417678Y-9617678D01*
X10417678Y-9817678D02*
X10417678Y-9782322D01*
X10382322Y-9782322D01*
X10382322Y-9817678D01*
X10417678Y-9817678D01*
X10417678Y-10017678D02*
X10417678Y-9982322D01*
X10382322Y-9982322D01*
X10382322Y-10017678D01*
X10417678Y-10017678D01*
X10617678Y-9617678D02*
X10617678Y-9582322D01*
X10582322Y-9582322D01*
X10582322Y-9617678D01*
X10617678Y-9617678D01*
X10617678Y-9817678D02*
X10617678Y-9782322D01*
X10582322Y-9782322D01*
X10582322Y-9817678D01*
X10617678Y-9817678D01*
X10817678Y-9617678D02*
X10817678Y-9582322D01*
X10782322Y-9582322D01*
X10782322Y-9617678D01*
X10817678Y-9617678D01*
X11688678Y-5195678D02*
X11688678Y-5160322D01*
X11653322Y-5160322D01*
X11653322Y-5195678D01*
X11688678Y-5195678D01*
X11690678Y-4941678D02*
X11690678Y-4906322D01*
X11655322Y-4906322D01*
X11655322Y-4941678D01*
X11690678Y-4941678D01*
X11917678Y-4017678D02*
X11917678Y-3982322D01*
X11882322Y-3982322D01*
X11882322Y-4017678D01*
X11917678Y-4017678D01*
X11917678Y-4217678D02*
X11917678Y-4182322D01*
X11882322Y-4182322D01*
X11882322Y-4217678D01*
X11917678Y-4217678D01*
X12217678Y-4917678D02*
X12217678Y-4882322D01*
X12182322Y-4882322D01*
X12182322Y-4917678D01*
X12217678Y-4917678D01*
X12217678Y-5117678D02*
X12217678Y-5082322D01*
X12182322Y-5082322D01*
X12182322Y-5117678D01*
X12217678Y-5117678D01*
X12217678Y-5317678D02*
X12217678Y-5282322D01*
X12182322Y-5282322D01*
X12182322Y-5317678D01*
X12217678Y-5317678D01*
X12217678Y-5517678D02*
X12217678Y-5482322D01*
X12182322Y-5482322D01*
X12182322Y-5517678D01*
X12217678Y-5517678D01*
X12369678Y-9934678D02*
X12369678Y-9899322D01*
X12334322Y-9899322D01*
X12334322Y-9934678D01*
X12369678Y-9934678D01*
X12417678Y-5117678D02*
X12417678Y-5082322D01*
X12382322Y-5082322D01*
X12382322Y-5117678D01*
X12417678Y-5117678D01*
X12417678Y-5317678D02*
X12417678Y-5282322D01*
X12382322Y-5282322D01*
X12382322Y-5317678D01*
X12417678Y-5317678D01*
X12417678Y-5517678D02*
X12417678Y-5482322D01*
X12382322Y-5482322D01*
X12382322Y-5517678D01*
X12417678Y-5517678D01*
X12479678Y-4599678D02*
X12479678Y-4564322D01*
X12444322Y-4564322D01*
X12444322Y-4599678D01*
X12479678Y-4599678D01*
X12488678Y-10049678D02*
X12488678Y-10014322D01*
X12453322Y-10014322D01*
X12453322Y-10049678D01*
X12488678Y-10049678D01*
X12489678Y-9839678D02*
X12489678Y-9804322D01*
X12454322Y-9804322D01*
X12454322Y-9839678D01*
X12489678Y-9839678D01*
X12517678Y-13417678D02*
X12517678Y-13382322D01*
X12482322Y-13382322D01*
X12482322Y-13417678D01*
X12517678Y-13417678D01*
X12617678Y-5317678D02*
X12617678Y-5282322D01*
X12582322Y-5282322D01*
X12582322Y-5317678D01*
X12617678Y-5317678D01*
X12617678Y-5517678D02*
X12617678Y-5482322D01*
X12582322Y-5482322D01*
X12582322Y-5517678D01*
X12617678Y-5517678D01*
X12665178Y-12857678D02*
X12665178Y-12822322D01*
X12629822Y-12822322D01*
X12629822Y-12857678D01*
X12665178Y-12857678D01*
X12717678Y-13217678D02*
X12717678Y-13182322D01*
X12682322Y-13182322D01*
X12682322Y-13217678D01*
X12717678Y-13217678D01*
X12717678Y-13417678D02*
X12717678Y-13382322D01*
X12682322Y-13382322D01*
X12682322Y-13417678D01*
X12717678Y-13417678D01*
X12917678Y-11817678D02*
X12917678Y-11782322D01*
X12882322Y-11782322D01*
X12882322Y-11817678D01*
X12917678Y-11817678D01*
X12917678Y-13217678D02*
X12917678Y-13182322D01*
X12882322Y-13182322D01*
X12882322Y-13217678D01*
X12917678Y-13217678D01*
X12917678Y-13417678D02*
X12917678Y-13382322D01*
X12882322Y-13382322D01*
X12882322Y-13417678D01*
X12917678Y-13417678D01*
X13117678Y-11417678D02*
X13117678Y-11382322D01*
X13082322Y-11382322D01*
X13082322Y-11417678D01*
X13117678Y-11417678D01*
X13117678Y-11617678D02*
X13117678Y-11582322D01*
X13082322Y-11582322D01*
X13082322Y-11617678D01*
X13117678Y-11617678D01*
X13117678Y-11817678D02*
X13117678Y-11782322D01*
X13082322Y-11782322D01*
X13082322Y-11817678D01*
X13117678Y-11817678D01*
X13117678Y-13217678D02*
X13117678Y-13182322D01*
X13082322Y-13182322D01*
X13082322Y-13217678D01*
X13117678Y-13217678D01*
X13117678Y-13417678D02*
X13117678Y-13382322D01*
X13082322Y-13382322D01*
X13082322Y-13417678D01*
X13117678Y-13417678D01*
X13217678Y-12017678D02*
X13217678Y-11982322D01*
X13182322Y-11982322D01*
X13182322Y-12017678D01*
X13217678Y-12017678D01*
X13217678Y-12217678D02*
X13217678Y-12182322D01*
X13182322Y-12182322D01*
X13182322Y-12217678D01*
X13217678Y-12217678D01*
X13317678Y-11617678D02*
X13317678Y-11582322D01*
X13282322Y-11582322D01*
X13282322Y-11617678D01*
X13317678Y-11617678D01*
X13317678Y-11817678D02*
X13317678Y-11782322D01*
X13282322Y-11782322D01*
X13282322Y-11817678D01*
X13317678Y-11817678D01*
X13317678Y-13217678D02*
X13317678Y-13182322D01*
X13282322Y-13182322D01*
X13282322Y-13217678D01*
X13317678Y-13217678D01*
X13317678Y-13417678D02*
X13317678Y-13382322D01*
X13282322Y-13382322D01*
X13282322Y-13417678D01*
X13317678Y-13417678D01*
X13420178Y-13675178D02*
X13420178Y-13639822D01*
X13384822Y-13639822D01*
X13384822Y-13675178D01*
X13420178Y-13675178D01*
X13517678Y-11817678D02*
X13517678Y-11782322D01*
X13482322Y-11782322D01*
X13482322Y-11817678D01*
X13517678Y-11817678D01*
X13517678Y-13217678D02*
X13517678Y-13182322D01*
X13482322Y-13182322D01*
X13482322Y-13217678D01*
X13517678Y-13217678D01*
X13917678Y-13417678D02*
X13917678Y-13382322D01*
X13882322Y-13382322D01*
X13882322Y-13417678D01*
X13917678Y-13417678D01*
X13917678Y-13617678D02*
X13917678Y-13582322D01*
X13882322Y-13582322D01*
X13882322Y-13617678D01*
X13917678Y-13617678D01*
X14023678Y-11758678D02*
X14023678Y-11723322D01*
X13988322Y-11723322D01*
X13988322Y-11758678D01*
X14023678Y-11758678D01*
X14117678Y-13417678D02*
X14117678Y-13382322D01*
X14082322Y-13382322D01*
X14082322Y-13417678D01*
X14117678Y-13417678D01*
X14117678Y-13617678D02*
X14117678Y-13582322D01*
X14082322Y-13582322D01*
X14082322Y-13617678D01*
X14117678Y-13617678D01*
X14147678Y-11497678D02*
X14147678Y-11462322D01*
X14112322Y-11462322D01*
X14112322Y-11497678D01*
X14147678Y-11497678D01*
X14293678Y-5494678D02*
X14293678Y-5459322D01*
X14258322Y-5459322D01*
X14258322Y-5494678D01*
X14293678Y-5494678D01*
X14317678Y-13217678D02*
X14317678Y-13182322D01*
X14282322Y-13182322D01*
X14282322Y-13217678D01*
X14317678Y-13217678D01*
X14317678Y-13417678D02*
X14317678Y-13382322D01*
X14282322Y-13382322D01*
X14282322Y-13417678D01*
X14317678Y-13417678D01*
X14317678Y-13617678D02*
X14317678Y-13582322D01*
X14282322Y-13582322D01*
X14282322Y-13617678D01*
X14317678Y-13617678D01*
X14336678Y-11756678D02*
X14336678Y-11721322D01*
X14301322Y-11721322D01*
X14301322Y-11756678D01*
X14336678Y-11756678D01*
X14500678Y-5493678D02*
X14500678Y-5458322D01*
X14465322Y-5458322D01*
X14465322Y-5493678D01*
X14500678Y-5493678D01*
X14517678Y-13217678D02*
X14517678Y-13182322D01*
X14482322Y-13182322D01*
X14482322Y-13217678D01*
X14517678Y-13217678D01*
X14517678Y-13417678D02*
X14517678Y-13382322D01*
X14482322Y-13382322D01*
X14482322Y-13417678D01*
X14517678Y-13417678D01*
X14517678Y-13617678D02*
X14517678Y-13582322D01*
X14482322Y-13582322D01*
X14482322Y-13617678D01*
X14517678Y-13617678D01*
X14617678Y-12717678D02*
X14617678Y-12682322D01*
X14582322Y-12682322D01*
X14582322Y-12717678D01*
X14617678Y-12717678D01*
X14717678Y-4017678D02*
X14717678Y-3982322D01*
X14682322Y-3982322D01*
X14682322Y-4017678D01*
X14717678Y-4017678D01*
X14717678Y-4217678D02*
X14717678Y-4182322D01*
X14682322Y-4182322D01*
X14682322Y-4217678D01*
X14717678Y-4217678D01*
X14717678Y-4417678D02*
X14717678Y-4382322D01*
X14682322Y-4382322D01*
X14682322Y-4417678D01*
X14717678Y-4417678D01*
X14717678Y-13217678D02*
X14717678Y-13182322D01*
X14682322Y-13182322D01*
X14682322Y-13217678D01*
X14717678Y-13217678D01*
X14717678Y-13417678D02*
X14717678Y-13382322D01*
X14682322Y-13382322D01*
X14682322Y-13417678D01*
X14717678Y-13417678D01*
X14717678Y-13617678D02*
X14717678Y-13582322D01*
X14682322Y-13582322D01*
X14682322Y-13617678D01*
X14717678Y-13617678D01*
X14917678Y-4417678D02*
X14917678Y-4382322D01*
X14882322Y-4382322D01*
X14882322Y-4417678D01*
X14917678Y-4417678D01*
X14917678Y-12717678D02*
X14917678Y-12682322D01*
X14882322Y-12682322D01*
X14882322Y-12717678D01*
X14917678Y-12717678D01*
X15117678Y-11497678D02*
X15117678Y-11462322D01*
X15082322Y-11462322D01*
X15082322Y-11497678D01*
X15117678Y-11497678D01*
X15489678Y-4671678D02*
X15489678Y-4636322D01*
X15454322Y-4636322D01*
X15454322Y-4671678D01*
X15489678Y-4671678D01*
X16171678Y-11388678D02*
X16171678Y-11353322D01*
X16136322Y-11353322D01*
X16136322Y-11388678D01*
X16171678Y-11388678D01*
X16317678Y-4617678D02*
X16317678Y-4582322D01*
X16282322Y-4582322D01*
X16282322Y-4617678D01*
X16317678Y-4617678D01*
X16317678Y-4917678D02*
X16317678Y-4882322D01*
X16282322Y-4882322D01*
X16282322Y-4917678D01*
X16317678Y-4917678D01*
X16317678Y-6017678D02*
X16317678Y-5982322D01*
X16282322Y-5982322D01*
X16282322Y-6017678D01*
X16317678Y-6017678D01*
X16317678Y-6217678D02*
X16317678Y-6182322D01*
X16282322Y-6182322D01*
X16282322Y-6217678D01*
X16317678Y-6217678D01*
X16317678Y-6417678D02*
X16317678Y-6382322D01*
X16282322Y-6382322D01*
X16282322Y-6417678D01*
X16317678Y-6417678D01*
X15036678Y-13531678D02*
X15036678Y-13496322D01*
X15001322Y-13496322D01*
X15001322Y-13531678D01*
X15036678Y-13531678D01*
X15004000Y-13481500D02*
X15004000Y-13546500D01*
X15034000Y-13481500D02*
X15034000Y-13546500D01*
X15004000Y-13546500D02*
G75*
G03X15034000Y-13546500I15000J0D01*
G01*
X15034000Y-13481500D02*
G75*
G03X15004000Y-13481500I-15000J0D01*
G01*
X15736678Y-13531678D02*
X15736678Y-13496322D01*
X15701322Y-13496322D01*
X15701322Y-13531678D01*
X15736678Y-13531678D01*
X15704000Y-13481500D02*
X15704000Y-13546500D01*
X15734000Y-13481500D02*
X15734000Y-13546500D01*
X15704000Y-13546500D02*
G75*
G03X15734000Y-13546500I15000J0D01*
G01*
X15734000Y-13481500D02*
G75*
G03X15704000Y-13481500I-15000J0D01*
G01*
X15119000Y-13271500D02*
X15146500Y-13244000D01*
X15119000Y-13216500D01*
X15091500Y-13244000D01*
X15119000Y-13271500D01*
X15104000Y-13261500D02*
X15134000Y-13261500D01*
X15104000Y-13226500D02*
X15134000Y-13226500D01*
X15134000Y-13261500D02*
G75*
G03X15134000Y-13226500I0J17500D01*
G01*
X15104000Y-13226500D02*
G75*
G03X15104000Y-13261500I0J-17500D01*
G01*
X15619000Y-13271500D02*
X15646500Y-13244000D01*
X15619000Y-13216500D01*
X15591500Y-13244000D01*
X15619000Y-13271500D01*
X15604000Y-13261500D02*
X15634000Y-13261500D01*
X15604000Y-13226500D02*
X15634000Y-13226500D01*
X15634000Y-13261500D02*
G75*
G03X15634000Y-13226500I0J17500D01*
G01*
X15604000Y-13226500D02*
G75*
G03X15604000Y-13261500I0J-17500D01*
G01*
X8440000Y-12024000D02*
X8530000Y-12114000D01*
X8530000Y-12024000D02*
X8440000Y-12114000D01*
X8530000Y-12069000D02*
G75*
G03X8530000Y-12069000I-45000J0D01*
G01*
X8441000Y-11524000D02*
X8531000Y-11614000D01*
X8531000Y-11524000D02*
X8441000Y-11614000D01*
X8531000Y-11569000D02*
G75*
G03X8531000Y-11569000I-45000J0D01*
G01*
X8441000Y-12274000D02*
X8531000Y-12364000D01*
X8531000Y-12274000D02*
X8441000Y-12364000D01*
X8531000Y-12319000D02*
G75*
G03X8531000Y-12319000I-45000J0D01*
G01*
X8442500Y-11774000D02*
X8532500Y-11864000D01*
X8532500Y-11774000D02*
X8442500Y-11864000D01*
X8532500Y-11819000D02*
G75*
G03X8532500Y-11819000I-45000J0D01*
G01*
X15993600Y-8866600D02*
X16093600Y-8966600D01*
X16093600Y-8866600D02*
X15993600Y-8966600D01*
X16043600Y-8866600D02*
X16043600Y-8966600D01*
X15993600Y-8916600D02*
X16093600Y-8916600D01*
X15993600Y-9120600D02*
X16093600Y-9220600D01*
X16093600Y-9120600D02*
X15993600Y-9220600D01*
X16043600Y-9120600D02*
X16043600Y-9220600D01*
X15993600Y-9170600D02*
X16093600Y-9170600D01*
X15993600Y-9374600D02*
X16093600Y-9474600D01*
X16093600Y-9374600D02*
X15993600Y-9474600D01*
X16043600Y-9374600D02*
X16043600Y-9474600D01*
X15993600Y-9424600D02*
X16093600Y-9424600D01*
X15993600Y-9628600D02*
X16093600Y-9728600D01*
X16093600Y-9628600D02*
X15993600Y-9728600D01*
X16043600Y-9628600D02*
X16043600Y-9728600D01*
X15993600Y-9678600D02*
X16093600Y-9678600D01*
X15993600Y-9882600D02*
X16093600Y-9982600D01*
X16093600Y-9882600D02*
X15993600Y-9982600D01*
X16043600Y-9882600D02*
X16043600Y-9982600D01*
X15993600Y-9932600D02*
X16093600Y-9932600D01*
X15993600Y-10136600D02*
X16093600Y-10236600D01*
X16093600Y-10136600D02*
X15993600Y-10236600D01*
X16043600Y-10136600D02*
X16043600Y-10236600D01*
X15993600Y-10186600D02*
X16093600Y-10186600D01*
X15993600Y-10390600D02*
X16093600Y-10490600D01*
X16093600Y-10390600D02*
X15993600Y-10490600D01*
X16043600Y-10390600D02*
X16043600Y-10490600D01*
X15993600Y-10440600D02*
X16093600Y-10440600D01*
X15993600Y-10644600D02*
X16093600Y-10744600D01*
X16093600Y-10644600D02*
X15993600Y-10744600D01*
X16043600Y-10644600D02*
X16043600Y-10744600D01*
X15993600Y-10694600D02*
X16093600Y-10694600D01*
X15993600Y-10898600D02*
X16093600Y-10998600D01*
X16093600Y-10898600D02*
X15993600Y-10998600D01*
X16043600Y-10898600D02*
X16043600Y-10998600D01*
X15993600Y-10948600D02*
X16093600Y-10948600D01*
X16247600Y-8866600D02*
X16347600Y-8966600D01*
X16347600Y-8866600D02*
X16247600Y-8966600D01*
X16297600Y-8866600D02*
X16297600Y-8966600D01*
X16247600Y-8916600D02*
X16347600Y-8916600D01*
X16247600Y-9120600D02*
X16347600Y-9220600D01*
X16347600Y-9120600D02*
X16247600Y-9220600D01*
X16297600Y-9120600D02*
X16297600Y-9220600D01*
X16247600Y-9170600D02*
X16347600Y-9170600D01*
X16247600Y-9374600D02*
X16347600Y-9474600D01*
X16347600Y-9374600D02*
X16247600Y-9474600D01*
X16297600Y-9374600D02*
X16297600Y-9474600D01*
X16247600Y-9424600D02*
X16347600Y-9424600D01*
X16247600Y-9628600D02*
X16347600Y-9728600D01*
X16347600Y-9628600D02*
X16247600Y-9728600D01*
X16297600Y-9628600D02*
X16297600Y-9728600D01*
X16247600Y-9678600D02*
X16347600Y-9678600D01*
X16247600Y-9882600D02*
X16347600Y-9982600D01*
X16347600Y-9882600D02*
X16247600Y-9982600D01*
X16297600Y-9882600D02*
X16297600Y-9982600D01*
X16247600Y-9932600D02*
X16347600Y-9932600D01*
X16247600Y-10136600D02*
X16347600Y-10236600D01*
X16347600Y-10136600D02*
X16247600Y-10236600D01*
X16297600Y-10136600D02*
X16297600Y-10236600D01*
X16247600Y-10186600D02*
X16347600Y-10186600D01*
X16247600Y-10390600D02*
X16347600Y-10490600D01*
X16347600Y-10390600D02*
X16247600Y-10490600D01*
X16297600Y-10390600D02*
X16297600Y-10490600D01*
X16247600Y-10440600D02*
X16347600Y-10440600D01*
X16247600Y-10644600D02*
X16347600Y-10744600D01*
X16347600Y-10644600D02*
X16247600Y-10744600D01*
X16297600Y-10644600D02*
X16297600Y-10744600D01*
X16247600Y-10694600D02*
X16347600Y-10694600D01*
X16247600Y-10898600D02*
X16347600Y-10998600D01*
X16347600Y-10898600D02*
X16247600Y-10998600D01*
X16297600Y-10898600D02*
X16297600Y-10998600D01*
X16247600Y-10948600D02*
X16347600Y-10948600D01*
X14486000Y-5010000D02*
X14586000Y-5110000D01*
X14586000Y-5010000D02*
X14486000Y-5110000D01*
X14536000Y-5010000D02*
X14536000Y-5110000D01*
X14486000Y-5060000D02*
X14586000Y-5060000D01*
X14740000Y-5010000D02*
X14840000Y-5110000D01*
X14840000Y-5010000D02*
X14740000Y-5110000D01*
X14790000Y-5010000D02*
X14790000Y-5110000D01*
X14740000Y-5060000D02*
X14840000Y-5060000D01*
X14994000Y-5010000D02*
X15094000Y-5110000D01*
X15094000Y-5010000D02*
X14994000Y-5110000D01*
X15044000Y-5010000D02*
X15044000Y-5110000D01*
X14994000Y-5060000D02*
X15094000Y-5060000D01*
X12100000Y-3998000D02*
X12200000Y-4098000D01*
X12200000Y-3998000D02*
X12100000Y-4098000D01*
X12150000Y-3998000D02*
X12150000Y-4098000D01*
X12100000Y-4048000D02*
X12200000Y-4048000D01*
X12100000Y-4252000D02*
X12200000Y-4352000D01*
X12200000Y-4252000D02*
X12100000Y-4352000D01*
X12150000Y-4252000D02*
X12150000Y-4352000D01*
X12100000Y-4302000D02*
X12200000Y-4302000D01*
X12354000Y-3998000D02*
X12454000Y-4098000D01*
X12454000Y-3998000D02*
X12354000Y-4098000D01*
X12404000Y-3998000D02*
X12404000Y-4098000D01*
X12354000Y-4048000D02*
X12454000Y-4048000D01*
X12354000Y-4252000D02*
X12454000Y-4352000D01*
X12454000Y-4252000D02*
X12354000Y-4352000D01*
X12404000Y-4252000D02*
X12404000Y-4352000D01*
X12354000Y-4302000D02*
X12454000Y-4302000D01*
X12608000Y-3998000D02*
X12708000Y-4098000D01*
X12708000Y-3998000D02*
X12608000Y-4098000D01*
X12658000Y-3998000D02*
X12658000Y-4098000D01*
X12608000Y-4048000D02*
X12708000Y-4048000D01*
X12608000Y-4252000D02*
X12708000Y-4352000D01*
X12708000Y-4252000D02*
X12608000Y-4352000D01*
X12658000Y-4252000D02*
X12658000Y-4352000D01*
X12608000Y-4302000D02*
X12708000Y-4302000D01*
X12862000Y-3998000D02*
X12962000Y-4098000D01*
X12962000Y-3998000D02*
X12862000Y-4098000D01*
X12912000Y-3998000D02*
X12912000Y-4098000D01*
X12862000Y-4048000D02*
X12962000Y-4048000D01*
X12862000Y-4252000D02*
X12962000Y-4352000D01*
X12962000Y-4252000D02*
X12862000Y-4352000D01*
X12912000Y-4252000D02*
X12912000Y-4352000D01*
X12862000Y-4302000D02*
X12962000Y-4302000D01*
X13116000Y-3998000D02*
X13216000Y-4098000D01*
X13216000Y-3998000D02*
X13116000Y-4098000D01*
X13166000Y-3998000D02*
X13166000Y-4098000D01*
X13116000Y-4048000D02*
X13216000Y-4048000D01*
X13116000Y-4252000D02*
X13216000Y-4352000D01*
X13216000Y-4252000D02*
X13116000Y-4352000D01*
X13166000Y-4252000D02*
X13166000Y-4352000D01*
X13116000Y-4302000D02*
X13216000Y-4302000D01*
X13370000Y-3998000D02*
X13470000Y-4098000D01*
X13470000Y-3998000D02*
X13370000Y-4098000D01*
X13420000Y-3998000D02*
X13420000Y-4098000D01*
X13370000Y-4048000D02*
X13470000Y-4048000D01*
X13370000Y-4252000D02*
X13470000Y-4352000D01*
X13470000Y-4252000D02*
X13370000Y-4352000D01*
X13420000Y-4252000D02*
X13420000Y-4352000D01*
X13370000Y-4302000D02*
X13470000Y-4302000D01*
X13624000Y-3998000D02*
X13724000Y-4098000D01*
X13724000Y-3998000D02*
X13624000Y-4098000D01*
X13674000Y-3998000D02*
X13674000Y-4098000D01*
X13624000Y-4048000D02*
X13724000Y-4048000D01*
X13624000Y-4252000D02*
X13724000Y-4352000D01*
X13724000Y-4252000D02*
X13624000Y-4352000D01*
X13674000Y-4252000D02*
X13674000Y-4352000D01*
X13624000Y-4302000D02*
X13724000Y-4302000D01*
X13878000Y-3998000D02*
X13978000Y-4098000D01*
X13978000Y-3998000D02*
X13878000Y-4098000D01*
X13928000Y-3998000D02*
X13928000Y-4098000D01*
X13878000Y-4048000D02*
X13978000Y-4048000D01*
X13878000Y-4252000D02*
X13978000Y-4352000D01*
X13978000Y-4252000D02*
X13878000Y-4352000D01*
X13928000Y-4252000D02*
X13928000Y-4352000D01*
X13878000Y-4302000D02*
X13978000Y-4302000D01*
X14132000Y-3998000D02*
X14232000Y-4098000D01*
X14232000Y-3998000D02*
X14132000Y-4098000D01*
X14182000Y-3998000D02*
X14182000Y-4098000D01*
X14132000Y-4048000D02*
X14232000Y-4048000D01*
X14132000Y-4252000D02*
X14232000Y-4352000D01*
X14232000Y-4252000D02*
X14132000Y-4352000D01*
X14182000Y-4252000D02*
X14182000Y-4352000D01*
X14132000Y-4302000D02*
X14232000Y-4302000D01*
X14386000Y-3998000D02*
X14486000Y-4098000D01*
X14486000Y-3998000D02*
X14386000Y-4098000D01*
X14436000Y-3998000D02*
X14436000Y-4098000D01*
X14386000Y-4048000D02*
X14486000Y-4048000D01*
X14386000Y-4252000D02*
X14486000Y-4352000D01*
X14486000Y-4252000D02*
X14386000Y-4352000D01*
X14436000Y-4252000D02*
X14436000Y-4352000D01*
X14386000Y-4302000D02*
X14486000Y-4302000D01*
X16000000Y-6662000D02*
X16100000Y-6762000D01*
X16100000Y-6662000D02*
X16000000Y-6762000D01*
X16050000Y-6662000D02*
X16050000Y-6762000D01*
X16000000Y-6712000D02*
X16100000Y-6712000D01*
X16000000Y-6916000D02*
X16100000Y-7016000D01*
X16100000Y-6916000D02*
X16000000Y-7016000D01*
X16050000Y-6916000D02*
X16050000Y-7016000D01*
X16000000Y-6966000D02*
X16100000Y-6966000D01*
X16000000Y-7170000D02*
X16100000Y-7270000D01*
X16100000Y-7170000D02*
X16000000Y-7270000D01*
X16050000Y-7170000D02*
X16050000Y-7270000D01*
X16000000Y-7220000D02*
X16100000Y-7220000D01*
X16000000Y-7424000D02*
X16100000Y-7524000D01*
X16100000Y-7424000D02*
X16000000Y-7524000D01*
X16050000Y-7424000D02*
X16050000Y-7524000D01*
X16000000Y-7474000D02*
X16100000Y-7474000D01*
X16000000Y-7678000D02*
X16100000Y-7778000D01*
X16100000Y-7678000D02*
X16000000Y-7778000D01*
X16050000Y-7678000D02*
X16050000Y-7778000D01*
X16000000Y-7728000D02*
X16100000Y-7728000D01*
X16000000Y-7932000D02*
X16100000Y-8032000D01*
X16100000Y-7932000D02*
X16000000Y-8032000D01*
X16050000Y-7932000D02*
X16050000Y-8032000D01*
X16000000Y-7982000D02*
X16100000Y-7982000D01*
X16000000Y-8186000D02*
X16100000Y-8286000D01*
X16100000Y-8186000D02*
X16000000Y-8286000D01*
X16050000Y-8186000D02*
X16050000Y-8286000D01*
X16000000Y-8236000D02*
X16100000Y-8236000D01*
X16000000Y-8440000D02*
X16100000Y-8540000D01*
X16100000Y-8440000D02*
X16000000Y-8540000D01*
X16050000Y-8440000D02*
X16050000Y-8540000D01*
X16000000Y-8490000D02*
X16100000Y-8490000D01*
X16254000Y-6662000D02*
X16354000Y-6762000D01*
X16354000Y-6662000D02*
X16254000Y-6762000D01*
X16304000Y-6662000D02*
X16304000Y-6762000D01*
X16254000Y-6712000D02*
X16354000Y-6712000D01*
X16254000Y-6916000D02*
X16354000Y-7016000D01*
X16354000Y-6916000D02*
X16254000Y-7016000D01*
X16304000Y-6916000D02*
X16304000Y-7016000D01*
X16254000Y-6966000D02*
X16354000Y-6966000D01*
X16254000Y-7170000D02*
X16354000Y-7270000D01*
X16354000Y-7170000D02*
X16254000Y-7270000D01*
X16304000Y-7170000D02*
X16304000Y-7270000D01*
X16254000Y-7220000D02*
X16354000Y-7220000D01*
X16254000Y-7424000D02*
X16354000Y-7524000D01*
X16354000Y-7424000D02*
X16254000Y-7524000D01*
X16304000Y-7424000D02*
X16304000Y-7524000D01*
X16254000Y-7474000D02*
X16354000Y-7474000D01*
X16254000Y-7678000D02*
X16354000Y-7778000D01*
X16354000Y-7678000D02*
X16254000Y-7778000D01*
X16304000Y-7678000D02*
X16304000Y-7778000D01*
X16254000Y-7728000D02*
X16354000Y-7728000D01*
X16254000Y-7932000D02*
X16354000Y-8032000D01*
X16354000Y-7932000D02*
X16254000Y-8032000D01*
X16304000Y-7932000D02*
X16304000Y-8032000D01*
X16254000Y-7982000D02*
X16354000Y-7982000D01*
X16254000Y-8186000D02*
X16354000Y-8286000D01*
X16354000Y-8186000D02*
X16254000Y-8286000D01*
X16304000Y-8186000D02*
X16304000Y-8286000D01*
X16254000Y-8236000D02*
X16354000Y-8236000D01*
X16254000Y-8440000D02*
X16354000Y-8540000D01*
X16354000Y-8440000D02*
X16254000Y-8540000D01*
X16304000Y-8440000D02*
X16304000Y-8540000D01*
X16254000Y-8490000D02*
X16354000Y-8490000D01*
X6945000Y-9364000D02*
X7045000Y-9464000D01*
X7045000Y-9364000D02*
X6945000Y-9464000D01*
X6995000Y-9364000D02*
X6995000Y-9464000D01*
X6945000Y-9414000D02*
X7045000Y-9414000D01*
X6945000Y-9618000D02*
X7045000Y-9718000D01*
X7045000Y-9618000D02*
X6945000Y-9718000D01*
X6995000Y-9618000D02*
X6995000Y-9718000D01*
X6945000Y-9668000D02*
X7045000Y-9668000D01*
X6945000Y-9872000D02*
X7045000Y-9972000D01*
X7045000Y-9872000D02*
X6945000Y-9972000D01*
X6995000Y-9872000D02*
X6995000Y-9972000D01*
X6945000Y-9922000D02*
X7045000Y-9922000D01*
X6945000Y-10126000D02*
X7045000Y-10226000D01*
X7045000Y-10126000D02*
X6945000Y-10226000D01*
X6995000Y-10126000D02*
X6995000Y-10226000D01*
X6945000Y-10176000D02*
X7045000Y-10176000D01*
X6945000Y-10380000D02*
X7045000Y-10480000D01*
X7045000Y-10380000D02*
X6945000Y-10480000D01*
X6995000Y-10380000D02*
X6995000Y-10480000D01*
X6945000Y-10430000D02*
X7045000Y-10430000D01*
X6945000Y-10634000D02*
X7045000Y-10734000D01*
X7045000Y-10634000D02*
X6945000Y-10734000D01*
X6995000Y-10634000D02*
X6995000Y-10734000D01*
X6945000Y-10684000D02*
X7045000Y-10684000D01*
X7199000Y-9364000D02*
X7299000Y-9464000D01*
X7299000Y-9364000D02*
X7199000Y-9464000D01*
X7249000Y-9364000D02*
X7249000Y-9464000D01*
X7199000Y-9414000D02*
X7299000Y-9414000D01*
X7199000Y-9618000D02*
X7299000Y-9718000D01*
X7299000Y-9618000D02*
X7199000Y-9718000D01*
X7249000Y-9618000D02*
X7249000Y-9718000D01*
X7199000Y-9668000D02*
X7299000Y-9668000D01*
X7199000Y-9872000D02*
X7299000Y-9972000D01*
X7299000Y-9872000D02*
X7199000Y-9972000D01*
X7249000Y-9872000D02*
X7249000Y-9972000D01*
X7199000Y-9922000D02*
X7299000Y-9922000D01*
X7199000Y-10126000D02*
X7299000Y-10226000D01*
X7299000Y-10126000D02*
X7199000Y-10226000D01*
X7249000Y-10126000D02*
X7249000Y-10226000D01*
X7199000Y-10176000D02*
X7299000Y-10176000D01*
X7199000Y-10380000D02*
X7299000Y-10480000D01*
X7299000Y-10380000D02*
X7199000Y-10480000D01*
X7249000Y-10380000D02*
X7249000Y-10480000D01*
X7199000Y-10430000D02*
X7299000Y-10430000D01*
X7199000Y-10634000D02*
X7299000Y-10734000D01*
X7299000Y-10634000D02*
X7199000Y-10734000D01*
X7249000Y-10634000D02*
X7249000Y-10734000D01*
X7199000Y-10684000D02*
X7299000Y-10684000D01*
X9255250Y-9921250D02*
X9356750Y-10022750D01*
X9356750Y-9921250D02*
X9255250Y-10022750D01*
X9341886Y-10007886D02*
X9341886Y-9936114D01*
X9270114Y-9936114D01*
X9270114Y-10007886D01*
X9341886Y-10007886D01*
X9255250Y-10121250D02*
X9356750Y-10222750D01*
X9356750Y-10121250D02*
X9255250Y-10222750D01*
X9341886Y-10207886D02*
X9341886Y-10136114D01*
X9270114Y-10136114D01*
X9270114Y-10207886D01*
X9341886Y-10207886D01*
X9255250Y-10321250D02*
X9356750Y-10422750D01*
X9356750Y-10321250D02*
X9255250Y-10422750D01*
X9341886Y-10407886D02*
X9341886Y-10336114D01*
X9270114Y-10336114D01*
X9270114Y-10407886D01*
X9341886Y-10407886D01*
X9255250Y-10521250D02*
X9356750Y-10622750D01*
X9356750Y-10521250D02*
X9255250Y-10622750D01*
X9341886Y-10607886D02*
X9341886Y-10536114D01*
X9270114Y-10536114D01*
X9270114Y-10607886D01*
X9341886Y-10607886D01*
X9255250Y-10721250D02*
X9356750Y-10822750D01*
X9356750Y-10721250D02*
X9255250Y-10822750D01*
X9341886Y-10807886D02*
X9341886Y-10736114D01*
X9270114Y-10736114D01*
X9270114Y-10807886D01*
X9341886Y-10807886D01*
X9255250Y-10921250D02*
X9356750Y-11022750D01*
X9356750Y-10921250D02*
X9255250Y-11022750D01*
X9341886Y-11007886D02*
X9341886Y-10936114D01*
X9270114Y-10936114D01*
X9270114Y-11007886D01*
X9341886Y-11007886D01*
X9255250Y-11121250D02*
X9356750Y-11222750D01*
X9356750Y-11121250D02*
X9255250Y-11222750D01*
X9341886Y-11207886D02*
X9341886Y-11136114D01*
X9270114Y-11136114D01*
X9270114Y-11207886D01*
X9341886Y-11207886D01*
X9255250Y-11321250D02*
X9356750Y-11422750D01*
X9356750Y-11321250D02*
X9255250Y-11422750D01*
X9341886Y-11407886D02*
X9341886Y-11336114D01*
X9270114Y-11336114D01*
X9270114Y-11407886D01*
X9341886Y-11407886D01*
X9255250Y-11521250D02*
X9356750Y-11622750D01*
X9356750Y-11521250D02*
X9255250Y-11622750D01*
X9341886Y-11607886D02*
X9341886Y-11536114D01*
X9270114Y-11536114D01*
X9270114Y-11607886D01*
X9341886Y-11607886D01*
X9255250Y-11721250D02*
X9356750Y-11822750D01*
X9356750Y-11721250D02*
X9255250Y-11822750D01*
X9341886Y-11807886D02*
X9341886Y-11736114D01*
X9270114Y-11736114D01*
X9270114Y-11807886D01*
X9341886Y-11807886D01*
X9255250Y-11921250D02*
X9356750Y-12022750D01*
X9356750Y-11921250D02*
X9255250Y-12022750D01*
X9341886Y-12007886D02*
X9341886Y-11936114D01*
X9270114Y-11936114D01*
X9270114Y-12007886D01*
X9341886Y-12007886D01*
X9255250Y-12121250D02*
X9356750Y-12222750D01*
X9356750Y-12121250D02*
X9255250Y-12222750D01*
X9341886Y-12207886D02*
X9341886Y-12136114D01*
X9270114Y-12136114D01*
X9270114Y-12207886D01*
X9341886Y-12207886D01*
X9255250Y-12321250D02*
X9356750Y-12422750D01*
X9356750Y-12321250D02*
X9255250Y-12422750D01*
X9341886Y-12407886D02*
X9341886Y-12336114D01*
X9270114Y-12336114D01*
X9270114Y-12407886D01*
X9341886Y-12407886D01*
X9255250Y-12521250D02*
X9356750Y-12622750D01*
X9356750Y-12521250D02*
X9255250Y-12622750D01*
X9341886Y-12607886D02*
X9341886Y-12536114D01*
X9270114Y-12536114D01*
X9270114Y-12607886D01*
X9341886Y-12607886D01*
X9255250Y-12721250D02*
X9356750Y-12822750D01*
X9356750Y-12721250D02*
X9255250Y-12822750D01*
X9341886Y-12807886D02*
X9341886Y-12736114D01*
X9270114Y-12736114D01*
X9270114Y-12807886D01*
X9341886Y-12807886D01*
X9255250Y-12921250D02*
X9356750Y-13022750D01*
X9356750Y-12921250D02*
X9255250Y-13022750D01*
X9341886Y-13007886D02*
X9341886Y-12936114D01*
X9270114Y-12936114D01*
X9270114Y-13007886D01*
X9341886Y-13007886D01*
X11695250Y-9921250D02*
X11796750Y-10022750D01*
X11796750Y-9921250D02*
X11695250Y-10022750D01*
X11781886Y-10007886D02*
X11781886Y-9936114D01*
X11710114Y-9936114D01*
X11710114Y-10007886D01*
X11781886Y-10007886D01*
X11695250Y-10121250D02*
X11796750Y-10222750D01*
X11796750Y-10121250D02*
X11695250Y-10222750D01*
X11781886Y-10207886D02*
X11781886Y-10136114D01*
X11710114Y-10136114D01*
X11710114Y-10207886D01*
X11781886Y-10207886D01*
X11695250Y-10321250D02*
X11796750Y-10422750D01*
X11796750Y-10321250D02*
X11695250Y-10422750D01*
X11781886Y-10407886D02*
X11781886Y-10336114D01*
X11710114Y-10336114D01*
X11710114Y-10407886D01*
X11781886Y-10407886D01*
X11695250Y-10521250D02*
X11796750Y-10622750D01*
X11796750Y-10521250D02*
X11695250Y-10622750D01*
X11781886Y-10607886D02*
X11781886Y-10536114D01*
X11710114Y-10536114D01*
X11710114Y-10607886D01*
X11781886Y-10607886D01*
X11695250Y-10721250D02*
X11796750Y-10822750D01*
X11796750Y-10721250D02*
X11695250Y-10822750D01*
X11781886Y-10807886D02*
X11781886Y-10736114D01*
X11710114Y-10736114D01*
X11710114Y-10807886D01*
X11781886Y-10807886D01*
X11695250Y-10921250D02*
X11796750Y-11022750D01*
X11796750Y-10921250D02*
X11695250Y-11022750D01*
X11781886Y-11007886D02*
X11781886Y-10936114D01*
X11710114Y-10936114D01*
X11710114Y-11007886D01*
X11781886Y-11007886D01*
X11695250Y-11121250D02*
X11796750Y-11222750D01*
X11796750Y-11121250D02*
X11695250Y-11222750D01*
X11781886Y-11207886D02*
X11781886Y-11136114D01*
X11710114Y-11136114D01*
X11710114Y-11207886D01*
X11781886Y-11207886D01*
X11695250Y-11321250D02*
X11796750Y-11422750D01*
X11796750Y-11321250D02*
X11695250Y-11422750D01*
X11781886Y-11407886D02*
X11781886Y-11336114D01*
X11710114Y-11336114D01*
X11710114Y-11407886D01*
X11781886Y-11407886D01*
X11695250Y-11521250D02*
X11796750Y-11622750D01*
X11796750Y-11521250D02*
X11695250Y-11622750D01*
X11781886Y-11607886D02*
X11781886Y-11536114D01*
X11710114Y-11536114D01*
X11710114Y-11607886D01*
X11781886Y-11607886D01*
X11695250Y-11721250D02*
X11796750Y-11822750D01*
X11796750Y-11721250D02*
X11695250Y-11822750D01*
X11781886Y-11807886D02*
X11781886Y-11736114D01*
X11710114Y-11736114D01*
X11710114Y-11807886D01*
X11781886Y-11807886D01*
X11695250Y-11921250D02*
X11796750Y-12022750D01*
X11796750Y-11921250D02*
X11695250Y-12022750D01*
X11781886Y-12007886D02*
X11781886Y-11936114D01*
X11710114Y-11936114D01*
X11710114Y-12007886D01*
X11781886Y-12007886D01*
X11695250Y-12121250D02*
X11796750Y-12222750D01*
X11796750Y-12121250D02*
X11695250Y-12222750D01*
X11781886Y-12207886D02*
X11781886Y-12136114D01*
X11710114Y-12136114D01*
X11710114Y-12207886D01*
X11781886Y-12207886D01*
X11695250Y-12321250D02*
X11796750Y-12422750D01*
X11796750Y-12321250D02*
X11695250Y-12422750D01*
X11781886Y-12407886D02*
X11781886Y-12336114D01*
X11710114Y-12336114D01*
X11710114Y-12407886D01*
X11781886Y-12407886D01*
X11695250Y-12521250D02*
X11796750Y-12622750D01*
X11796750Y-12521250D02*
X11695250Y-12622750D01*
X11781886Y-12607886D02*
X11781886Y-12536114D01*
X11710114Y-12536114D01*
X11710114Y-12607886D01*
X11781886Y-12607886D01*
X11695250Y-12721250D02*
X11796750Y-12822750D01*
X11796750Y-12721250D02*
X11695250Y-12822750D01*
X11781886Y-12807886D02*
X11781886Y-12736114D01*
X11710114Y-12736114D01*
X11710114Y-12807886D01*
X11781886Y-12807886D01*
X11695250Y-12921250D02*
X11796750Y-13022750D01*
X11796750Y-12921250D02*
X11695250Y-13022750D01*
X11781886Y-13007886D02*
X11781886Y-12936114D01*
X11710114Y-12936114D01*
X11710114Y-13007886D01*
X11781886Y-13007886D01*
X8100000Y-11172000D02*
X8330000Y-11402000D01*
X8330000Y-11172000D02*
X8100000Y-11402000D01*
X8215000Y-11402000D02*
X8330000Y-11287000D01*
X8215000Y-11172000D01*
X8100000Y-11287000D01*
X8215000Y-11402000D01*
X8100000Y-12486000D02*
X8330000Y-12716000D01*
X8330000Y-12486000D02*
X8100000Y-12716000D01*
X8215000Y-12716000D02*
X8330000Y-12601000D01*
X8215000Y-12486000D01*
X8100000Y-12601000D01*
X8215000Y-12716000D01*
X6892000Y-4050000D02*
X6892000Y-4320000D01*
X6757000Y-4185000D02*
X7027000Y-4185000D01*
X7027000Y-4185000D02*
G75*
G03X7027000Y-4185000I-135000J0D01*
G01*
X16163000Y-4050000D02*
X16163000Y-4320000D01*
X16028000Y-4185000D02*
X16298000Y-4185000D01*
X16298000Y-4185000D02*
G75*
G03X16298000Y-4185000I-135000J0D01*
G01*
X16163000Y-13194000D02*
X16163000Y-13464000D01*
X16028000Y-13329000D02*
X16298000Y-13329000D01*
X16298000Y-13329000D02*
G75*
G03X16298000Y-13329000I-135000J0D01*
G01*
X7295000Y-13289000D02*
X7295000Y-13559000D01*
X7160000Y-13424000D02*
X7430000Y-13424000D01*
X7430000Y-13424000D02*
G75*
G03X7430000Y-13424000I-135000J0D01*
G01*
X8139017Y-13513017D02*
X8139017Y-13459983D01*
X8085983Y-13459983D01*
X8085983Y-13513017D01*
X8139017Y-13513017D01*
X8150000Y-13486500D02*
G75*
G03X8150000Y-13486500I-37500J0D01*
G01*
X8139017Y-13788017D02*
X8139017Y-13734983D01*
X8085983Y-13734983D01*
X8085983Y-13788017D01*
X8139017Y-13788017D01*
X8150000Y-13761500D02*
G75*
G03X8150000Y-13761500I-37500J0D01*
G01*
X15318017Y-3873817D02*
X15318017Y-3820783D01*
X15264983Y-3820783D01*
X15264983Y-3873817D01*
X15318017Y-3873817D01*
X15329000Y-3847300D02*
G75*
G03X15329000Y-3847300I-37500J0D01*
G01*
X15318017Y-4148817D02*
X15318017Y-4095783D01*
X15264983Y-4095783D01*
X15264983Y-4148817D01*
X15318017Y-4148817D01*
X15329000Y-4122300D02*
G75*
G03X15329000Y-4122300I-37500J0D01*
G01*
X6607017Y-8594017D02*
X6607017Y-8540983D01*
X6553983Y-8540983D01*
X6553983Y-8594017D01*
X6607017Y-8594017D01*
X6618000Y-8567500D02*
G75*
G03X6618000Y-8567500I-37500J0D01*
G01*
X6882017Y-8594017D02*
X6882017Y-8540983D01*
X6828983Y-8540983D01*
X6828983Y-8594017D01*
X6882017Y-8594017D01*
X6893000Y-8567500D02*
G75*
G03X6893000Y-8567500I-37500J0D01*
G01*
X9526000Y-9854500D02*
X9638500Y-9742000D01*
X9526000Y-9629500D01*
X9413500Y-9742000D01*
X9526000Y-9854500D01*
X9638500Y-9742000D02*
G75*
G03X9638500Y-9742000I-112500J0D01*
G01*
X11526000Y-9844500D02*
X11638500Y-9732000D01*
X11526000Y-9619500D01*
X11413500Y-9732000D01*
X11526000Y-9844500D01*
X11638500Y-9732000D02*
G75*
G03X11638500Y-9732000I-112500J0D01*
G01*
D12*
X6827928Y-14272214D02*
X6827928Y-13972214D01*
X6899357Y-13972214D01*
X6942214Y-13986500D01*
X6970786Y-14015071D01*
X6985071Y-14043643D01*
X6999357Y-14100786D01*
X6999357Y-14143643D01*
X6985071Y-14200786D01*
X6970786Y-14229357D01*
X6942214Y-14257929D01*
X6899357Y-14272214D01*
X6827928Y-14272214D01*
X7127928Y-14272214D02*
X7127928Y-14072214D01*
X7127928Y-14129357D02*
X7142214Y-14100786D01*
X7156500Y-14086500D01*
X7185071Y-14072214D01*
X7213643Y-14072214D01*
X7313643Y-14272214D02*
X7313643Y-14072214D01*
X7313643Y-13972214D02*
X7299357Y-13986500D01*
X7313643Y-14000786D01*
X7327928Y-13986500D01*
X7313643Y-13972214D01*
X7313643Y-14000786D01*
X7499357Y-14272214D02*
X7470786Y-14257929D01*
X7456500Y-14229357D01*
X7456500Y-13972214D01*
X7656500Y-14272214D02*
X7627928Y-14257929D01*
X7613643Y-14229357D01*
X7613643Y-13972214D01*
X7999357Y-14272214D02*
X7999357Y-13972214D01*
X8099357Y-14186500D01*
X8199357Y-13972214D01*
X8199357Y-14272214D01*
X8470786Y-14272214D02*
X8470786Y-14115071D01*
X8456500Y-14086500D01*
X8427928Y-14072214D01*
X8370786Y-14072214D01*
X8342214Y-14086500D01*
X8470786Y-14257929D02*
X8442214Y-14272214D01*
X8370786Y-14272214D01*
X8342214Y-14257929D01*
X8327928Y-14229357D01*
X8327928Y-14200786D01*
X8342214Y-14172214D01*
X8370786Y-14157929D01*
X8442214Y-14157929D01*
X8470786Y-14143643D01*
X8613643Y-14072214D02*
X8613643Y-14372214D01*
X8613643Y-14086500D02*
X8642214Y-14072214D01*
X8699357Y-14072214D01*
X8727928Y-14086500D01*
X8742214Y-14100786D01*
X8756500Y-14129357D01*
X8756500Y-14215071D01*
X8742214Y-14243643D01*
X8727928Y-14257929D01*
X8699357Y-14272214D01*
X8642214Y-14272214D01*
X8613643Y-14257929D01*
X8885071Y-14243643D02*
X8899357Y-14257929D01*
X8885071Y-14272214D01*
X8870786Y-14257929D01*
X8885071Y-14243643D01*
X8885071Y-14272214D01*
X8885071Y-14086500D02*
X8899357Y-14100786D01*
X8885071Y-14115071D01*
X8870786Y-14100786D01*
X8885071Y-14086500D01*
X8885071Y-14115071D01*
X6511500Y-14751500D02*
X6541500Y-14781500D01*
X6541500Y-14751500D02*
X6511500Y-14781500D01*
X6885071Y-14602214D02*
X6913643Y-14602214D01*
X6942214Y-14616500D01*
X6956500Y-14630786D01*
X6970786Y-14659357D01*
X6985071Y-14716500D01*
X6985071Y-14787929D01*
X6970786Y-14845071D01*
X6956500Y-14873643D01*
X6942214Y-14887929D01*
X6913643Y-14902214D01*
X6885071Y-14902214D01*
X6856500Y-14887929D01*
X6842214Y-14873643D01*
X6827928Y-14845071D01*
X6813643Y-14787929D01*
X6813643Y-14716500D01*
X6827928Y-14659357D01*
X6842214Y-14630786D01*
X6856500Y-14616500D01*
X6885071Y-14602214D01*
X7113643Y-14873643D02*
X7127928Y-14887929D01*
X7113643Y-14902214D01*
X7099357Y-14887929D01*
X7113643Y-14873643D01*
X7113643Y-14902214D01*
X7227928Y-14602214D02*
X7413643Y-14602214D01*
X7313643Y-14716500D01*
X7356500Y-14716500D01*
X7385071Y-14730786D01*
X7399357Y-14745071D01*
X7413643Y-14773643D01*
X7413643Y-14845071D01*
X7399357Y-14873643D01*
X7385071Y-14887929D01*
X7356500Y-14902214D01*
X7270786Y-14902214D01*
X7242214Y-14887929D01*
X7227928Y-14873643D01*
X7599357Y-14602214D02*
X7627928Y-14602214D01*
X7656500Y-14616500D01*
X7670786Y-14630786D01*
X7685071Y-14659357D01*
X7699357Y-14716500D01*
X7699357Y-14787929D01*
X7685071Y-14845071D01*
X7670786Y-14873643D01*
X7656500Y-14887929D01*
X7627928Y-14902214D01*
X7599357Y-14902214D01*
X7570786Y-14887929D01*
X7556500Y-14873643D01*
X7542214Y-14845071D01*
X7527928Y-14787929D01*
X7527928Y-14716500D01*
X7542214Y-14659357D01*
X7556500Y-14630786D01*
X7570786Y-14616500D01*
X7599357Y-14602214D01*
X7827928Y-14902214D02*
X7827928Y-14702214D01*
X7827928Y-14730786D02*
X7842214Y-14716500D01*
X7870786Y-14702214D01*
X7913643Y-14702214D01*
X7942214Y-14716500D01*
X7956500Y-14745071D01*
X7956500Y-14902214D01*
X7956500Y-14745071D02*
X7970786Y-14716500D01*
X7999357Y-14702214D01*
X8042214Y-14702214D01*
X8070786Y-14716500D01*
X8085071Y-14745071D01*
X8085071Y-14902214D01*
X8227928Y-14902214D02*
X8227928Y-14702214D01*
X8227928Y-14730786D02*
X8242214Y-14716500D01*
X8270786Y-14702214D01*
X8313643Y-14702214D01*
X8342214Y-14716500D01*
X8356500Y-14745071D01*
X8356500Y-14902214D01*
X8356500Y-14745071D02*
X8370786Y-14716500D01*
X8399357Y-14702214D01*
X8442214Y-14702214D01*
X8470786Y-14716500D01*
X8485071Y-14745071D01*
X8485071Y-14902214D01*
X9070786Y-14587929D02*
X8813643Y-14973643D01*
X9456500Y-14602214D02*
X9485071Y-14602214D01*
X9513643Y-14616500D01*
X9527928Y-14630786D01*
X9542214Y-14659357D01*
X9556500Y-14716500D01*
X9556500Y-14787929D01*
X9542214Y-14845071D01*
X9527928Y-14873643D01*
X9513643Y-14887929D01*
X9485071Y-14902214D01*
X9456500Y-14902214D01*
X9427928Y-14887929D01*
X9413643Y-14873643D01*
X9399357Y-14845071D01*
X9385071Y-14787929D01*
X9385071Y-14716500D01*
X9399357Y-14659357D01*
X9413643Y-14630786D01*
X9427928Y-14616500D01*
X9456500Y-14602214D01*
X9685071Y-14873643D02*
X9699357Y-14887929D01*
X9685071Y-14902214D01*
X9670786Y-14887929D01*
X9685071Y-14873643D01*
X9685071Y-14902214D01*
X9885071Y-14602214D02*
X9913643Y-14602214D01*
X9942214Y-14616500D01*
X9956500Y-14630786D01*
X9970786Y-14659357D01*
X9985071Y-14716500D01*
X9985071Y-14787929D01*
X9970786Y-14845071D01*
X9956500Y-14873643D01*
X9942214Y-14887929D01*
X9913643Y-14902214D01*
X9885071Y-14902214D01*
X9856500Y-14887929D01*
X9842214Y-14873643D01*
X9827928Y-14845071D01*
X9813643Y-14787929D01*
X9813643Y-14716500D01*
X9827928Y-14659357D01*
X9842214Y-14630786D01*
X9856500Y-14616500D01*
X9885071Y-14602214D01*
X10270786Y-14902214D02*
X10099357Y-14902214D01*
X10185071Y-14902214D02*
X10185071Y-14602214D01*
X10156500Y-14645071D01*
X10127928Y-14673643D01*
X10099357Y-14687929D01*
X10385071Y-14630786D02*
X10399357Y-14616500D01*
X10427928Y-14602214D01*
X10499357Y-14602214D01*
X10527928Y-14616500D01*
X10542214Y-14630786D01*
X10556500Y-14659357D01*
X10556500Y-14687929D01*
X10542214Y-14730786D01*
X10370786Y-14902214D01*
X10556500Y-14902214D01*
X10670786Y-14602214D02*
X10670786Y-14659357D01*
X10785071Y-14602214D02*
X10785071Y-14659357D01*
X11227928Y-15016500D02*
X11213643Y-15002214D01*
X11185071Y-14959357D01*
X11170786Y-14930786D01*
X11156500Y-14887929D01*
X11142214Y-14816500D01*
X11142214Y-14759357D01*
X11156500Y-14687929D01*
X11170786Y-14645071D01*
X11185071Y-14616500D01*
X11213643Y-14573643D01*
X11227928Y-14559357D01*
X11313643Y-14602214D02*
X11499357Y-14602214D01*
X11399357Y-14716500D01*
X11442214Y-14716500D01*
X11470786Y-14730786D01*
X11485071Y-14745071D01*
X11499357Y-14773643D01*
X11499357Y-14845071D01*
X11485071Y-14873643D01*
X11470786Y-14887929D01*
X11442214Y-14902214D01*
X11356500Y-14902214D01*
X11327928Y-14887929D01*
X11313643Y-14873643D01*
X11756500Y-14602214D02*
X11699357Y-14602214D01*
X11670786Y-14616500D01*
X11656500Y-14630786D01*
X11627928Y-14673643D01*
X11613643Y-14730786D01*
X11613643Y-14845071D01*
X11627928Y-14873643D01*
X11642214Y-14887929D01*
X11670786Y-14902214D01*
X11727928Y-14902214D01*
X11756500Y-14887929D01*
X11770786Y-14873643D01*
X11785071Y-14845071D01*
X11785071Y-14773643D01*
X11770786Y-14745071D01*
X11756500Y-14730786D01*
X11727928Y-14716500D01*
X11670786Y-14716500D01*
X11642214Y-14730786D01*
X11627928Y-14745071D01*
X11613643Y-14773643D01*
X12070786Y-14902214D02*
X11899357Y-14902214D01*
X11985071Y-14902214D02*
X11985071Y-14602214D01*
X11956500Y-14645071D01*
X11927928Y-14673643D01*
X11899357Y-14687929D01*
X12427928Y-14902214D02*
X12427928Y-14602214D01*
X12556500Y-14902214D02*
X12556500Y-14745071D01*
X12542214Y-14716500D01*
X12513643Y-14702214D01*
X12470786Y-14702214D01*
X12442214Y-14716500D01*
X12427928Y-14730786D01*
X12742214Y-14902214D02*
X12713643Y-14887929D01*
X12699357Y-14873643D01*
X12685071Y-14845071D01*
X12685071Y-14759357D01*
X12699357Y-14730786D01*
X12713643Y-14716500D01*
X12742214Y-14702214D01*
X12785071Y-14702214D01*
X12813643Y-14716500D01*
X12827928Y-14730786D01*
X12842214Y-14759357D01*
X12842214Y-14845071D01*
X12827928Y-14873643D01*
X12813643Y-14887929D01*
X12785071Y-14902214D01*
X12742214Y-14902214D01*
X13013643Y-14902214D02*
X12985071Y-14887929D01*
X12970786Y-14859357D01*
X12970786Y-14602214D01*
X13242214Y-14887929D02*
X13213643Y-14902214D01*
X13156500Y-14902214D01*
X13127928Y-14887929D01*
X13113643Y-14859357D01*
X13113643Y-14745071D01*
X13127928Y-14716500D01*
X13156500Y-14702214D01*
X13213643Y-14702214D01*
X13242214Y-14716500D01*
X13256500Y-14745071D01*
X13256500Y-14773643D01*
X13113643Y-14802214D01*
X13370786Y-14887929D02*
X13399357Y-14902214D01*
X13456500Y-14902214D01*
X13485071Y-14887929D01*
X13499357Y-14859357D01*
X13499357Y-14845071D01*
X13485071Y-14816500D01*
X13456500Y-14802214D01*
X13413643Y-14802214D01*
X13385071Y-14787929D01*
X13370786Y-14759357D01*
X13370786Y-14745071D01*
X13385071Y-14716500D01*
X13413643Y-14702214D01*
X13456500Y-14702214D01*
X13485071Y-14716500D01*
X13599357Y-15016500D02*
X13613643Y-15002214D01*
X13642214Y-14959357D01*
X13656500Y-14930786D01*
X13670786Y-14887929D01*
X13685071Y-14816500D01*
X13685071Y-14759357D01*
X13670786Y-14687929D01*
X13656500Y-14645071D01*
X13642214Y-14616500D01*
X13613643Y-14573643D01*
X13599357Y-14559357D01*
X6541500Y-15162500D02*
G75*
G03X6541500Y-15162500I-20000J0D01*
G01*
X6885071Y-14998214D02*
X6913643Y-14998214D01*
X6942214Y-15012500D01*
X6956500Y-15026786D01*
X6970786Y-15055357D01*
X6985071Y-15112500D01*
X6985071Y-15183929D01*
X6970786Y-15241071D01*
X6956500Y-15269643D01*
X6942214Y-15283929D01*
X6913643Y-15298214D01*
X6885071Y-15298214D01*
X6856500Y-15283929D01*
X6842214Y-15269643D01*
X6827928Y-15241071D01*
X6813643Y-15183929D01*
X6813643Y-15112500D01*
X6827928Y-15055357D01*
X6842214Y-15026786D01*
X6856500Y-15012500D01*
X6885071Y-14998214D01*
X7113643Y-15269643D02*
X7127928Y-15283929D01*
X7113643Y-15298214D01*
X7099357Y-15283929D01*
X7113643Y-15269643D01*
X7113643Y-15298214D01*
X7385071Y-15098214D02*
X7385071Y-15298214D01*
X7313643Y-14983929D02*
X7242214Y-15198214D01*
X7427928Y-15198214D01*
X7599357Y-14998214D02*
X7627928Y-14998214D01*
X7656500Y-15012500D01*
X7670786Y-15026786D01*
X7685071Y-15055357D01*
X7699357Y-15112500D01*
X7699357Y-15183929D01*
X7685071Y-15241071D01*
X7670786Y-15269643D01*
X7656500Y-15283929D01*
X7627928Y-15298214D01*
X7599357Y-15298214D01*
X7570786Y-15283929D01*
X7556500Y-15269643D01*
X7542214Y-15241071D01*
X7527928Y-15183929D01*
X7527928Y-15112500D01*
X7542214Y-15055357D01*
X7556500Y-15026786D01*
X7570786Y-15012500D01*
X7599357Y-14998214D01*
X7827928Y-15298214D02*
X7827928Y-15098214D01*
X7827928Y-15126786D02*
X7842214Y-15112500D01*
X7870786Y-15098214D01*
X7913643Y-15098214D01*
X7942214Y-15112500D01*
X7956500Y-15141071D01*
X7956500Y-15298214D01*
X7956500Y-15141071D02*
X7970786Y-15112500D01*
X7999357Y-15098214D01*
X8042214Y-15098214D01*
X8070786Y-15112500D01*
X8085071Y-15141071D01*
X8085071Y-15298214D01*
X8227928Y-15298214D02*
X8227928Y-15098214D01*
X8227928Y-15126786D02*
X8242214Y-15112500D01*
X8270786Y-15098214D01*
X8313643Y-15098214D01*
X8342214Y-15112500D01*
X8356500Y-15141071D01*
X8356500Y-15298214D01*
X8356500Y-15141071D02*
X8370786Y-15112500D01*
X8399357Y-15098214D01*
X8442214Y-15098214D01*
X8470786Y-15112500D01*
X8485071Y-15141071D01*
X8485071Y-15298214D01*
X9070786Y-14983929D02*
X8813643Y-15369643D01*
X9456500Y-14998214D02*
X9485071Y-14998214D01*
X9513643Y-15012500D01*
X9527928Y-15026786D01*
X9542214Y-15055357D01*
X9556500Y-15112500D01*
X9556500Y-15183929D01*
X9542214Y-15241071D01*
X9527928Y-15269643D01*
X9513643Y-15283929D01*
X9485071Y-15298214D01*
X9456500Y-15298214D01*
X9427928Y-15283929D01*
X9413643Y-15269643D01*
X9399357Y-15241071D01*
X9385071Y-15183929D01*
X9385071Y-15112500D01*
X9399357Y-15055357D01*
X9413643Y-15026786D01*
X9427928Y-15012500D01*
X9456500Y-14998214D01*
X9685071Y-15269643D02*
X9699357Y-15283929D01*
X9685071Y-15298214D01*
X9670786Y-15283929D01*
X9685071Y-15269643D01*
X9685071Y-15298214D01*
X9885071Y-14998214D02*
X9913643Y-14998214D01*
X9942214Y-15012500D01*
X9956500Y-15026786D01*
X9970786Y-15055357D01*
X9985071Y-15112500D01*
X9985071Y-15183929D01*
X9970786Y-15241071D01*
X9956500Y-15269643D01*
X9942214Y-15283929D01*
X9913643Y-15298214D01*
X9885071Y-15298214D01*
X9856500Y-15283929D01*
X9842214Y-15269643D01*
X9827928Y-15241071D01*
X9813643Y-15183929D01*
X9813643Y-15112500D01*
X9827928Y-15055357D01*
X9842214Y-15026786D01*
X9856500Y-15012500D01*
X9885071Y-14998214D01*
X10270786Y-15298214D02*
X10099357Y-15298214D01*
X10185071Y-15298214D02*
X10185071Y-14998214D01*
X10156500Y-15041071D01*
X10127928Y-15069643D01*
X10099357Y-15083929D01*
X10527928Y-14998214D02*
X10470786Y-14998214D01*
X10442214Y-15012500D01*
X10427928Y-15026786D01*
X10399357Y-15069643D01*
X10385071Y-15126786D01*
X10385071Y-15241071D01*
X10399357Y-15269643D01*
X10413643Y-15283929D01*
X10442214Y-15298214D01*
X10499357Y-15298214D01*
X10527928Y-15283929D01*
X10542214Y-15269643D01*
X10556500Y-15241071D01*
X10556500Y-15169643D01*
X10542214Y-15141071D01*
X10527928Y-15126786D01*
X10499357Y-15112500D01*
X10442214Y-15112500D01*
X10413643Y-15126786D01*
X10399357Y-15141071D01*
X10385071Y-15169643D01*
X10670786Y-14998214D02*
X10670786Y-15055357D01*
X10785071Y-14998214D02*
X10785071Y-15055357D01*
X11227928Y-15412500D02*
X11213643Y-15398214D01*
X11185071Y-15355357D01*
X11170786Y-15326786D01*
X11156500Y-15283929D01*
X11142214Y-15212500D01*
X11142214Y-15155357D01*
X11156500Y-15083929D01*
X11170786Y-15041071D01*
X11185071Y-15012500D01*
X11213643Y-14969643D01*
X11227928Y-14955357D01*
X11313643Y-14998214D02*
X11513643Y-14998214D01*
X11385071Y-15298214D01*
X11599357Y-14998214D02*
X11785071Y-14998214D01*
X11685071Y-15112500D01*
X11727928Y-15112500D01*
X11756500Y-15126786D01*
X11770786Y-15141071D01*
X11785071Y-15169643D01*
X11785071Y-15241071D01*
X11770786Y-15269643D01*
X11756500Y-15283929D01*
X11727928Y-15298214D01*
X11642214Y-15298214D01*
X11613643Y-15283929D01*
X11599357Y-15269643D01*
X12142214Y-15298214D02*
X12142214Y-14998214D01*
X12270786Y-15298214D02*
X12270786Y-15141071D01*
X12256500Y-15112500D01*
X12227928Y-15098214D01*
X12185071Y-15098214D01*
X12156500Y-15112500D01*
X12142214Y-15126786D01*
X12456500Y-15298214D02*
X12427928Y-15283929D01*
X12413643Y-15269643D01*
X12399357Y-15241071D01*
X12399357Y-15155357D01*
X12413643Y-15126786D01*
X12427928Y-15112500D01*
X12456500Y-15098214D01*
X12499357Y-15098214D01*
X12527928Y-15112500D01*
X12542214Y-15126786D01*
X12556500Y-15155357D01*
X12556500Y-15241071D01*
X12542214Y-15269643D01*
X12527928Y-15283929D01*
X12499357Y-15298214D01*
X12456500Y-15298214D01*
X12727928Y-15298214D02*
X12699357Y-15283929D01*
X12685071Y-15255357D01*
X12685071Y-14998214D01*
X12956500Y-15283929D02*
X12927928Y-15298214D01*
X12870786Y-15298214D01*
X12842214Y-15283929D01*
X12827928Y-15255357D01*
X12827928Y-15141071D01*
X12842214Y-15112500D01*
X12870786Y-15098214D01*
X12927928Y-15098214D01*
X12956500Y-15112500D01*
X12970786Y-15141071D01*
X12970786Y-15169643D01*
X12827928Y-15198214D01*
X13085071Y-15283929D02*
X13113643Y-15298214D01*
X13170786Y-15298214D01*
X13199357Y-15283929D01*
X13213643Y-15255357D01*
X13213643Y-15241071D01*
X13199357Y-15212500D01*
X13170786Y-15198214D01*
X13127928Y-15198214D01*
X13099357Y-15183929D01*
X13085071Y-15155357D01*
X13085071Y-15141071D01*
X13099357Y-15112500D01*
X13127928Y-15098214D01*
X13170786Y-15098214D01*
X13199357Y-15112500D01*
X13313643Y-15412500D02*
X13327928Y-15398214D01*
X13356500Y-15355357D01*
X13370786Y-15326786D01*
X13385071Y-15283929D01*
X13399357Y-15212500D01*
X13399357Y-15155357D01*
X13385071Y-15083929D01*
X13370786Y-15041071D01*
X13356500Y-15012500D01*
X13327928Y-14969643D01*
X13313643Y-14955357D01*
X6519000Y-15536000D02*
X6519000Y-15581000D01*
X6496500Y-15558500D02*
X6541500Y-15558500D01*
X6885071Y-15394214D02*
X6913643Y-15394214D01*
X6942214Y-15408500D01*
X6956500Y-15422786D01*
X6970786Y-15451357D01*
X6985071Y-15508500D01*
X6985071Y-15579929D01*
X6970786Y-15637071D01*
X6956500Y-15665643D01*
X6942214Y-15679929D01*
X6913643Y-15694214D01*
X6885071Y-15694214D01*
X6856500Y-15679929D01*
X6842214Y-15665643D01*
X6827928Y-15637071D01*
X6813643Y-15579929D01*
X6813643Y-15508500D01*
X6827928Y-15451357D01*
X6842214Y-15422786D01*
X6856500Y-15408500D01*
X6885071Y-15394214D01*
X7113643Y-15665643D02*
X7127928Y-15679929D01*
X7113643Y-15694214D01*
X7099357Y-15679929D01*
X7113643Y-15665643D01*
X7113643Y-15694214D01*
X7385071Y-15494214D02*
X7385071Y-15694214D01*
X7313643Y-15379929D02*
X7242214Y-15594214D01*
X7427928Y-15594214D01*
X7685071Y-15394214D02*
X7542214Y-15394214D01*
X7527928Y-15537071D01*
X7542214Y-15522786D01*
X7570786Y-15508500D01*
X7642214Y-15508500D01*
X7670786Y-15522786D01*
X7685071Y-15537071D01*
X7699357Y-15565643D01*
X7699357Y-15637071D01*
X7685071Y-15665643D01*
X7670786Y-15679929D01*
X7642214Y-15694214D01*
X7570786Y-15694214D01*
X7542214Y-15679929D01*
X7527928Y-15665643D01*
X7827928Y-15694214D02*
X7827928Y-15494214D01*
X7827928Y-15522786D02*
X7842214Y-15508500D01*
X7870786Y-15494214D01*
X7913643Y-15494214D01*
X7942214Y-15508500D01*
X7956500Y-15537071D01*
X7956500Y-15694214D01*
X7956500Y-15537071D02*
X7970786Y-15508500D01*
X7999357Y-15494214D01*
X8042214Y-15494214D01*
X8070786Y-15508500D01*
X8085071Y-15537071D01*
X8085071Y-15694214D01*
X8227928Y-15694214D02*
X8227928Y-15494214D01*
X8227928Y-15522786D02*
X8242214Y-15508500D01*
X8270786Y-15494214D01*
X8313643Y-15494214D01*
X8342214Y-15508500D01*
X8356500Y-15537071D01*
X8356500Y-15694214D01*
X8356500Y-15537071D02*
X8370786Y-15508500D01*
X8399357Y-15494214D01*
X8442214Y-15494214D01*
X8470786Y-15508500D01*
X8485071Y-15537071D01*
X8485071Y-15694214D01*
X9070786Y-15379929D02*
X8813643Y-15765643D01*
X9456500Y-15394214D02*
X9485071Y-15394214D01*
X9513643Y-15408500D01*
X9527928Y-15422786D01*
X9542214Y-15451357D01*
X9556500Y-15508500D01*
X9556500Y-15579929D01*
X9542214Y-15637071D01*
X9527928Y-15665643D01*
X9513643Y-15679929D01*
X9485071Y-15694214D01*
X9456500Y-15694214D01*
X9427928Y-15679929D01*
X9413643Y-15665643D01*
X9399357Y-15637071D01*
X9385071Y-15579929D01*
X9385071Y-15508500D01*
X9399357Y-15451357D01*
X9413643Y-15422786D01*
X9427928Y-15408500D01*
X9456500Y-15394214D01*
X9685071Y-15665643D02*
X9699357Y-15679929D01*
X9685071Y-15694214D01*
X9670786Y-15679929D01*
X9685071Y-15665643D01*
X9685071Y-15694214D01*
X9885071Y-15394214D02*
X9913643Y-15394214D01*
X9942214Y-15408500D01*
X9956500Y-15422786D01*
X9970786Y-15451357D01*
X9985071Y-15508500D01*
X9985071Y-15579929D01*
X9970786Y-15637071D01*
X9956500Y-15665643D01*
X9942214Y-15679929D01*
X9913643Y-15694214D01*
X9885071Y-15694214D01*
X9856500Y-15679929D01*
X9842214Y-15665643D01*
X9827928Y-15637071D01*
X9813643Y-15579929D01*
X9813643Y-15508500D01*
X9827928Y-15451357D01*
X9842214Y-15422786D01*
X9856500Y-15408500D01*
X9885071Y-15394214D01*
X10270786Y-15694214D02*
X10099357Y-15694214D01*
X10185071Y-15694214D02*
X10185071Y-15394214D01*
X10156500Y-15437071D01*
X10127928Y-15465643D01*
X10099357Y-15479929D01*
X10442214Y-15522786D02*
X10413643Y-15508500D01*
X10399357Y-15494214D01*
X10385071Y-15465643D01*
X10385071Y-15451357D01*
X10399357Y-15422786D01*
X10413643Y-15408500D01*
X10442214Y-15394214D01*
X10499357Y-15394214D01*
X10527928Y-15408500D01*
X10542214Y-15422786D01*
X10556500Y-15451357D01*
X10556500Y-15465643D01*
X10542214Y-15494214D01*
X10527928Y-15508500D01*
X10499357Y-15522786D01*
X10442214Y-15522786D01*
X10413643Y-15537071D01*
X10399357Y-15551357D01*
X10385071Y-15579929D01*
X10385071Y-15637071D01*
X10399357Y-15665643D01*
X10413643Y-15679929D01*
X10442214Y-15694214D01*
X10499357Y-15694214D01*
X10527928Y-15679929D01*
X10542214Y-15665643D01*
X10556500Y-15637071D01*
X10556500Y-15579929D01*
X10542214Y-15551357D01*
X10527928Y-15537071D01*
X10499357Y-15522786D01*
X10670786Y-15394214D02*
X10670786Y-15451357D01*
X10785071Y-15394214D02*
X10785071Y-15451357D01*
X11227928Y-15808500D02*
X11213643Y-15794214D01*
X11185071Y-15751357D01*
X11170786Y-15722786D01*
X11156500Y-15679929D01*
X11142214Y-15608500D01*
X11142214Y-15551357D01*
X11156500Y-15479929D01*
X11170786Y-15437071D01*
X11185071Y-15408500D01*
X11213643Y-15365643D01*
X11227928Y-15351357D01*
X11499357Y-15694214D02*
X11327928Y-15694214D01*
X11413643Y-15694214D02*
X11413643Y-15394214D01*
X11385071Y-15437071D01*
X11356500Y-15465643D01*
X11327928Y-15479929D01*
X11856500Y-15694214D02*
X11856500Y-15394214D01*
X11985071Y-15694214D02*
X11985071Y-15537071D01*
X11970786Y-15508500D01*
X11942214Y-15494214D01*
X11899357Y-15494214D01*
X11870786Y-15508500D01*
X11856500Y-15522786D01*
X12170786Y-15694214D02*
X12142214Y-15679929D01*
X12127928Y-15665643D01*
X12113643Y-15637071D01*
X12113643Y-15551357D01*
X12127928Y-15522786D01*
X12142214Y-15508500D01*
X12170786Y-15494214D01*
X12213643Y-15494214D01*
X12242214Y-15508500D01*
X12256500Y-15522786D01*
X12270786Y-15551357D01*
X12270786Y-15637071D01*
X12256500Y-15665643D01*
X12242214Y-15679929D01*
X12213643Y-15694214D01*
X12170786Y-15694214D01*
X12442214Y-15694214D02*
X12413643Y-15679929D01*
X12399357Y-15651357D01*
X12399357Y-15394214D01*
X12670786Y-15679929D02*
X12642214Y-15694214D01*
X12585071Y-15694214D01*
X12556500Y-15679929D01*
X12542214Y-15651357D01*
X12542214Y-15537071D01*
X12556500Y-15508500D01*
X12585071Y-15494214D01*
X12642214Y-15494214D01*
X12670786Y-15508500D01*
X12685071Y-15537071D01*
X12685071Y-15565643D01*
X12542214Y-15594214D01*
X12785071Y-15808500D02*
X12799357Y-15794214D01*
X12827928Y-15751357D01*
X12842214Y-15722786D01*
X12856500Y-15679929D01*
X12870786Y-15608500D01*
X12870786Y-15551357D01*
X12856500Y-15479929D01*
X12842214Y-15437071D01*
X12827928Y-15408500D01*
X12799357Y-15365643D01*
X12785071Y-15351357D01*
X6534178Y-15972178D02*
X6534178Y-15936822D01*
X6498822Y-15936822D01*
X6498822Y-15972178D01*
X6534178Y-15972178D01*
X6885071Y-15790214D02*
X6913643Y-15790214D01*
X6942214Y-15804500D01*
X6956500Y-15818786D01*
X6970786Y-15847357D01*
X6985071Y-15904500D01*
X6985071Y-15975929D01*
X6970786Y-16033071D01*
X6956500Y-16061643D01*
X6942214Y-16075929D01*
X6913643Y-16090214D01*
X6885071Y-16090214D01*
X6856500Y-16075929D01*
X6842214Y-16061643D01*
X6827928Y-16033071D01*
X6813643Y-15975929D01*
X6813643Y-15904500D01*
X6827928Y-15847357D01*
X6842214Y-15818786D01*
X6856500Y-15804500D01*
X6885071Y-15790214D01*
X7113643Y-16061643D02*
X7127928Y-16075929D01*
X7113643Y-16090214D01*
X7099357Y-16075929D01*
X7113643Y-16061643D01*
X7113643Y-16090214D01*
X7399357Y-15790214D02*
X7256500Y-15790214D01*
X7242214Y-15933071D01*
X7256500Y-15918786D01*
X7285071Y-15904500D01*
X7356500Y-15904500D01*
X7385071Y-15918786D01*
X7399357Y-15933071D01*
X7413643Y-15961643D01*
X7413643Y-16033071D01*
X7399357Y-16061643D01*
X7385071Y-16075929D01*
X7356500Y-16090214D01*
X7285071Y-16090214D01*
X7256500Y-16075929D01*
X7242214Y-16061643D01*
X7599357Y-15790214D02*
X7627928Y-15790214D01*
X7656500Y-15804500D01*
X7670786Y-15818786D01*
X7685071Y-15847357D01*
X7699357Y-15904500D01*
X7699357Y-15975929D01*
X7685071Y-16033071D01*
X7670786Y-16061643D01*
X7656500Y-16075929D01*
X7627928Y-16090214D01*
X7599357Y-16090214D01*
X7570786Y-16075929D01*
X7556500Y-16061643D01*
X7542214Y-16033071D01*
X7527928Y-15975929D01*
X7527928Y-15904500D01*
X7542214Y-15847357D01*
X7556500Y-15818786D01*
X7570786Y-15804500D01*
X7599357Y-15790214D01*
X7827928Y-16090214D02*
X7827928Y-15890214D01*
X7827928Y-15918786D02*
X7842214Y-15904500D01*
X7870786Y-15890214D01*
X7913643Y-15890214D01*
X7942214Y-15904500D01*
X7956500Y-15933071D01*
X7956500Y-16090214D01*
X7956500Y-15933071D02*
X7970786Y-15904500D01*
X7999357Y-15890214D01*
X8042214Y-15890214D01*
X8070786Y-15904500D01*
X8085071Y-15933071D01*
X8085071Y-16090214D01*
X8227928Y-16090214D02*
X8227928Y-15890214D01*
X8227928Y-15918786D02*
X8242214Y-15904500D01*
X8270786Y-15890214D01*
X8313643Y-15890214D01*
X8342214Y-15904500D01*
X8356500Y-15933071D01*
X8356500Y-16090214D01*
X8356500Y-15933071D02*
X8370786Y-15904500D01*
X8399357Y-15890214D01*
X8442214Y-15890214D01*
X8470786Y-15904500D01*
X8485071Y-15933071D01*
X8485071Y-16090214D01*
X9070786Y-15775929D02*
X8813643Y-16161643D01*
X9456500Y-15790214D02*
X9485071Y-15790214D01*
X9513643Y-15804500D01*
X9527928Y-15818786D01*
X9542214Y-15847357D01*
X9556500Y-15904500D01*
X9556500Y-15975929D01*
X9542214Y-16033071D01*
X9527928Y-16061643D01*
X9513643Y-16075929D01*
X9485071Y-16090214D01*
X9456500Y-16090214D01*
X9427928Y-16075929D01*
X9413643Y-16061643D01*
X9399357Y-16033071D01*
X9385071Y-15975929D01*
X9385071Y-15904500D01*
X9399357Y-15847357D01*
X9413643Y-15818786D01*
X9427928Y-15804500D01*
X9456500Y-15790214D01*
X9685071Y-16061643D02*
X9699357Y-16075929D01*
X9685071Y-16090214D01*
X9670786Y-16075929D01*
X9685071Y-16061643D01*
X9685071Y-16090214D01*
X9885071Y-15790214D02*
X9913643Y-15790214D01*
X9942214Y-15804500D01*
X9956500Y-15818786D01*
X9970786Y-15847357D01*
X9985071Y-15904500D01*
X9985071Y-15975929D01*
X9970786Y-16033071D01*
X9956500Y-16061643D01*
X9942214Y-16075929D01*
X9913643Y-16090214D01*
X9885071Y-16090214D01*
X9856500Y-16075929D01*
X9842214Y-16061643D01*
X9827928Y-16033071D01*
X9813643Y-15975929D01*
X9813643Y-15904500D01*
X9827928Y-15847357D01*
X9842214Y-15818786D01*
X9856500Y-15804500D01*
X9885071Y-15790214D01*
X10099357Y-15818786D02*
X10113643Y-15804500D01*
X10142214Y-15790214D01*
X10213643Y-15790214D01*
X10242214Y-15804500D01*
X10256500Y-15818786D01*
X10270786Y-15847357D01*
X10270786Y-15875929D01*
X10256500Y-15918786D01*
X10085071Y-16090214D01*
X10270786Y-16090214D01*
X10456500Y-15790214D02*
X10485071Y-15790214D01*
X10513643Y-15804500D01*
X10527928Y-15818786D01*
X10542214Y-15847357D01*
X10556500Y-15904500D01*
X10556500Y-15975929D01*
X10542214Y-16033071D01*
X10527928Y-16061643D01*
X10513643Y-16075929D01*
X10485071Y-16090214D01*
X10456500Y-16090214D01*
X10427928Y-16075929D01*
X10413643Y-16061643D01*
X10399357Y-16033071D01*
X10385071Y-15975929D01*
X10385071Y-15904500D01*
X10399357Y-15847357D01*
X10413643Y-15818786D01*
X10427928Y-15804500D01*
X10456500Y-15790214D01*
X10670786Y-15790214D02*
X10670786Y-15847357D01*
X10785071Y-15790214D02*
X10785071Y-15847357D01*
X11227928Y-16204500D02*
X11213643Y-16190214D01*
X11185071Y-16147357D01*
X11170786Y-16118786D01*
X11156500Y-16075929D01*
X11142214Y-16004500D01*
X11142214Y-15947357D01*
X11156500Y-15875929D01*
X11170786Y-15833071D01*
X11185071Y-15804500D01*
X11213643Y-15761643D01*
X11227928Y-15747357D01*
X11499357Y-16090214D02*
X11327928Y-16090214D01*
X11413643Y-16090214D02*
X11413643Y-15790214D01*
X11385071Y-15833071D01*
X11356500Y-15861643D01*
X11327928Y-15875929D01*
X11756500Y-15890214D02*
X11756500Y-16090214D01*
X11685071Y-15775929D02*
X11613643Y-15990214D01*
X11799357Y-15990214D01*
X11885071Y-15790214D02*
X12070786Y-15790214D01*
X11970786Y-15904500D01*
X12013643Y-15904500D01*
X12042214Y-15918786D01*
X12056500Y-15933071D01*
X12070786Y-15961643D01*
X12070786Y-16033071D01*
X12056500Y-16061643D01*
X12042214Y-16075929D01*
X12013643Y-16090214D01*
X11927928Y-16090214D01*
X11899357Y-16075929D01*
X11885071Y-16061643D01*
X12427928Y-16090214D02*
X12427928Y-15790214D01*
X12556500Y-16090214D02*
X12556500Y-15933071D01*
X12542214Y-15904500D01*
X12513643Y-15890214D01*
X12470786Y-15890214D01*
X12442214Y-15904500D01*
X12427928Y-15918786D01*
X12742214Y-16090214D02*
X12713643Y-16075929D01*
X12699357Y-16061643D01*
X12685071Y-16033071D01*
X12685071Y-15947357D01*
X12699357Y-15918786D01*
X12713643Y-15904500D01*
X12742214Y-15890214D01*
X12785071Y-15890214D01*
X12813643Y-15904500D01*
X12827928Y-15918786D01*
X12842214Y-15947357D01*
X12842214Y-16033071D01*
X12827928Y-16061643D01*
X12813643Y-16075929D01*
X12785071Y-16090214D01*
X12742214Y-16090214D01*
X13013643Y-16090214D02*
X12985071Y-16075929D01*
X12970786Y-16047357D01*
X12970786Y-15790214D01*
X13242214Y-16075929D02*
X13213643Y-16090214D01*
X13156500Y-16090214D01*
X13127928Y-16075929D01*
X13113643Y-16047357D01*
X13113643Y-15933071D01*
X13127928Y-15904500D01*
X13156500Y-15890214D01*
X13213643Y-15890214D01*
X13242214Y-15904500D01*
X13256500Y-15933071D01*
X13256500Y-15961643D01*
X13113643Y-15990214D01*
X13370786Y-16075929D02*
X13399357Y-16090214D01*
X13456500Y-16090214D01*
X13485071Y-16075929D01*
X13499357Y-16047357D01*
X13499357Y-16033071D01*
X13485071Y-16004500D01*
X13456500Y-15990214D01*
X13413643Y-15990214D01*
X13385071Y-15975929D01*
X13370786Y-15947357D01*
X13370786Y-15933071D01*
X13385071Y-15904500D01*
X13413643Y-15890214D01*
X13456500Y-15890214D01*
X13485071Y-15904500D01*
X13856500Y-15975929D02*
X14085071Y-15975929D01*
X13970786Y-16090214D02*
X13970786Y-15861643D01*
X14442214Y-15818786D02*
X14456500Y-15804500D01*
X14485071Y-15790214D01*
X14556500Y-15790214D01*
X14585071Y-15804500D01*
X14599357Y-15818786D01*
X14613643Y-15847357D01*
X14613643Y-15875929D01*
X14599357Y-15918786D01*
X14427928Y-16090214D01*
X14613643Y-16090214D01*
X14956500Y-16075929D02*
X14985071Y-16090214D01*
X15042214Y-16090214D01*
X15070786Y-16075929D01*
X15085071Y-16047357D01*
X15085071Y-16033071D01*
X15070786Y-16004500D01*
X15042214Y-15990214D01*
X14999357Y-15990214D01*
X14970786Y-15975929D01*
X14956500Y-15947357D01*
X14956500Y-15933071D01*
X14970786Y-15904500D01*
X14999357Y-15890214D01*
X15042214Y-15890214D01*
X15070786Y-15904500D01*
X15256500Y-16090214D02*
X15227928Y-16075929D01*
X15213643Y-16047357D01*
X15213643Y-15790214D01*
X15413643Y-16090214D02*
X15385071Y-16075929D01*
X15370786Y-16061643D01*
X15356500Y-16033071D01*
X15356500Y-15947357D01*
X15370786Y-15918786D01*
X15385071Y-15904500D01*
X15413643Y-15890214D01*
X15456500Y-15890214D01*
X15485071Y-15904500D01*
X15499357Y-15918786D01*
X15513643Y-15947357D01*
X15513643Y-16033071D01*
X15499357Y-16061643D01*
X15485071Y-16075929D01*
X15456500Y-16090214D01*
X15413643Y-16090214D01*
X15599357Y-15890214D02*
X15713643Y-15890214D01*
X15642214Y-15790214D02*
X15642214Y-16047357D01*
X15656500Y-16075929D01*
X15685071Y-16090214D01*
X15713643Y-16090214D01*
X15799357Y-16075929D02*
X15827928Y-16090214D01*
X15885071Y-16090214D01*
X15913643Y-16075929D01*
X15927928Y-16047357D01*
X15927928Y-16033071D01*
X15913643Y-16004500D01*
X15885071Y-15990214D01*
X15842214Y-15990214D01*
X15813643Y-15975929D01*
X15799357Y-15947357D01*
X15799357Y-15933071D01*
X15813643Y-15904500D01*
X15842214Y-15890214D01*
X15885071Y-15890214D01*
X15913643Y-15904500D01*
X16027928Y-16204500D02*
X16042214Y-16190214D01*
X16070786Y-16147357D01*
X16085071Y-16118786D01*
X16099357Y-16075929D01*
X16113643Y-16004500D01*
X16113643Y-15947357D01*
X16099357Y-15875929D01*
X16085071Y-15833071D01*
X16070786Y-15804500D01*
X16042214Y-15761643D01*
X16027928Y-15747357D01*
X6514000Y-16378000D02*
X6541500Y-16350500D01*
X6514000Y-16323000D01*
X6486500Y-16350500D01*
X6514000Y-16378000D01*
X6885071Y-16186214D02*
X6913643Y-16186214D01*
X6942214Y-16200500D01*
X6956500Y-16214786D01*
X6970786Y-16243357D01*
X6985071Y-16300500D01*
X6985071Y-16371929D01*
X6970786Y-16429071D01*
X6956500Y-16457643D01*
X6942214Y-16471929D01*
X6913643Y-16486214D01*
X6885071Y-16486214D01*
X6856500Y-16471929D01*
X6842214Y-16457643D01*
X6827928Y-16429071D01*
X6813643Y-16371929D01*
X6813643Y-16300500D01*
X6827928Y-16243357D01*
X6842214Y-16214786D01*
X6856500Y-16200500D01*
X6885071Y-16186214D01*
X7113643Y-16457643D02*
X7127928Y-16471929D01*
X7113643Y-16486214D01*
X7099357Y-16471929D01*
X7113643Y-16457643D01*
X7113643Y-16486214D01*
X7399357Y-16186214D02*
X7256500Y-16186214D01*
X7242214Y-16329071D01*
X7256500Y-16314786D01*
X7285071Y-16300500D01*
X7356500Y-16300500D01*
X7385071Y-16314786D01*
X7399357Y-16329071D01*
X7413643Y-16357643D01*
X7413643Y-16429071D01*
X7399357Y-16457643D01*
X7385071Y-16471929D01*
X7356500Y-16486214D01*
X7285071Y-16486214D01*
X7256500Y-16471929D01*
X7242214Y-16457643D01*
X7685071Y-16186214D02*
X7542214Y-16186214D01*
X7527928Y-16329071D01*
X7542214Y-16314786D01*
X7570786Y-16300500D01*
X7642214Y-16300500D01*
X7670786Y-16314786D01*
X7685071Y-16329071D01*
X7699357Y-16357643D01*
X7699357Y-16429071D01*
X7685071Y-16457643D01*
X7670786Y-16471929D01*
X7642214Y-16486214D01*
X7570786Y-16486214D01*
X7542214Y-16471929D01*
X7527928Y-16457643D01*
X7827928Y-16486214D02*
X7827928Y-16286214D01*
X7827928Y-16314786D02*
X7842214Y-16300500D01*
X7870786Y-16286214D01*
X7913643Y-16286214D01*
X7942214Y-16300500D01*
X7956500Y-16329071D01*
X7956500Y-16486214D01*
X7956500Y-16329071D02*
X7970786Y-16300500D01*
X7999357Y-16286214D01*
X8042214Y-16286214D01*
X8070786Y-16300500D01*
X8085071Y-16329071D01*
X8085071Y-16486214D01*
X8227928Y-16486214D02*
X8227928Y-16286214D01*
X8227928Y-16314786D02*
X8242214Y-16300500D01*
X8270786Y-16286214D01*
X8313643Y-16286214D01*
X8342214Y-16300500D01*
X8356500Y-16329071D01*
X8356500Y-16486214D01*
X8356500Y-16329071D02*
X8370786Y-16300500D01*
X8399357Y-16286214D01*
X8442214Y-16286214D01*
X8470786Y-16300500D01*
X8485071Y-16329071D01*
X8485071Y-16486214D01*
X9070786Y-16171929D02*
X8813643Y-16557643D01*
X9456500Y-16186214D02*
X9485071Y-16186214D01*
X9513643Y-16200500D01*
X9527928Y-16214786D01*
X9542214Y-16243357D01*
X9556500Y-16300500D01*
X9556500Y-16371929D01*
X9542214Y-16429071D01*
X9527928Y-16457643D01*
X9513643Y-16471929D01*
X9485071Y-16486214D01*
X9456500Y-16486214D01*
X9427928Y-16471929D01*
X9413643Y-16457643D01*
X9399357Y-16429071D01*
X9385071Y-16371929D01*
X9385071Y-16300500D01*
X9399357Y-16243357D01*
X9413643Y-16214786D01*
X9427928Y-16200500D01*
X9456500Y-16186214D01*
X9685071Y-16457643D02*
X9699357Y-16471929D01*
X9685071Y-16486214D01*
X9670786Y-16471929D01*
X9685071Y-16457643D01*
X9685071Y-16486214D01*
X9885071Y-16186214D02*
X9913643Y-16186214D01*
X9942214Y-16200500D01*
X9956500Y-16214786D01*
X9970786Y-16243357D01*
X9985071Y-16300500D01*
X9985071Y-16371929D01*
X9970786Y-16429071D01*
X9956500Y-16457643D01*
X9942214Y-16471929D01*
X9913643Y-16486214D01*
X9885071Y-16486214D01*
X9856500Y-16471929D01*
X9842214Y-16457643D01*
X9827928Y-16429071D01*
X9813643Y-16371929D01*
X9813643Y-16300500D01*
X9827928Y-16243357D01*
X9842214Y-16214786D01*
X9856500Y-16200500D01*
X9885071Y-16186214D01*
X10099357Y-16214786D02*
X10113643Y-16200500D01*
X10142214Y-16186214D01*
X10213643Y-16186214D01*
X10242214Y-16200500D01*
X10256500Y-16214786D01*
X10270786Y-16243357D01*
X10270786Y-16271929D01*
X10256500Y-16314786D01*
X10085071Y-16486214D01*
X10270786Y-16486214D01*
X10385071Y-16214786D02*
X10399357Y-16200500D01*
X10427928Y-16186214D01*
X10499357Y-16186214D01*
X10527928Y-16200500D01*
X10542214Y-16214786D01*
X10556500Y-16243357D01*
X10556500Y-16271929D01*
X10542214Y-16314786D01*
X10370786Y-16486214D01*
X10556500Y-16486214D01*
X10670786Y-16186214D02*
X10670786Y-16243357D01*
X10785071Y-16186214D02*
X10785071Y-16243357D01*
X11227928Y-16600500D02*
X11213643Y-16586214D01*
X11185071Y-16543357D01*
X11170786Y-16514786D01*
X11156500Y-16471929D01*
X11142214Y-16400500D01*
X11142214Y-16343357D01*
X11156500Y-16271929D01*
X11170786Y-16229071D01*
X11185071Y-16200500D01*
X11213643Y-16157643D01*
X11227928Y-16143357D01*
X11399357Y-16186214D02*
X11427928Y-16186214D01*
X11456500Y-16200500D01*
X11470786Y-16214786D01*
X11485071Y-16243357D01*
X11499357Y-16300500D01*
X11499357Y-16371929D01*
X11485071Y-16429071D01*
X11470786Y-16457643D01*
X11456500Y-16471929D01*
X11427928Y-16486214D01*
X11399357Y-16486214D01*
X11370786Y-16471929D01*
X11356500Y-16457643D01*
X11342214Y-16429071D01*
X11327928Y-16371929D01*
X11327928Y-16300500D01*
X11342214Y-16243357D01*
X11356500Y-16214786D01*
X11370786Y-16200500D01*
X11399357Y-16186214D01*
X11856500Y-16486214D02*
X11856500Y-16186214D01*
X11985071Y-16486214D02*
X11985071Y-16329071D01*
X11970786Y-16300500D01*
X11942214Y-16286214D01*
X11899357Y-16286214D01*
X11870786Y-16300500D01*
X11856500Y-16314786D01*
X12170786Y-16486214D02*
X12142214Y-16471929D01*
X12127928Y-16457643D01*
X12113643Y-16429071D01*
X12113643Y-16343357D01*
X12127928Y-16314786D01*
X12142214Y-16300500D01*
X12170786Y-16286214D01*
X12213643Y-16286214D01*
X12242214Y-16300500D01*
X12256500Y-16314786D01*
X12270786Y-16343357D01*
X12270786Y-16429071D01*
X12256500Y-16457643D01*
X12242214Y-16471929D01*
X12213643Y-16486214D01*
X12170786Y-16486214D01*
X12442214Y-16486214D02*
X12413643Y-16471929D01*
X12399357Y-16443357D01*
X12399357Y-16186214D01*
X12670786Y-16471929D02*
X12642214Y-16486214D01*
X12585071Y-16486214D01*
X12556500Y-16471929D01*
X12542214Y-16443357D01*
X12542214Y-16329071D01*
X12556500Y-16300500D01*
X12585071Y-16286214D01*
X12642214Y-16286214D01*
X12670786Y-16300500D01*
X12685071Y-16329071D01*
X12685071Y-16357643D01*
X12542214Y-16386214D01*
X12799357Y-16471929D02*
X12827928Y-16486214D01*
X12885071Y-16486214D01*
X12913643Y-16471929D01*
X12927928Y-16443357D01*
X12927928Y-16429071D01*
X12913643Y-16400500D01*
X12885071Y-16386214D01*
X12842214Y-16386214D01*
X12813643Y-16371929D01*
X12799357Y-16343357D01*
X12799357Y-16329071D01*
X12813643Y-16300500D01*
X12842214Y-16286214D01*
X12885071Y-16286214D01*
X12913643Y-16300500D01*
X13285071Y-16371929D02*
X13513643Y-16371929D01*
X13399357Y-16486214D02*
X13399357Y-16257643D01*
X13870786Y-16214786D02*
X13885071Y-16200500D01*
X13913643Y-16186214D01*
X13985071Y-16186214D01*
X14013643Y-16200500D01*
X14027928Y-16214786D01*
X14042214Y-16243357D01*
X14042214Y-16271929D01*
X14027928Y-16314786D01*
X13856500Y-16486214D01*
X14042214Y-16486214D01*
X14385071Y-16471929D02*
X14413643Y-16486214D01*
X14470786Y-16486214D01*
X14499357Y-16471929D01*
X14513643Y-16443357D01*
X14513643Y-16429071D01*
X14499357Y-16400500D01*
X14470786Y-16386214D01*
X14427928Y-16386214D01*
X14399357Y-16371929D01*
X14385071Y-16343357D01*
X14385071Y-16329071D01*
X14399357Y-16300500D01*
X14427928Y-16286214D01*
X14470786Y-16286214D01*
X14499357Y-16300500D01*
X14685071Y-16486214D02*
X14656500Y-16471929D01*
X14642214Y-16443357D01*
X14642214Y-16186214D01*
X14842214Y-16486214D02*
X14813643Y-16471929D01*
X14799357Y-16457643D01*
X14785071Y-16429071D01*
X14785071Y-16343357D01*
X14799357Y-16314786D01*
X14813643Y-16300500D01*
X14842214Y-16286214D01*
X14885071Y-16286214D01*
X14913643Y-16300500D01*
X14927928Y-16314786D01*
X14942214Y-16343357D01*
X14942214Y-16429071D01*
X14927928Y-16457643D01*
X14913643Y-16471929D01*
X14885071Y-16486214D01*
X14842214Y-16486214D01*
X15027928Y-16286214D02*
X15142214Y-16286214D01*
X15070786Y-16186214D02*
X15070786Y-16443357D01*
X15085071Y-16471929D01*
X15113643Y-16486214D01*
X15142214Y-16486214D01*
X15227928Y-16471929D02*
X15256500Y-16486214D01*
X15313643Y-16486214D01*
X15342214Y-16471929D01*
X15356500Y-16443357D01*
X15356500Y-16429071D01*
X15342214Y-16400500D01*
X15313643Y-16386214D01*
X15270786Y-16386214D01*
X15242214Y-16371929D01*
X15227928Y-16343357D01*
X15227928Y-16329071D01*
X15242214Y-16300500D01*
X15270786Y-16286214D01*
X15313643Y-16286214D01*
X15342214Y-16300500D01*
X15456500Y-16600500D02*
X15470786Y-16586214D01*
X15499357Y-16543357D01*
X15513643Y-16514786D01*
X15527928Y-16471929D01*
X15542214Y-16400500D01*
X15542214Y-16343357D01*
X15527928Y-16271929D01*
X15513643Y-16229071D01*
X15499357Y-16200500D01*
X15470786Y-16157643D01*
X15456500Y-16143357D01*
X6451500Y-16701500D02*
X6541500Y-16791500D01*
X6541500Y-16701500D02*
X6451500Y-16791500D01*
X6541500Y-16746500D02*
G75*
G03X6541500Y-16746500I-45000J0D01*
G01*
X6885071Y-16582214D02*
X6913643Y-16582214D01*
X6942214Y-16596500D01*
X6956500Y-16610786D01*
X6970786Y-16639357D01*
X6985071Y-16696500D01*
X6985071Y-16767929D01*
X6970786Y-16825072D01*
X6956500Y-16853643D01*
X6942214Y-16867929D01*
X6913643Y-16882214D01*
X6885071Y-16882214D01*
X6856500Y-16867929D01*
X6842214Y-16853643D01*
X6827928Y-16825072D01*
X6813643Y-16767929D01*
X6813643Y-16696500D01*
X6827928Y-16639357D01*
X6842214Y-16610786D01*
X6856500Y-16596500D01*
X6885071Y-16582214D01*
X7113643Y-16853643D02*
X7127928Y-16867929D01*
X7113643Y-16882214D01*
X7099357Y-16867929D01*
X7113643Y-16853643D01*
X7113643Y-16882214D01*
X7270786Y-16882214D02*
X7327928Y-16882214D01*
X7356500Y-16867929D01*
X7370786Y-16853643D01*
X7399357Y-16810786D01*
X7413643Y-16753643D01*
X7413643Y-16639357D01*
X7399357Y-16610786D01*
X7385071Y-16596500D01*
X7356500Y-16582214D01*
X7299357Y-16582214D01*
X7270786Y-16596500D01*
X7256500Y-16610786D01*
X7242214Y-16639357D01*
X7242214Y-16710786D01*
X7256500Y-16739357D01*
X7270786Y-16753643D01*
X7299357Y-16767929D01*
X7356500Y-16767929D01*
X7385071Y-16753643D01*
X7399357Y-16739357D01*
X7413643Y-16710786D01*
X7599357Y-16582214D02*
X7627928Y-16582214D01*
X7656500Y-16596500D01*
X7670786Y-16610786D01*
X7685071Y-16639357D01*
X7699357Y-16696500D01*
X7699357Y-16767929D01*
X7685071Y-16825072D01*
X7670786Y-16853643D01*
X7656500Y-16867929D01*
X7627928Y-16882214D01*
X7599357Y-16882214D01*
X7570786Y-16867929D01*
X7556500Y-16853643D01*
X7542214Y-16825072D01*
X7527928Y-16767929D01*
X7527928Y-16696500D01*
X7542214Y-16639357D01*
X7556500Y-16610786D01*
X7570786Y-16596500D01*
X7599357Y-16582214D01*
X7827928Y-16882214D02*
X7827928Y-16682214D01*
X7827928Y-16710786D02*
X7842214Y-16696500D01*
X7870786Y-16682214D01*
X7913643Y-16682214D01*
X7942214Y-16696500D01*
X7956500Y-16725071D01*
X7956500Y-16882214D01*
X7956500Y-16725071D02*
X7970786Y-16696500D01*
X7999357Y-16682214D01*
X8042214Y-16682214D01*
X8070786Y-16696500D01*
X8085071Y-16725071D01*
X8085071Y-16882214D01*
X8227928Y-16882214D02*
X8227928Y-16682214D01*
X8227928Y-16710786D02*
X8242214Y-16696500D01*
X8270786Y-16682214D01*
X8313643Y-16682214D01*
X8342214Y-16696500D01*
X8356500Y-16725071D01*
X8356500Y-16882214D01*
X8356500Y-16725071D02*
X8370786Y-16696500D01*
X8399357Y-16682214D01*
X8442214Y-16682214D01*
X8470786Y-16696500D01*
X8485071Y-16725071D01*
X8485071Y-16882214D01*
X9070786Y-16567929D02*
X8813643Y-16953643D01*
X9456500Y-16582214D02*
X9485071Y-16582214D01*
X9513643Y-16596500D01*
X9527928Y-16610786D01*
X9542214Y-16639357D01*
X9556500Y-16696500D01*
X9556500Y-16767929D01*
X9542214Y-16825072D01*
X9527928Y-16853643D01*
X9513643Y-16867929D01*
X9485071Y-16882214D01*
X9456500Y-16882214D01*
X9427928Y-16867929D01*
X9413643Y-16853643D01*
X9399357Y-16825072D01*
X9385071Y-16767929D01*
X9385071Y-16696500D01*
X9399357Y-16639357D01*
X9413643Y-16610786D01*
X9427928Y-16596500D01*
X9456500Y-16582214D01*
X9685071Y-16853643D02*
X9699357Y-16867929D01*
X9685071Y-16882214D01*
X9670786Y-16867929D01*
X9685071Y-16853643D01*
X9685071Y-16882214D01*
X9885071Y-16582214D02*
X9913643Y-16582214D01*
X9942214Y-16596500D01*
X9956500Y-16610786D01*
X9970786Y-16639357D01*
X9985071Y-16696500D01*
X9985071Y-16767929D01*
X9970786Y-16825072D01*
X9956500Y-16853643D01*
X9942214Y-16867929D01*
X9913643Y-16882214D01*
X9885071Y-16882214D01*
X9856500Y-16867929D01*
X9842214Y-16853643D01*
X9827928Y-16825072D01*
X9813643Y-16767929D01*
X9813643Y-16696500D01*
X9827928Y-16639357D01*
X9842214Y-16610786D01*
X9856500Y-16596500D01*
X9885071Y-16582214D01*
X10085071Y-16582214D02*
X10270786Y-16582214D01*
X10170786Y-16696500D01*
X10213643Y-16696500D01*
X10242214Y-16710786D01*
X10256500Y-16725071D01*
X10270786Y-16753643D01*
X10270786Y-16825072D01*
X10256500Y-16853643D01*
X10242214Y-16867929D01*
X10213643Y-16882214D01*
X10127928Y-16882214D01*
X10099357Y-16867929D01*
X10085071Y-16853643D01*
X10542214Y-16582214D02*
X10399357Y-16582214D01*
X10385071Y-16725071D01*
X10399357Y-16710786D01*
X10427928Y-16696500D01*
X10499357Y-16696500D01*
X10527928Y-16710786D01*
X10542214Y-16725071D01*
X10556500Y-16753643D01*
X10556500Y-16825072D01*
X10542214Y-16853643D01*
X10527928Y-16867929D01*
X10499357Y-16882214D01*
X10427928Y-16882214D01*
X10399357Y-16867929D01*
X10385071Y-16853643D01*
X10670786Y-16582214D02*
X10670786Y-16639357D01*
X10785071Y-16582214D02*
X10785071Y-16639357D01*
X11227928Y-16996500D02*
X11213643Y-16982214D01*
X11185071Y-16939357D01*
X11170786Y-16910786D01*
X11156500Y-16867929D01*
X11142214Y-16796500D01*
X11142214Y-16739357D01*
X11156500Y-16667929D01*
X11170786Y-16625071D01*
X11185071Y-16596500D01*
X11213643Y-16553643D01*
X11227928Y-16539357D01*
X11470786Y-16682214D02*
X11470786Y-16882214D01*
X11399357Y-16567929D02*
X11327928Y-16782214D01*
X11513643Y-16782214D01*
X11856500Y-16882214D02*
X11856500Y-16582214D01*
X11985071Y-16882214D02*
X11985071Y-16725071D01*
X11970786Y-16696500D01*
X11942214Y-16682214D01*
X11899357Y-16682214D01*
X11870786Y-16696500D01*
X11856500Y-16710786D01*
X12170786Y-16882214D02*
X12142214Y-16867929D01*
X12127928Y-16853643D01*
X12113643Y-16825072D01*
X12113643Y-16739357D01*
X12127928Y-16710786D01*
X12142214Y-16696500D01*
X12170786Y-16682214D01*
X12213643Y-16682214D01*
X12242214Y-16696500D01*
X12256500Y-16710786D01*
X12270786Y-16739357D01*
X12270786Y-16825072D01*
X12256500Y-16853643D01*
X12242214Y-16867929D01*
X12213643Y-16882214D01*
X12170786Y-16882214D01*
X12442214Y-16882214D02*
X12413643Y-16867929D01*
X12399357Y-16839357D01*
X12399357Y-16582214D01*
X12670786Y-16867929D02*
X12642214Y-16882214D01*
X12585071Y-16882214D01*
X12556500Y-16867929D01*
X12542214Y-16839357D01*
X12542214Y-16725071D01*
X12556500Y-16696500D01*
X12585071Y-16682214D01*
X12642214Y-16682214D01*
X12670786Y-16696500D01*
X12685071Y-16725071D01*
X12685071Y-16753643D01*
X12542214Y-16782214D01*
X12799357Y-16867929D02*
X12827928Y-16882214D01*
X12885071Y-16882214D01*
X12913643Y-16867929D01*
X12927928Y-16839357D01*
X12927928Y-16825072D01*
X12913643Y-16796500D01*
X12885071Y-16782214D01*
X12842214Y-16782214D01*
X12813643Y-16767929D01*
X12799357Y-16739357D01*
X12799357Y-16725071D01*
X12813643Y-16696500D01*
X12842214Y-16682214D01*
X12885071Y-16682214D01*
X12913643Y-16696500D01*
X13027928Y-16996500D02*
X13042214Y-16982214D01*
X13070786Y-16939357D01*
X13085071Y-16910786D01*
X13099357Y-16867929D01*
X13113643Y-16796500D01*
X13113643Y-16739357D01*
X13099357Y-16667929D01*
X13085071Y-16625071D01*
X13070786Y-16596500D01*
X13042214Y-16553643D01*
X13027928Y-16539357D01*
X6441500Y-17092500D02*
X6541500Y-17192500D01*
X6541500Y-17092500D02*
X6441500Y-17192500D01*
X6491500Y-17092500D02*
X6491500Y-17192500D01*
X6441500Y-17142500D02*
X6541500Y-17142500D01*
X6985071Y-17278214D02*
X6813643Y-17278214D01*
X6899357Y-17278214D02*
X6899357Y-16978214D01*
X6870786Y-17021072D01*
X6842214Y-17049643D01*
X6813643Y-17063929D01*
X7113643Y-17249643D02*
X7127928Y-17263929D01*
X7113643Y-17278214D01*
X7099357Y-17263929D01*
X7113643Y-17249643D01*
X7113643Y-17278214D01*
X7313643Y-16978214D02*
X7342214Y-16978214D01*
X7370786Y-16992500D01*
X7385071Y-17006786D01*
X7399357Y-17035357D01*
X7413643Y-17092500D01*
X7413643Y-17163929D01*
X7399357Y-17221072D01*
X7385071Y-17249643D01*
X7370786Y-17263929D01*
X7342214Y-17278214D01*
X7313643Y-17278214D01*
X7285071Y-17263929D01*
X7270786Y-17249643D01*
X7256500Y-17221072D01*
X7242214Y-17163929D01*
X7242214Y-17092500D01*
X7256500Y-17035357D01*
X7270786Y-17006786D01*
X7285071Y-16992500D01*
X7313643Y-16978214D01*
X7599357Y-16978214D02*
X7627928Y-16978214D01*
X7656500Y-16992500D01*
X7670786Y-17006786D01*
X7685071Y-17035357D01*
X7699357Y-17092500D01*
X7699357Y-17163929D01*
X7685071Y-17221072D01*
X7670786Y-17249643D01*
X7656500Y-17263929D01*
X7627928Y-17278214D01*
X7599357Y-17278214D01*
X7570786Y-17263929D01*
X7556500Y-17249643D01*
X7542214Y-17221072D01*
X7527928Y-17163929D01*
X7527928Y-17092500D01*
X7542214Y-17035357D01*
X7556500Y-17006786D01*
X7570786Y-16992500D01*
X7599357Y-16978214D01*
X7827928Y-17278214D02*
X7827928Y-17078214D01*
X7827928Y-17106786D02*
X7842214Y-17092500D01*
X7870786Y-17078214D01*
X7913643Y-17078214D01*
X7942214Y-17092500D01*
X7956500Y-17121072D01*
X7956500Y-17278214D01*
X7956500Y-17121072D02*
X7970786Y-17092500D01*
X7999357Y-17078214D01*
X8042214Y-17078214D01*
X8070786Y-17092500D01*
X8085071Y-17121072D01*
X8085071Y-17278214D01*
X8227928Y-17278214D02*
X8227928Y-17078214D01*
X8227928Y-17106786D02*
X8242214Y-17092500D01*
X8270786Y-17078214D01*
X8313643Y-17078214D01*
X8342214Y-17092500D01*
X8356500Y-17121072D01*
X8356500Y-17278214D01*
X8356500Y-17121072D02*
X8370786Y-17092500D01*
X8399357Y-17078214D01*
X8442214Y-17078214D01*
X8470786Y-17092500D01*
X8485071Y-17121072D01*
X8485071Y-17278214D01*
X9070786Y-16963929D02*
X8813643Y-17349643D01*
X9456500Y-16978214D02*
X9485071Y-16978214D01*
X9513643Y-16992500D01*
X9527928Y-17006786D01*
X9542214Y-17035357D01*
X9556500Y-17092500D01*
X9556500Y-17163929D01*
X9542214Y-17221072D01*
X9527928Y-17249643D01*
X9513643Y-17263929D01*
X9485071Y-17278214D01*
X9456500Y-17278214D01*
X9427928Y-17263929D01*
X9413643Y-17249643D01*
X9399357Y-17221072D01*
X9385071Y-17163929D01*
X9385071Y-17092500D01*
X9399357Y-17035357D01*
X9413643Y-17006786D01*
X9427928Y-16992500D01*
X9456500Y-16978214D01*
X9685071Y-17249643D02*
X9699357Y-17263929D01*
X9685071Y-17278214D01*
X9670786Y-17263929D01*
X9685071Y-17249643D01*
X9685071Y-17278214D01*
X9885071Y-16978214D02*
X9913643Y-16978214D01*
X9942214Y-16992500D01*
X9956500Y-17006786D01*
X9970786Y-17035357D01*
X9985071Y-17092500D01*
X9985071Y-17163929D01*
X9970786Y-17221072D01*
X9956500Y-17249643D01*
X9942214Y-17263929D01*
X9913643Y-17278214D01*
X9885071Y-17278214D01*
X9856500Y-17263929D01*
X9842214Y-17249643D01*
X9827928Y-17221072D01*
X9813643Y-17163929D01*
X9813643Y-17092500D01*
X9827928Y-17035357D01*
X9842214Y-17006786D01*
X9856500Y-16992500D01*
X9885071Y-16978214D01*
X10085071Y-16978214D02*
X10270786Y-16978214D01*
X10170786Y-17092500D01*
X10213643Y-17092500D01*
X10242214Y-17106786D01*
X10256500Y-17121072D01*
X10270786Y-17149643D01*
X10270786Y-17221072D01*
X10256500Y-17249643D01*
X10242214Y-17263929D01*
X10213643Y-17278214D01*
X10127928Y-17278214D01*
X10099357Y-17263929D01*
X10085071Y-17249643D01*
X10413643Y-17278214D02*
X10470786Y-17278214D01*
X10499357Y-17263929D01*
X10513643Y-17249643D01*
X10542214Y-17206786D01*
X10556500Y-17149643D01*
X10556500Y-17035357D01*
X10542214Y-17006786D01*
X10527928Y-16992500D01*
X10499357Y-16978214D01*
X10442214Y-16978214D01*
X10413643Y-16992500D01*
X10399357Y-17006786D01*
X10385071Y-17035357D01*
X10385071Y-17106786D01*
X10399357Y-17135357D01*
X10413643Y-17149643D01*
X10442214Y-17163929D01*
X10499357Y-17163929D01*
X10527928Y-17149643D01*
X10542214Y-17135357D01*
X10556500Y-17106786D01*
X10670786Y-16978214D02*
X10670786Y-17035357D01*
X10785071Y-16978214D02*
X10785071Y-17035357D01*
X11227928Y-17392500D02*
X11213643Y-17378214D01*
X11185071Y-17335357D01*
X11170786Y-17306786D01*
X11156500Y-17263929D01*
X11142214Y-17192500D01*
X11142214Y-17135357D01*
X11156500Y-17063929D01*
X11170786Y-17021072D01*
X11185071Y-16992500D01*
X11213643Y-16949643D01*
X11227928Y-16935357D01*
X11470786Y-16978214D02*
X11413643Y-16978214D01*
X11385071Y-16992500D01*
X11370786Y-17006786D01*
X11342214Y-17049643D01*
X11327928Y-17106786D01*
X11327928Y-17221072D01*
X11342214Y-17249643D01*
X11356500Y-17263929D01*
X11385071Y-17278214D01*
X11442214Y-17278214D01*
X11470786Y-17263929D01*
X11485071Y-17249643D01*
X11499357Y-17221072D01*
X11499357Y-17149643D01*
X11485071Y-17121072D01*
X11470786Y-17106786D01*
X11442214Y-17092500D01*
X11385071Y-17092500D01*
X11356500Y-17106786D01*
X11342214Y-17121072D01*
X11327928Y-17149643D01*
X11642214Y-17278214D02*
X11699357Y-17278214D01*
X11727928Y-17263929D01*
X11742214Y-17249643D01*
X11770786Y-17206786D01*
X11785071Y-17149643D01*
X11785071Y-17035357D01*
X11770786Y-17006786D01*
X11756500Y-16992500D01*
X11727928Y-16978214D01*
X11670786Y-16978214D01*
X11642214Y-16992500D01*
X11627928Y-17006786D01*
X11613643Y-17035357D01*
X11613643Y-17106786D01*
X11627928Y-17135357D01*
X11642214Y-17149643D01*
X11670786Y-17163929D01*
X11727928Y-17163929D01*
X11756500Y-17149643D01*
X11770786Y-17135357D01*
X11785071Y-17106786D01*
X12142214Y-17278214D02*
X12142214Y-16978214D01*
X12270786Y-17278214D02*
X12270786Y-17121072D01*
X12256500Y-17092500D01*
X12227928Y-17078214D01*
X12185071Y-17078214D01*
X12156500Y-17092500D01*
X12142214Y-17106786D01*
X12456500Y-17278214D02*
X12427928Y-17263929D01*
X12413643Y-17249643D01*
X12399357Y-17221072D01*
X12399357Y-17135357D01*
X12413643Y-17106786D01*
X12427928Y-17092500D01*
X12456500Y-17078214D01*
X12499357Y-17078214D01*
X12527928Y-17092500D01*
X12542214Y-17106786D01*
X12556500Y-17135357D01*
X12556500Y-17221072D01*
X12542214Y-17249643D01*
X12527928Y-17263929D01*
X12499357Y-17278214D01*
X12456500Y-17278214D01*
X12727928Y-17278214D02*
X12699357Y-17263929D01*
X12685071Y-17235357D01*
X12685071Y-16978214D01*
X12956500Y-17263929D02*
X12927928Y-17278214D01*
X12870786Y-17278214D01*
X12842214Y-17263929D01*
X12827928Y-17235357D01*
X12827928Y-17121072D01*
X12842214Y-17092500D01*
X12870786Y-17078214D01*
X12927928Y-17078214D01*
X12956500Y-17092500D01*
X12970786Y-17121072D01*
X12970786Y-17149643D01*
X12827928Y-17178214D01*
X13085071Y-17263929D02*
X13113643Y-17278214D01*
X13170786Y-17278214D01*
X13199357Y-17263929D01*
X13213643Y-17235357D01*
X13213643Y-17221072D01*
X13199357Y-17192500D01*
X13170786Y-17178214D01*
X13127928Y-17178214D01*
X13099357Y-17163929D01*
X13085071Y-17135357D01*
X13085071Y-17121072D01*
X13099357Y-17092500D01*
X13127928Y-17078214D01*
X13170786Y-17078214D01*
X13199357Y-17092500D01*
X13313643Y-17392500D02*
X13327928Y-17378214D01*
X13356500Y-17335357D01*
X13370786Y-17306786D01*
X13385071Y-17263929D01*
X13399357Y-17192500D01*
X13399357Y-17135357D01*
X13385071Y-17063929D01*
X13370786Y-17021072D01*
X13356500Y-16992500D01*
X13327928Y-16949643D01*
X13313643Y-16935357D01*
X6440000Y-17487750D02*
X6541500Y-17589250D01*
X6541500Y-17487750D02*
X6440000Y-17589250D01*
X6526636Y-17574386D02*
X6526636Y-17502614D01*
X6454864Y-17502614D01*
X6454864Y-17574386D01*
X6526636Y-17574386D01*
X6985071Y-17674214D02*
X6813643Y-17674214D01*
X6899357Y-17674214D02*
X6899357Y-17374214D01*
X6870786Y-17417072D01*
X6842214Y-17445643D01*
X6813643Y-17459929D01*
X7113643Y-17645643D02*
X7127928Y-17659929D01*
X7113643Y-17674214D01*
X7099357Y-17659929D01*
X7113643Y-17645643D01*
X7113643Y-17674214D01*
X7313643Y-17374214D02*
X7342214Y-17374214D01*
X7370786Y-17388500D01*
X7385071Y-17402786D01*
X7399357Y-17431357D01*
X7413643Y-17488500D01*
X7413643Y-17559929D01*
X7399357Y-17617072D01*
X7385071Y-17645643D01*
X7370786Y-17659929D01*
X7342214Y-17674214D01*
X7313643Y-17674214D01*
X7285071Y-17659929D01*
X7270786Y-17645643D01*
X7256500Y-17617072D01*
X7242214Y-17559929D01*
X7242214Y-17488500D01*
X7256500Y-17431357D01*
X7270786Y-17402786D01*
X7285071Y-17388500D01*
X7313643Y-17374214D01*
X7699357Y-17674214D02*
X7527928Y-17674214D01*
X7613643Y-17674214D02*
X7613643Y-17374214D01*
X7585071Y-17417072D01*
X7556500Y-17445643D01*
X7527928Y-17459929D01*
X7827928Y-17674214D02*
X7827928Y-17474214D01*
X7827928Y-17502786D02*
X7842214Y-17488500D01*
X7870786Y-17474214D01*
X7913643Y-17474214D01*
X7942214Y-17488500D01*
X7956500Y-17517072D01*
X7956500Y-17674214D01*
X7956500Y-17517072D02*
X7970786Y-17488500D01*
X7999357Y-17474214D01*
X8042214Y-17474214D01*
X8070786Y-17488500D01*
X8085071Y-17517072D01*
X8085071Y-17674214D01*
X8227928Y-17674214D02*
X8227928Y-17474214D01*
X8227928Y-17502786D02*
X8242214Y-17488500D01*
X8270786Y-17474214D01*
X8313643Y-17474214D01*
X8342214Y-17488500D01*
X8356500Y-17517072D01*
X8356500Y-17674214D01*
X8356500Y-17517072D02*
X8370786Y-17488500D01*
X8399357Y-17474214D01*
X8442214Y-17474214D01*
X8470786Y-17488500D01*
X8485071Y-17517072D01*
X8485071Y-17674214D01*
X9070786Y-17359929D02*
X8813643Y-17745643D01*
X9456500Y-17374214D02*
X9485071Y-17374214D01*
X9513643Y-17388500D01*
X9527928Y-17402786D01*
X9542214Y-17431357D01*
X9556500Y-17488500D01*
X9556500Y-17559929D01*
X9542214Y-17617072D01*
X9527928Y-17645643D01*
X9513643Y-17659929D01*
X9485071Y-17674214D01*
X9456500Y-17674214D01*
X9427928Y-17659929D01*
X9413643Y-17645643D01*
X9399357Y-17617072D01*
X9385071Y-17559929D01*
X9385071Y-17488500D01*
X9399357Y-17431357D01*
X9413643Y-17402786D01*
X9427928Y-17388500D01*
X9456500Y-17374214D01*
X9685071Y-17645643D02*
X9699357Y-17659929D01*
X9685071Y-17674214D01*
X9670786Y-17659929D01*
X9685071Y-17645643D01*
X9685071Y-17674214D01*
X9885071Y-17374214D02*
X9913643Y-17374214D01*
X9942214Y-17388500D01*
X9956500Y-17402786D01*
X9970786Y-17431357D01*
X9985071Y-17488500D01*
X9985071Y-17559929D01*
X9970786Y-17617072D01*
X9956500Y-17645643D01*
X9942214Y-17659929D01*
X9913643Y-17674214D01*
X9885071Y-17674214D01*
X9856500Y-17659929D01*
X9842214Y-17645643D01*
X9827928Y-17617072D01*
X9813643Y-17559929D01*
X9813643Y-17488500D01*
X9827928Y-17431357D01*
X9842214Y-17402786D01*
X9856500Y-17388500D01*
X9885071Y-17374214D01*
X10242214Y-17474214D02*
X10242214Y-17674214D01*
X10170786Y-17359929D02*
X10099357Y-17574214D01*
X10285071Y-17574214D01*
X10456500Y-17374214D02*
X10485071Y-17374214D01*
X10513643Y-17388500D01*
X10527928Y-17402786D01*
X10542214Y-17431357D01*
X10556500Y-17488500D01*
X10556500Y-17559929D01*
X10542214Y-17617072D01*
X10527928Y-17645643D01*
X10513643Y-17659929D01*
X10485071Y-17674214D01*
X10456500Y-17674214D01*
X10427928Y-17659929D01*
X10413643Y-17645643D01*
X10399357Y-17617072D01*
X10385071Y-17559929D01*
X10385071Y-17488500D01*
X10399357Y-17431357D01*
X10413643Y-17402786D01*
X10427928Y-17388500D01*
X10456500Y-17374214D01*
X10670786Y-17374214D02*
X10670786Y-17431357D01*
X10785071Y-17374214D02*
X10785071Y-17431357D01*
X11227928Y-17788500D02*
X11213643Y-17774214D01*
X11185071Y-17731357D01*
X11170786Y-17702786D01*
X11156500Y-17659929D01*
X11142214Y-17588500D01*
X11142214Y-17531357D01*
X11156500Y-17459929D01*
X11170786Y-17417072D01*
X11185071Y-17388500D01*
X11213643Y-17345643D01*
X11227928Y-17331357D01*
X11313643Y-17374214D02*
X11499357Y-17374214D01*
X11399357Y-17488500D01*
X11442214Y-17488500D01*
X11470786Y-17502786D01*
X11485071Y-17517072D01*
X11499357Y-17545643D01*
X11499357Y-17617072D01*
X11485071Y-17645643D01*
X11470786Y-17659929D01*
X11442214Y-17674214D01*
X11356500Y-17674214D01*
X11327928Y-17659929D01*
X11313643Y-17645643D01*
X11613643Y-17402786D02*
X11627928Y-17388500D01*
X11656500Y-17374214D01*
X11727928Y-17374214D01*
X11756500Y-17388500D01*
X11770786Y-17402786D01*
X11785071Y-17431357D01*
X11785071Y-17459929D01*
X11770786Y-17502786D01*
X11599357Y-17674214D01*
X11785071Y-17674214D01*
X12142214Y-17674214D02*
X12142214Y-17374214D01*
X12270786Y-17674214D02*
X12270786Y-17517072D01*
X12256500Y-17488500D01*
X12227928Y-17474214D01*
X12185071Y-17474214D01*
X12156500Y-17488500D01*
X12142214Y-17502786D01*
X12456500Y-17674214D02*
X12427928Y-17659929D01*
X12413643Y-17645643D01*
X12399357Y-17617072D01*
X12399357Y-17531357D01*
X12413643Y-17502786D01*
X12427928Y-17488500D01*
X12456500Y-17474214D01*
X12499357Y-17474214D01*
X12527928Y-17488500D01*
X12542214Y-17502786D01*
X12556500Y-17531357D01*
X12556500Y-17617072D01*
X12542214Y-17645643D01*
X12527928Y-17659929D01*
X12499357Y-17674214D01*
X12456500Y-17674214D01*
X12727928Y-17674214D02*
X12699357Y-17659929D01*
X12685071Y-17631357D01*
X12685071Y-17374214D01*
X12956500Y-17659929D02*
X12927928Y-17674214D01*
X12870786Y-17674214D01*
X12842214Y-17659929D01*
X12827928Y-17631357D01*
X12827928Y-17517072D01*
X12842214Y-17488500D01*
X12870786Y-17474214D01*
X12927928Y-17474214D01*
X12956500Y-17488500D01*
X12970786Y-17517072D01*
X12970786Y-17545643D01*
X12827928Y-17574214D01*
X13085071Y-17659929D02*
X13113643Y-17674214D01*
X13170786Y-17674214D01*
X13199357Y-17659929D01*
X13213643Y-17631357D01*
X13213643Y-17617072D01*
X13199357Y-17588500D01*
X13170786Y-17574214D01*
X13127928Y-17574214D01*
X13099357Y-17559929D01*
X13085071Y-17531357D01*
X13085071Y-17517072D01*
X13099357Y-17488500D01*
X13127928Y-17474214D01*
X13170786Y-17474214D01*
X13199357Y-17488500D01*
X13313643Y-17788500D02*
X13327928Y-17774214D01*
X13356500Y-17731357D01*
X13370786Y-17702786D01*
X13385071Y-17659929D01*
X13399357Y-17588500D01*
X13399357Y-17531357D01*
X13385071Y-17459929D01*
X13370786Y-17417072D01*
X13356500Y-17388500D01*
X13327928Y-17345643D01*
X13313643Y-17331357D01*
X6311500Y-17819500D02*
X6541500Y-18049500D01*
X6541500Y-17819500D02*
X6311500Y-18049500D01*
X6426500Y-18049500D02*
X6541500Y-17934500D01*
X6426500Y-17819500D01*
X6311500Y-17934500D01*
X6426500Y-18049500D01*
X6813643Y-17798786D02*
X6827928Y-17784500D01*
X6856500Y-17770214D01*
X6927928Y-17770214D01*
X6956500Y-17784500D01*
X6970786Y-17798786D01*
X6985071Y-17827357D01*
X6985071Y-17855929D01*
X6970786Y-17898786D01*
X6799357Y-18070214D01*
X6985071Y-18070214D01*
X7113643Y-18041643D02*
X7127928Y-18055929D01*
X7113643Y-18070214D01*
X7099357Y-18055929D01*
X7113643Y-18041643D01*
X7113643Y-18070214D01*
X7227928Y-17770214D02*
X7413643Y-17770214D01*
X7313643Y-17884500D01*
X7356500Y-17884500D01*
X7385071Y-17898786D01*
X7399357Y-17913072D01*
X7413643Y-17941643D01*
X7413643Y-18013072D01*
X7399357Y-18041643D01*
X7385071Y-18055929D01*
X7356500Y-18070214D01*
X7270786Y-18070214D01*
X7242214Y-18055929D01*
X7227928Y-18041643D01*
X7599357Y-17770214D02*
X7627928Y-17770214D01*
X7656500Y-17784500D01*
X7670786Y-17798786D01*
X7685071Y-17827357D01*
X7699357Y-17884500D01*
X7699357Y-17955929D01*
X7685071Y-18013072D01*
X7670786Y-18041643D01*
X7656500Y-18055929D01*
X7627928Y-18070214D01*
X7599357Y-18070214D01*
X7570786Y-18055929D01*
X7556500Y-18041643D01*
X7542214Y-18013072D01*
X7527928Y-17955929D01*
X7527928Y-17884500D01*
X7542214Y-17827357D01*
X7556500Y-17798786D01*
X7570786Y-17784500D01*
X7599357Y-17770214D01*
X7827928Y-18070214D02*
X7827928Y-17870214D01*
X7827928Y-17898786D02*
X7842214Y-17884500D01*
X7870786Y-17870214D01*
X7913643Y-17870214D01*
X7942214Y-17884500D01*
X7956500Y-17913072D01*
X7956500Y-18070214D01*
X7956500Y-17913072D02*
X7970786Y-17884500D01*
X7999357Y-17870214D01*
X8042214Y-17870214D01*
X8070786Y-17884500D01*
X8085071Y-17913072D01*
X8085071Y-18070214D01*
X8227928Y-18070214D02*
X8227928Y-17870214D01*
X8227928Y-17898786D02*
X8242214Y-17884500D01*
X8270786Y-17870214D01*
X8313643Y-17870214D01*
X8342214Y-17884500D01*
X8356500Y-17913072D01*
X8356500Y-18070214D01*
X8356500Y-17913072D02*
X8370786Y-17884500D01*
X8399357Y-17870214D01*
X8442214Y-17870214D01*
X8470786Y-17884500D01*
X8485071Y-17913072D01*
X8485071Y-18070214D01*
X9070786Y-17755929D02*
X8813643Y-18141643D01*
X9456500Y-17770214D02*
X9485071Y-17770214D01*
X9513643Y-17784500D01*
X9527928Y-17798786D01*
X9542214Y-17827357D01*
X9556500Y-17884500D01*
X9556500Y-17955929D01*
X9542214Y-18013072D01*
X9527928Y-18041643D01*
X9513643Y-18055929D01*
X9485071Y-18070214D01*
X9456500Y-18070214D01*
X9427928Y-18055929D01*
X9413643Y-18041643D01*
X9399357Y-18013072D01*
X9385071Y-17955929D01*
X9385071Y-17884500D01*
X9399357Y-17827357D01*
X9413643Y-17798786D01*
X9427928Y-17784500D01*
X9456500Y-17770214D01*
X9685071Y-18041643D02*
X9699357Y-18055929D01*
X9685071Y-18070214D01*
X9670786Y-18055929D01*
X9685071Y-18041643D01*
X9685071Y-18070214D01*
X9885071Y-17770214D02*
X9913643Y-17770214D01*
X9942214Y-17784500D01*
X9956500Y-17798786D01*
X9970786Y-17827357D01*
X9985071Y-17884500D01*
X9985071Y-17955929D01*
X9970786Y-18013072D01*
X9956500Y-18041643D01*
X9942214Y-18055929D01*
X9913643Y-18070214D01*
X9885071Y-18070214D01*
X9856500Y-18055929D01*
X9842214Y-18041643D01*
X9827928Y-18013072D01*
X9813643Y-17955929D01*
X9813643Y-17884500D01*
X9827928Y-17827357D01*
X9842214Y-17798786D01*
X9856500Y-17784500D01*
X9885071Y-17770214D01*
X10127928Y-18070214D02*
X10185071Y-18070214D01*
X10213643Y-18055929D01*
X10227928Y-18041643D01*
X10256500Y-17998786D01*
X10270786Y-17941643D01*
X10270786Y-17827357D01*
X10256500Y-17798786D01*
X10242214Y-17784500D01*
X10213643Y-17770214D01*
X10156500Y-17770214D01*
X10127928Y-17784500D01*
X10113643Y-17798786D01*
X10099357Y-17827357D01*
X10099357Y-17898786D01*
X10113643Y-17927357D01*
X10127928Y-17941643D01*
X10156500Y-17955929D01*
X10213643Y-17955929D01*
X10242214Y-17941643D01*
X10256500Y-17927357D01*
X10270786Y-17898786D01*
X10556500Y-18070214D02*
X10385071Y-18070214D01*
X10470786Y-18070214D02*
X10470786Y-17770214D01*
X10442214Y-17813072D01*
X10413643Y-17841643D01*
X10385071Y-17855929D01*
X10670786Y-17770214D02*
X10670786Y-17827357D01*
X10785071Y-17770214D02*
X10785071Y-17827357D01*
X11227928Y-18184500D02*
X11213643Y-18170214D01*
X11185071Y-18127357D01*
X11170786Y-18098786D01*
X11156500Y-18055929D01*
X11142214Y-17984500D01*
X11142214Y-17927357D01*
X11156500Y-17855929D01*
X11170786Y-17813072D01*
X11185071Y-17784500D01*
X11213643Y-17741643D01*
X11227928Y-17727357D01*
X11327928Y-17798786D02*
X11342214Y-17784500D01*
X11370786Y-17770214D01*
X11442214Y-17770214D01*
X11470786Y-17784500D01*
X11485071Y-17798786D01*
X11499357Y-17827357D01*
X11499357Y-17855929D01*
X11485071Y-17898786D01*
X11313643Y-18070214D01*
X11499357Y-18070214D01*
X11856500Y-18070214D02*
X11856500Y-17770214D01*
X11985071Y-18070214D02*
X11985071Y-17913072D01*
X11970786Y-17884500D01*
X11942214Y-17870214D01*
X11899357Y-17870214D01*
X11870786Y-17884500D01*
X11856500Y-17898786D01*
X12170786Y-18070214D02*
X12142214Y-18055929D01*
X12127928Y-18041643D01*
X12113643Y-18013072D01*
X12113643Y-17927357D01*
X12127928Y-17898786D01*
X12142214Y-17884500D01*
X12170786Y-17870214D01*
X12213643Y-17870214D01*
X12242214Y-17884500D01*
X12256500Y-17898786D01*
X12270786Y-17927357D01*
X12270786Y-18013072D01*
X12256500Y-18041643D01*
X12242214Y-18055929D01*
X12213643Y-18070214D01*
X12170786Y-18070214D01*
X12442214Y-18070214D02*
X12413643Y-18055929D01*
X12399357Y-18027357D01*
X12399357Y-17770214D01*
X12670786Y-18055929D02*
X12642214Y-18070214D01*
X12585071Y-18070214D01*
X12556500Y-18055929D01*
X12542214Y-18027357D01*
X12542214Y-17913072D01*
X12556500Y-17884500D01*
X12585071Y-17870214D01*
X12642214Y-17870214D01*
X12670786Y-17884500D01*
X12685071Y-17913072D01*
X12685071Y-17941643D01*
X12542214Y-17970214D01*
X12799357Y-18055929D02*
X12827928Y-18070214D01*
X12885071Y-18070214D01*
X12913643Y-18055929D01*
X12927928Y-18027357D01*
X12927928Y-18013072D01*
X12913643Y-17984500D01*
X12885071Y-17970214D01*
X12842214Y-17970214D01*
X12813643Y-17955929D01*
X12799357Y-17927357D01*
X12799357Y-17913072D01*
X12813643Y-17884500D01*
X12842214Y-17870214D01*
X12885071Y-17870214D01*
X12913643Y-17884500D01*
X13027928Y-18184500D02*
X13042214Y-18170214D01*
X13070786Y-18127357D01*
X13085071Y-18098786D01*
X13099357Y-18055929D01*
X13113643Y-17984500D01*
X13113643Y-17927357D01*
X13099357Y-17855929D01*
X13085071Y-17813072D01*
X13070786Y-17784500D01*
X13042214Y-17741643D01*
X13027928Y-17727357D01*
X6406500Y-18195500D02*
X6406500Y-18465500D01*
X6271500Y-18330500D02*
X6541500Y-18330500D01*
X6541500Y-18330500D02*
G75*
G03X6541500Y-18330500I-135000J0D01*
G01*
X6813643Y-18194786D02*
X6827928Y-18180500D01*
X6856500Y-18166214D01*
X6927928Y-18166214D01*
X6956500Y-18180500D01*
X6970786Y-18194786D01*
X6985071Y-18223357D01*
X6985071Y-18251929D01*
X6970786Y-18294786D01*
X6799357Y-18466214D01*
X6985071Y-18466214D01*
X7113643Y-18437643D02*
X7127928Y-18451929D01*
X7113643Y-18466214D01*
X7099357Y-18451929D01*
X7113643Y-18437643D01*
X7113643Y-18466214D01*
X7227928Y-18166214D02*
X7427928Y-18166214D01*
X7299357Y-18466214D01*
X7599357Y-18166214D02*
X7627928Y-18166214D01*
X7656500Y-18180500D01*
X7670786Y-18194786D01*
X7685071Y-18223357D01*
X7699357Y-18280500D01*
X7699357Y-18351929D01*
X7685071Y-18409072D01*
X7670786Y-18437643D01*
X7656500Y-18451929D01*
X7627928Y-18466214D01*
X7599357Y-18466214D01*
X7570786Y-18451929D01*
X7556500Y-18437643D01*
X7542214Y-18409072D01*
X7527928Y-18351929D01*
X7527928Y-18280500D01*
X7542214Y-18223357D01*
X7556500Y-18194786D01*
X7570786Y-18180500D01*
X7599357Y-18166214D01*
X7827928Y-18466214D02*
X7827928Y-18266214D01*
X7827928Y-18294786D02*
X7842214Y-18280500D01*
X7870786Y-18266214D01*
X7913643Y-18266214D01*
X7942214Y-18280500D01*
X7956500Y-18309072D01*
X7956500Y-18466214D01*
X7956500Y-18309072D02*
X7970786Y-18280500D01*
X7999357Y-18266214D01*
X8042214Y-18266214D01*
X8070786Y-18280500D01*
X8085071Y-18309072D01*
X8085071Y-18466214D01*
X8227928Y-18466214D02*
X8227928Y-18266214D01*
X8227928Y-18294786D02*
X8242214Y-18280500D01*
X8270786Y-18266214D01*
X8313643Y-18266214D01*
X8342214Y-18280500D01*
X8356500Y-18309072D01*
X8356500Y-18466214D01*
X8356500Y-18309072D02*
X8370786Y-18280500D01*
X8399357Y-18266214D01*
X8442214Y-18266214D01*
X8470786Y-18280500D01*
X8485071Y-18309072D01*
X8485071Y-18466214D01*
X9070786Y-18151929D02*
X8813643Y-18537643D01*
X9456500Y-18166214D02*
X9485071Y-18166214D01*
X9513643Y-18180500D01*
X9527928Y-18194786D01*
X9542214Y-18223357D01*
X9556500Y-18280500D01*
X9556500Y-18351929D01*
X9542214Y-18409072D01*
X9527928Y-18437643D01*
X9513643Y-18451929D01*
X9485071Y-18466214D01*
X9456500Y-18466214D01*
X9427928Y-18451929D01*
X9413643Y-18437643D01*
X9399357Y-18409072D01*
X9385071Y-18351929D01*
X9385071Y-18280500D01*
X9399357Y-18223357D01*
X9413643Y-18194786D01*
X9427928Y-18180500D01*
X9456500Y-18166214D01*
X9685071Y-18437643D02*
X9699357Y-18451929D01*
X9685071Y-18466214D01*
X9670786Y-18451929D01*
X9685071Y-18437643D01*
X9685071Y-18466214D01*
X9985071Y-18466214D02*
X9813643Y-18466214D01*
X9899357Y-18466214D02*
X9899357Y-18166214D01*
X9870786Y-18209072D01*
X9842214Y-18237643D01*
X9813643Y-18251929D01*
X10170786Y-18166214D02*
X10199357Y-18166214D01*
X10227928Y-18180500D01*
X10242214Y-18194786D01*
X10256500Y-18223357D01*
X10270786Y-18280500D01*
X10270786Y-18351929D01*
X10256500Y-18409072D01*
X10242214Y-18437643D01*
X10227928Y-18451929D01*
X10199357Y-18466214D01*
X10170786Y-18466214D01*
X10142214Y-18451929D01*
X10127928Y-18437643D01*
X10113643Y-18409072D01*
X10099357Y-18351929D01*
X10099357Y-18280500D01*
X10113643Y-18223357D01*
X10127928Y-18194786D01*
X10142214Y-18180500D01*
X10170786Y-18166214D01*
X10527928Y-18166214D02*
X10470786Y-18166214D01*
X10442214Y-18180500D01*
X10427928Y-18194786D01*
X10399357Y-18237643D01*
X10385071Y-18294786D01*
X10385071Y-18409072D01*
X10399357Y-18437643D01*
X10413643Y-18451929D01*
X10442214Y-18466214D01*
X10499357Y-18466214D01*
X10527928Y-18451929D01*
X10542214Y-18437643D01*
X10556500Y-18409072D01*
X10556500Y-18337643D01*
X10542214Y-18309072D01*
X10527928Y-18294786D01*
X10499357Y-18280500D01*
X10442214Y-18280500D01*
X10413643Y-18294786D01*
X10399357Y-18309072D01*
X10385071Y-18337643D01*
X10670786Y-18166214D02*
X10670786Y-18223357D01*
X10785071Y-18166214D02*
X10785071Y-18223357D01*
X11227928Y-18580500D02*
X11213643Y-18566214D01*
X11185071Y-18523357D01*
X11170786Y-18494786D01*
X11156500Y-18451929D01*
X11142214Y-18380500D01*
X11142214Y-18323357D01*
X11156500Y-18251929D01*
X11170786Y-18209072D01*
X11185071Y-18180500D01*
X11213643Y-18137643D01*
X11227928Y-18123357D01*
X11470786Y-18266214D02*
X11470786Y-18466214D01*
X11399357Y-18151929D02*
X11327928Y-18366214D01*
X11513643Y-18366214D01*
X11856500Y-18466214D02*
X11856500Y-18166214D01*
X11985071Y-18466214D02*
X11985071Y-18309072D01*
X11970786Y-18280500D01*
X11942214Y-18266214D01*
X11899357Y-18266214D01*
X11870786Y-18280500D01*
X11856500Y-18294786D01*
X12170786Y-18466214D02*
X12142214Y-18451929D01*
X12127928Y-18437643D01*
X12113643Y-18409072D01*
X12113643Y-18323357D01*
X12127928Y-18294786D01*
X12142214Y-18280500D01*
X12170786Y-18266214D01*
X12213643Y-18266214D01*
X12242214Y-18280500D01*
X12256500Y-18294786D01*
X12270786Y-18323357D01*
X12270786Y-18409072D01*
X12256500Y-18437643D01*
X12242214Y-18451929D01*
X12213643Y-18466214D01*
X12170786Y-18466214D01*
X12442214Y-18466214D02*
X12413643Y-18451929D01*
X12399357Y-18423357D01*
X12399357Y-18166214D01*
X12670786Y-18451929D02*
X12642214Y-18466214D01*
X12585071Y-18466214D01*
X12556500Y-18451929D01*
X12542214Y-18423357D01*
X12542214Y-18309072D01*
X12556500Y-18280500D01*
X12585071Y-18266214D01*
X12642214Y-18266214D01*
X12670786Y-18280500D01*
X12685071Y-18309072D01*
X12685071Y-18337643D01*
X12542214Y-18366214D01*
X12799357Y-18451929D02*
X12827928Y-18466214D01*
X12885071Y-18466214D01*
X12913643Y-18451929D01*
X12927928Y-18423357D01*
X12927928Y-18409072D01*
X12913643Y-18380500D01*
X12885071Y-18366214D01*
X12842214Y-18366214D01*
X12813643Y-18351929D01*
X12799357Y-18323357D01*
X12799357Y-18309072D01*
X12813643Y-18280500D01*
X12842214Y-18266214D01*
X12885071Y-18266214D01*
X12913643Y-18280500D01*
X13027928Y-18580500D02*
X13042214Y-18566214D01*
X13070786Y-18523357D01*
X13085071Y-18494786D01*
X13099357Y-18451929D01*
X13113643Y-18380500D01*
X13113643Y-18323357D01*
X13099357Y-18251929D01*
X13085071Y-18209072D01*
X13070786Y-18180500D01*
X13042214Y-18137643D01*
X13027928Y-18123357D01*
X6530517Y-18757017D02*
X6530517Y-18703983D01*
X6477483Y-18703983D01*
X6477483Y-18757017D01*
X6530517Y-18757017D01*
X6541500Y-18730500D02*
G75*
G03X6541500Y-18730500I-37500J0D01*
G01*
X6885071Y-18566214D02*
X6913643Y-18566214D01*
X6942214Y-18580500D01*
X6956500Y-18594786D01*
X6970786Y-18623357D01*
X6985071Y-18680500D01*
X6985071Y-18751929D01*
X6970786Y-18809072D01*
X6956500Y-18837643D01*
X6942214Y-18851929D01*
X6913643Y-18866214D01*
X6885071Y-18866214D01*
X6856500Y-18851929D01*
X6842214Y-18837643D01*
X6827928Y-18809072D01*
X6813643Y-18751929D01*
X6813643Y-18680500D01*
X6827928Y-18623357D01*
X6842214Y-18594786D01*
X6856500Y-18580500D01*
X6885071Y-18566214D01*
X7113643Y-18837643D02*
X7127928Y-18851929D01*
X7113643Y-18866214D01*
X7099357Y-18851929D01*
X7113643Y-18837643D01*
X7113643Y-18866214D01*
X7227928Y-18566214D02*
X7427928Y-18566214D01*
X7299357Y-18866214D01*
X7685071Y-18566214D02*
X7542214Y-18566214D01*
X7527928Y-18709072D01*
X7542214Y-18694786D01*
X7570786Y-18680500D01*
X7642214Y-18680500D01*
X7670786Y-18694786D01*
X7685071Y-18709072D01*
X7699357Y-18737643D01*
X7699357Y-18809072D01*
X7685071Y-18837643D01*
X7670786Y-18851929D01*
X7642214Y-18866214D01*
X7570786Y-18866214D01*
X7542214Y-18851929D01*
X7527928Y-18837643D01*
X7827928Y-18866214D02*
X7827928Y-18666214D01*
X7827928Y-18694786D02*
X7842214Y-18680500D01*
X7870786Y-18666214D01*
X7913643Y-18666214D01*
X7942214Y-18680500D01*
X7956500Y-18709072D01*
X7956500Y-18866214D01*
X7956500Y-18709072D02*
X7970786Y-18680500D01*
X7999357Y-18666214D01*
X8042214Y-18666214D01*
X8070786Y-18680500D01*
X8085071Y-18709072D01*
X8085071Y-18866214D01*
X8227928Y-18866214D02*
X8227928Y-18666214D01*
X8227928Y-18694786D02*
X8242214Y-18680500D01*
X8270786Y-18666214D01*
X8313643Y-18666214D01*
X8342214Y-18680500D01*
X8356500Y-18709072D01*
X8356500Y-18866214D01*
X8356500Y-18709072D02*
X8370786Y-18680500D01*
X8399357Y-18666214D01*
X8442214Y-18666214D01*
X8470786Y-18680500D01*
X8485071Y-18709072D01*
X8485071Y-18866214D01*
X9070786Y-18551929D02*
X8813643Y-18937643D01*
X9456500Y-18566214D02*
X9485071Y-18566214D01*
X9513643Y-18580500D01*
X9527928Y-18594786D01*
X9542214Y-18623357D01*
X9556500Y-18680500D01*
X9556500Y-18751929D01*
X9542214Y-18809072D01*
X9527928Y-18837643D01*
X9513643Y-18851929D01*
X9485071Y-18866214D01*
X9456500Y-18866214D01*
X9427928Y-18851929D01*
X9413643Y-18837643D01*
X9399357Y-18809072D01*
X9385071Y-18751929D01*
X9385071Y-18680500D01*
X9399357Y-18623357D01*
X9413643Y-18594786D01*
X9427928Y-18580500D01*
X9456500Y-18566214D01*
X9685071Y-18837643D02*
X9699357Y-18851929D01*
X9685071Y-18866214D01*
X9670786Y-18851929D01*
X9685071Y-18837643D01*
X9685071Y-18866214D01*
X9885071Y-18566214D02*
X9913643Y-18566214D01*
X9942214Y-18580500D01*
X9956500Y-18594786D01*
X9970786Y-18623357D01*
X9985071Y-18680500D01*
X9985071Y-18751929D01*
X9970786Y-18809072D01*
X9956500Y-18837643D01*
X9942214Y-18851929D01*
X9913643Y-18866214D01*
X9885071Y-18866214D01*
X9856500Y-18851929D01*
X9842214Y-18837643D01*
X9827928Y-18809072D01*
X9813643Y-18751929D01*
X9813643Y-18680500D01*
X9827928Y-18623357D01*
X9842214Y-18594786D01*
X9856500Y-18580500D01*
X9885071Y-18566214D01*
X10085071Y-18566214D02*
X10270786Y-18566214D01*
X10170786Y-18680500D01*
X10213643Y-18680500D01*
X10242214Y-18694786D01*
X10256500Y-18709072D01*
X10270786Y-18737643D01*
X10270786Y-18809072D01*
X10256500Y-18837643D01*
X10242214Y-18851929D01*
X10213643Y-18866214D01*
X10127928Y-18866214D01*
X10099357Y-18851929D01*
X10085071Y-18837643D01*
X10456500Y-18566214D02*
X10485071Y-18566214D01*
X10513643Y-18580500D01*
X10527928Y-18594786D01*
X10542214Y-18623357D01*
X10556500Y-18680500D01*
X10556500Y-18751929D01*
X10542214Y-18809072D01*
X10527928Y-18837643D01*
X10513643Y-18851929D01*
X10485071Y-18866214D01*
X10456500Y-18866214D01*
X10427928Y-18851929D01*
X10413643Y-18837643D01*
X10399357Y-18809072D01*
X10385071Y-18751929D01*
X10385071Y-18680500D01*
X10399357Y-18623357D01*
X10413643Y-18594786D01*
X10427928Y-18580500D01*
X10456500Y-18566214D01*
X10670786Y-18566214D02*
X10670786Y-18623357D01*
X10785071Y-18566214D02*
X10785071Y-18623357D01*
X11227928Y-18980500D02*
X11213643Y-18966214D01*
X11185071Y-18923357D01*
X11170786Y-18894786D01*
X11156500Y-18851929D01*
X11142214Y-18780500D01*
X11142214Y-18723357D01*
X11156500Y-18651929D01*
X11170786Y-18609072D01*
X11185071Y-18580500D01*
X11213643Y-18537643D01*
X11227928Y-18523357D01*
X11470786Y-18566214D02*
X11413643Y-18566214D01*
X11385071Y-18580500D01*
X11370786Y-18594786D01*
X11342214Y-18637643D01*
X11327928Y-18694786D01*
X11327928Y-18809072D01*
X11342214Y-18837643D01*
X11356500Y-18851929D01*
X11385071Y-18866214D01*
X11442214Y-18866214D01*
X11470786Y-18851929D01*
X11485071Y-18837643D01*
X11499357Y-18809072D01*
X11499357Y-18737643D01*
X11485071Y-18709072D01*
X11470786Y-18694786D01*
X11442214Y-18680500D01*
X11385071Y-18680500D01*
X11356500Y-18694786D01*
X11342214Y-18709072D01*
X11327928Y-18737643D01*
X11856500Y-18866214D02*
X11856500Y-18566214D01*
X11985071Y-18866214D02*
X11985071Y-18709072D01*
X11970786Y-18680500D01*
X11942214Y-18666214D01*
X11899357Y-18666214D01*
X11870786Y-18680500D01*
X11856500Y-18694786D01*
X12170786Y-18866214D02*
X12142214Y-18851929D01*
X12127928Y-18837643D01*
X12113643Y-18809072D01*
X12113643Y-18723357D01*
X12127928Y-18694786D01*
X12142214Y-18680500D01*
X12170786Y-18666214D01*
X12213643Y-18666214D01*
X12242214Y-18680500D01*
X12256500Y-18694786D01*
X12270786Y-18723357D01*
X12270786Y-18809072D01*
X12256500Y-18837643D01*
X12242214Y-18851929D01*
X12213643Y-18866214D01*
X12170786Y-18866214D01*
X12442214Y-18866214D02*
X12413643Y-18851929D01*
X12399357Y-18823357D01*
X12399357Y-18566214D01*
X12670786Y-18851929D02*
X12642214Y-18866214D01*
X12585071Y-18866214D01*
X12556500Y-18851929D01*
X12542214Y-18823357D01*
X12542214Y-18709072D01*
X12556500Y-18680500D01*
X12585071Y-18666214D01*
X12642214Y-18666214D01*
X12670786Y-18680500D01*
X12685071Y-18709072D01*
X12685071Y-18737643D01*
X12542214Y-18766214D01*
X12799357Y-18851929D02*
X12827928Y-18866214D01*
X12885071Y-18866214D01*
X12913643Y-18851929D01*
X12927928Y-18823357D01*
X12927928Y-18809072D01*
X12913643Y-18780500D01*
X12885071Y-18766214D01*
X12842214Y-18766214D01*
X12813643Y-18751929D01*
X12799357Y-18723357D01*
X12799357Y-18709072D01*
X12813643Y-18680500D01*
X12842214Y-18666214D01*
X12885071Y-18666214D01*
X12913643Y-18680500D01*
X13027928Y-18980500D02*
X13042214Y-18966214D01*
X13070786Y-18923357D01*
X13085071Y-18894786D01*
X13099357Y-18851929D01*
X13113643Y-18780500D01*
X13113643Y-18723357D01*
X13099357Y-18651929D01*
X13085071Y-18609072D01*
X13070786Y-18580500D01*
X13042214Y-18537643D01*
X13027928Y-18523357D01*
X13570786Y-18980500D02*
X13556500Y-18966214D01*
X13527928Y-18923357D01*
X13513643Y-18894786D01*
X13499357Y-18851929D01*
X13485071Y-18780500D01*
X13485071Y-18723357D01*
X13499357Y-18651929D01*
X13513643Y-18609072D01*
X13527928Y-18580500D01*
X13556500Y-18537643D01*
X13570786Y-18523357D01*
X13685071Y-18666214D02*
X13685071Y-18866214D01*
X13685071Y-18694786D02*
X13699357Y-18680500D01*
X13727928Y-18666214D01*
X13770786Y-18666214D01*
X13799357Y-18680500D01*
X13813643Y-18709072D01*
X13813643Y-18866214D01*
X13999357Y-18866214D02*
X13970786Y-18851929D01*
X13956500Y-18837643D01*
X13942214Y-18809072D01*
X13942214Y-18723357D01*
X13956500Y-18694786D01*
X13970786Y-18680500D01*
X13999357Y-18666214D01*
X14042214Y-18666214D01*
X14070786Y-18680500D01*
X14085071Y-18694786D01*
X14099357Y-18723357D01*
X14099357Y-18809072D01*
X14085071Y-18837643D01*
X14070786Y-18851929D01*
X14042214Y-18866214D01*
X13999357Y-18866214D01*
X14185071Y-18666214D02*
X14299357Y-18666214D01*
X14227928Y-18566214D02*
X14227928Y-18823357D01*
X14242214Y-18851929D01*
X14270786Y-18866214D01*
X14299357Y-18866214D01*
X14627928Y-18666214D02*
X14627928Y-18966214D01*
X14627928Y-18680500D02*
X14656500Y-18666214D01*
X14713643Y-18666214D01*
X14742214Y-18680500D01*
X14756500Y-18694786D01*
X14770786Y-18723357D01*
X14770786Y-18809072D01*
X14756500Y-18837643D01*
X14742214Y-18851929D01*
X14713643Y-18866214D01*
X14656500Y-18866214D01*
X14627928Y-18851929D01*
X14942214Y-18866214D02*
X14913643Y-18851929D01*
X14899357Y-18823357D01*
X14899357Y-18566214D01*
X15185071Y-18866214D02*
X15185071Y-18709072D01*
X15170786Y-18680500D01*
X15142214Y-18666214D01*
X15085071Y-18666214D01*
X15056500Y-18680500D01*
X15185071Y-18851929D02*
X15156500Y-18866214D01*
X15085071Y-18866214D01*
X15056500Y-18851929D01*
X15042214Y-18823357D01*
X15042214Y-18794786D01*
X15056500Y-18766214D01*
X15085071Y-18751929D01*
X15156500Y-18751929D01*
X15185071Y-18737643D01*
X15285071Y-18666214D02*
X15399357Y-18666214D01*
X15327928Y-18566214D02*
X15327928Y-18823357D01*
X15342214Y-18851929D01*
X15370786Y-18866214D01*
X15399357Y-18866214D01*
X15613643Y-18851929D02*
X15585071Y-18866214D01*
X15527928Y-18866214D01*
X15499357Y-18851929D01*
X15485071Y-18823357D01*
X15485071Y-18709072D01*
X15499357Y-18680500D01*
X15527928Y-18666214D01*
X15585071Y-18666214D01*
X15613643Y-18680500D01*
X15627928Y-18709072D01*
X15627928Y-18737643D01*
X15485071Y-18766214D01*
X15885071Y-18866214D02*
X15885071Y-18566214D01*
X15885071Y-18851929D02*
X15856500Y-18866214D01*
X15799357Y-18866214D01*
X15770786Y-18851929D01*
X15756500Y-18837643D01*
X15742214Y-18809072D01*
X15742214Y-18723357D01*
X15756500Y-18694786D01*
X15770786Y-18680500D01*
X15799357Y-18666214D01*
X15856500Y-18666214D01*
X15885071Y-18680500D01*
X15999357Y-18980500D02*
X16013643Y-18966214D01*
X16042214Y-18923357D01*
X16056500Y-18894786D01*
X16070786Y-18851929D01*
X16085071Y-18780500D01*
X16085071Y-18723357D01*
X16070786Y-18651929D01*
X16056500Y-18609072D01*
X16042214Y-18580500D01*
X16013643Y-18537643D01*
X15999357Y-18523357D01*
X6429000Y-19239000D02*
X6541500Y-19126500D01*
X6429000Y-19014000D01*
X6316500Y-19126500D01*
X6429000Y-19239000D01*
X6541500Y-19126500D02*
G75*
G03X6541500Y-19126500I-112500J0D01*
G01*
X6813643Y-18990786D02*
X6827928Y-18976500D01*
X6856500Y-18962214D01*
X6927928Y-18962214D01*
X6956500Y-18976500D01*
X6970786Y-18990786D01*
X6985071Y-19019357D01*
X6985071Y-19047929D01*
X6970786Y-19090786D01*
X6799357Y-19262214D01*
X6985071Y-19262214D01*
X7113643Y-19233643D02*
X7127928Y-19247929D01*
X7113643Y-19262214D01*
X7099357Y-19247929D01*
X7113643Y-19233643D01*
X7113643Y-19262214D01*
X7242214Y-18990786D02*
X7256500Y-18976500D01*
X7285071Y-18962214D01*
X7356500Y-18962214D01*
X7385071Y-18976500D01*
X7399357Y-18990786D01*
X7413643Y-19019357D01*
X7413643Y-19047929D01*
X7399357Y-19090786D01*
X7227928Y-19262214D01*
X7413643Y-19262214D01*
X7685071Y-18962214D02*
X7542214Y-18962214D01*
X7527928Y-19105072D01*
X7542214Y-19090786D01*
X7570786Y-19076500D01*
X7642214Y-19076500D01*
X7670786Y-19090786D01*
X7685071Y-19105072D01*
X7699357Y-19133643D01*
X7699357Y-19205072D01*
X7685071Y-19233643D01*
X7670786Y-19247929D01*
X7642214Y-19262214D01*
X7570786Y-19262214D01*
X7542214Y-19247929D01*
X7527928Y-19233643D01*
X7827928Y-19262214D02*
X7827928Y-19062214D01*
X7827928Y-19090786D02*
X7842214Y-19076500D01*
X7870786Y-19062214D01*
X7913643Y-19062214D01*
X7942214Y-19076500D01*
X7956500Y-19105072D01*
X7956500Y-19262214D01*
X7956500Y-19105072D02*
X7970786Y-19076500D01*
X7999357Y-19062214D01*
X8042214Y-19062214D01*
X8070786Y-19076500D01*
X8085071Y-19105072D01*
X8085071Y-19262214D01*
X8227928Y-19262214D02*
X8227928Y-19062214D01*
X8227928Y-19090786D02*
X8242214Y-19076500D01*
X8270786Y-19062214D01*
X8313643Y-19062214D01*
X8342214Y-19076500D01*
X8356500Y-19105072D01*
X8356500Y-19262214D01*
X8356500Y-19105072D02*
X8370786Y-19076500D01*
X8399357Y-19062214D01*
X8442214Y-19062214D01*
X8470786Y-19076500D01*
X8485071Y-19105072D01*
X8485071Y-19262214D01*
X9070786Y-18947929D02*
X8813643Y-19333643D01*
X9456500Y-18962214D02*
X9485071Y-18962214D01*
X9513643Y-18976500D01*
X9527928Y-18990786D01*
X9542214Y-19019357D01*
X9556500Y-19076500D01*
X9556500Y-19147929D01*
X9542214Y-19205072D01*
X9527928Y-19233643D01*
X9513643Y-19247929D01*
X9485071Y-19262214D01*
X9456500Y-19262214D01*
X9427928Y-19247929D01*
X9413643Y-19233643D01*
X9399357Y-19205072D01*
X9385071Y-19147929D01*
X9385071Y-19076500D01*
X9399357Y-19019357D01*
X9413643Y-18990786D01*
X9427928Y-18976500D01*
X9456500Y-18962214D01*
X9685071Y-19233643D02*
X9699357Y-19247929D01*
X9685071Y-19262214D01*
X9670786Y-19247929D01*
X9685071Y-19233643D01*
X9685071Y-19262214D01*
X9885071Y-18962214D02*
X9913643Y-18962214D01*
X9942214Y-18976500D01*
X9956500Y-18990786D01*
X9970786Y-19019357D01*
X9985071Y-19076500D01*
X9985071Y-19147929D01*
X9970786Y-19205072D01*
X9956500Y-19233643D01*
X9942214Y-19247929D01*
X9913643Y-19262214D01*
X9885071Y-19262214D01*
X9856500Y-19247929D01*
X9842214Y-19233643D01*
X9827928Y-19205072D01*
X9813643Y-19147929D01*
X9813643Y-19076500D01*
X9827928Y-19019357D01*
X9842214Y-18990786D01*
X9856500Y-18976500D01*
X9885071Y-18962214D01*
X10156500Y-19090786D02*
X10127928Y-19076500D01*
X10113643Y-19062214D01*
X10099357Y-19033643D01*
X10099357Y-19019357D01*
X10113643Y-18990786D01*
X10127928Y-18976500D01*
X10156500Y-18962214D01*
X10213643Y-18962214D01*
X10242214Y-18976500D01*
X10256500Y-18990786D01*
X10270786Y-19019357D01*
X10270786Y-19033643D01*
X10256500Y-19062214D01*
X10242214Y-19076500D01*
X10213643Y-19090786D01*
X10156500Y-19090786D01*
X10127928Y-19105072D01*
X10113643Y-19119357D01*
X10099357Y-19147929D01*
X10099357Y-19205072D01*
X10113643Y-19233643D01*
X10127928Y-19247929D01*
X10156500Y-19262214D01*
X10213643Y-19262214D01*
X10242214Y-19247929D01*
X10256500Y-19233643D01*
X10270786Y-19205072D01*
X10270786Y-19147929D01*
X10256500Y-19119357D01*
X10242214Y-19105072D01*
X10213643Y-19090786D01*
X10413643Y-19262214D02*
X10470786Y-19262214D01*
X10499357Y-19247929D01*
X10513643Y-19233643D01*
X10542214Y-19190786D01*
X10556500Y-19133643D01*
X10556500Y-19019357D01*
X10542214Y-18990786D01*
X10527928Y-18976500D01*
X10499357Y-18962214D01*
X10442214Y-18962214D01*
X10413643Y-18976500D01*
X10399357Y-18990786D01*
X10385071Y-19019357D01*
X10385071Y-19090786D01*
X10399357Y-19119357D01*
X10413643Y-19133643D01*
X10442214Y-19147929D01*
X10499357Y-19147929D01*
X10527928Y-19133643D01*
X10542214Y-19119357D01*
X10556500Y-19090786D01*
X10670786Y-18962214D02*
X10670786Y-19019357D01*
X10785071Y-18962214D02*
X10785071Y-19019357D01*
X11227928Y-19376500D02*
X11213643Y-19362214D01*
X11185071Y-19319357D01*
X11170786Y-19290786D01*
X11156500Y-19247929D01*
X11142214Y-19176500D01*
X11142214Y-19119357D01*
X11156500Y-19047929D01*
X11170786Y-19005072D01*
X11185071Y-18976500D01*
X11213643Y-18933643D01*
X11227928Y-18919357D01*
X11327928Y-18990786D02*
X11342214Y-18976500D01*
X11370786Y-18962214D01*
X11442214Y-18962214D01*
X11470786Y-18976500D01*
X11485071Y-18990786D01*
X11499357Y-19019357D01*
X11499357Y-19047929D01*
X11485071Y-19090786D01*
X11313643Y-19262214D01*
X11499357Y-19262214D01*
X11856500Y-19262214D02*
X11856500Y-18962214D01*
X11985071Y-19262214D02*
X11985071Y-19105072D01*
X11970786Y-19076500D01*
X11942214Y-19062214D01*
X11899357Y-19062214D01*
X11870786Y-19076500D01*
X11856500Y-19090786D01*
X12170786Y-19262214D02*
X12142214Y-19247929D01*
X12127928Y-19233643D01*
X12113643Y-19205072D01*
X12113643Y-19119357D01*
X12127928Y-19090786D01*
X12142214Y-19076500D01*
X12170786Y-19062214D01*
X12213643Y-19062214D01*
X12242214Y-19076500D01*
X12256500Y-19090786D01*
X12270786Y-19119357D01*
X12270786Y-19205072D01*
X12256500Y-19233643D01*
X12242214Y-19247929D01*
X12213643Y-19262214D01*
X12170786Y-19262214D01*
X12442214Y-19262214D02*
X12413643Y-19247929D01*
X12399357Y-19219357D01*
X12399357Y-18962214D01*
X12670786Y-19247929D02*
X12642214Y-19262214D01*
X12585071Y-19262214D01*
X12556500Y-19247929D01*
X12542214Y-19219357D01*
X12542214Y-19105072D01*
X12556500Y-19076500D01*
X12585071Y-19062214D01*
X12642214Y-19062214D01*
X12670786Y-19076500D01*
X12685071Y-19105072D01*
X12685071Y-19133643D01*
X12542214Y-19162214D01*
X12799357Y-19247929D02*
X12827928Y-19262214D01*
X12885071Y-19262214D01*
X12913643Y-19247929D01*
X12927928Y-19219357D01*
X12927928Y-19205072D01*
X12913643Y-19176500D01*
X12885071Y-19162214D01*
X12842214Y-19162214D01*
X12813643Y-19147929D01*
X12799357Y-19119357D01*
X12799357Y-19105072D01*
X12813643Y-19076500D01*
X12842214Y-19062214D01*
X12885071Y-19062214D01*
X12913643Y-19076500D01*
X13027928Y-19376500D02*
X13042214Y-19362214D01*
X13070786Y-19319357D01*
X13085071Y-19290786D01*
X13099357Y-19247929D01*
X13113643Y-19176500D01*
X13113643Y-19119357D01*
X13099357Y-19047929D01*
X13085071Y-19005072D01*
X13070786Y-18976500D01*
X13042214Y-18933643D01*
X13027928Y-18919357D01*
X13570786Y-19376500D02*
X13556500Y-19362214D01*
X13527928Y-19319357D01*
X13513643Y-19290786D01*
X13499357Y-19247929D01*
X13485071Y-19176500D01*
X13485071Y-19119357D01*
X13499357Y-19047929D01*
X13513643Y-19005072D01*
X13527928Y-18976500D01*
X13556500Y-18933643D01*
X13570786Y-18919357D01*
X13685071Y-19062214D02*
X13685071Y-19262214D01*
X13685071Y-19090786D02*
X13699357Y-19076500D01*
X13727928Y-19062214D01*
X13770786Y-19062214D01*
X13799357Y-19076500D01*
X13813643Y-19105072D01*
X13813643Y-19262214D01*
X13999357Y-19262214D02*
X13970786Y-19247929D01*
X13956500Y-19233643D01*
X13942214Y-19205072D01*
X13942214Y-19119357D01*
X13956500Y-19090786D01*
X13970786Y-19076500D01*
X13999357Y-19062214D01*
X14042214Y-19062214D01*
X14070786Y-19076500D01*
X14085071Y-19090786D01*
X14099357Y-19119357D01*
X14099357Y-19205072D01*
X14085071Y-19233643D01*
X14070786Y-19247929D01*
X14042214Y-19262214D01*
X13999357Y-19262214D01*
X14185071Y-19062214D02*
X14299357Y-19062214D01*
X14227928Y-18962214D02*
X14227928Y-19219357D01*
X14242214Y-19247929D01*
X14270786Y-19262214D01*
X14299357Y-19262214D01*
X14627928Y-19062214D02*
X14627928Y-19362214D01*
X14627928Y-19076500D02*
X14656500Y-19062214D01*
X14713643Y-19062214D01*
X14742214Y-19076500D01*
X14756500Y-19090786D01*
X14770786Y-19119357D01*
X14770786Y-19205072D01*
X14756500Y-19233643D01*
X14742214Y-19247929D01*
X14713643Y-19262214D01*
X14656500Y-19262214D01*
X14627928Y-19247929D01*
X14942214Y-19262214D02*
X14913643Y-19247929D01*
X14899357Y-19219357D01*
X14899357Y-18962214D01*
X15185071Y-19262214D02*
X15185071Y-19105072D01*
X15170786Y-19076500D01*
X15142214Y-19062214D01*
X15085071Y-19062214D01*
X15056500Y-19076500D01*
X15185071Y-19247929D02*
X15156500Y-19262214D01*
X15085071Y-19262214D01*
X15056500Y-19247929D01*
X15042214Y-19219357D01*
X15042214Y-19190786D01*
X15056500Y-19162214D01*
X15085071Y-19147929D01*
X15156500Y-19147929D01*
X15185071Y-19133643D01*
X15285071Y-19062214D02*
X15399357Y-19062214D01*
X15327928Y-18962214D02*
X15327928Y-19219357D01*
X15342214Y-19247929D01*
X15370786Y-19262214D01*
X15399357Y-19262214D01*
X15613643Y-19247929D02*
X15585071Y-19262214D01*
X15527928Y-19262214D01*
X15499357Y-19247929D01*
X15485071Y-19219357D01*
X15485071Y-19105072D01*
X15499357Y-19076500D01*
X15527928Y-19062214D01*
X15585071Y-19062214D01*
X15613643Y-19076500D01*
X15627928Y-19105072D01*
X15627928Y-19133643D01*
X15485071Y-19162214D01*
X15885071Y-19262214D02*
X15885071Y-18962214D01*
X15885071Y-19247929D02*
X15856500Y-19262214D01*
X15799357Y-19262214D01*
X15770786Y-19247929D01*
X15756500Y-19233643D01*
X15742214Y-19205072D01*
X15742214Y-19119357D01*
X15756500Y-19090786D01*
X15770786Y-19076500D01*
X15799357Y-19062214D01*
X15856500Y-19062214D01*
X15885071Y-19076500D01*
X15999357Y-19376500D02*
X16013643Y-19362214D01*
X16042214Y-19319357D01*
X16056500Y-19290786D01*
X16070786Y-19247929D01*
X16085071Y-19176500D01*
X16085071Y-19119357D01*
X16070786Y-19047929D01*
X16056500Y-19005072D01*
X16042214Y-18976500D01*
X16013643Y-18933643D01*
X15999357Y-18919357D01*
M02*
