M48
; DRILL file {KiCad 5.1.0-unknown-ef3f773~94~ubuntu18.04.1} date vie 07 jun 2019 15:37:40 -05
; FORMAT={-:-/ absolute / inch / decimal}
; #@! TF.CreationDate,2019-06-07T15:37:40-05:00
; #@! TF.GenerationSoftware,Kicad,Pcbnew,5.1.0-unknown-ef3f773~94~ubuntu18.04.1
FMAT,2
INCH
T1C0.0118
T2C0.0157
T3C0.0177
T4C0.0197
T5C0.0217
T6C0.0354
T7C0.0394
T8C0.0400
T9C0.0906
T10C0.1063
T11C0.0295
T12C0.0886
%
G90
G05
T1
X2.8524Y-2.1524
X2.878Y-2.0098
X3.0404Y-1.978
X3.0906Y-2.1457
X3.0945Y-2.0276
X3.1102Y-3.7795
X3.1102Y-3.8976
X3.1625Y-1.7809
X3.1654Y-2.315
X3.1831Y-1.7992
X3.1892Y-2.9081
X3.2047Y-1.9567
X3.2283Y-3.7795
X3.2283Y-3.8976
X3.2402Y-2.9051
X3.2402Y-2.315
X3.2827Y-2.9437
X3.2992Y-1.9567
X3.3071Y-2.315
X3.3185Y-2.9453
X3.3442Y-1.9544
X3.3465Y-3.7795
X3.3465Y-3.8976
X3.3661Y-2.4937
X3.3661Y-5.1024
X3.3811Y-3.0622
X3.3811Y-3.111
X3.3976Y-1.9134
X3.4039Y-1.8472
X3.4055Y-3.0406
X3.4154Y-2.8713
X3.4354Y-1.8291
X3.4606Y-2.2047
X3.4606Y-2.248
X3.4612Y-2.1561
X3.4646Y-2.0906
X3.4646Y-3.7795
X3.4646Y-3.8976
X3.4764Y-1.7898
X3.5187Y-2.81
X3.5531Y-2.7264
X3.5579Y-2.4894
X3.5657Y-2.2965
X3.5728Y-2.8783
X3.6681Y-1.9445
X3.6685Y-1.9114
X3.6732Y-2.5866
X3.6829Y-3.0559
X3.6829Y-3.0835
X3.6829Y-3.111
X3.6854Y-2.2969
X3.698Y-2.9134
X3.7047Y-3.1594
X3.7323Y-3.2096
X3.7522Y-2.9602
X3.7522Y-3.0559
X3.7522Y-3.0835
X3.7522Y-3.111
X3.7522Y-3.1386
X3.7524Y-2.9327
X3.7528Y-2.9878
X3.7598Y-2.6575
X3.7598Y-2.7067
X3.7776Y-2.9059
X3.778Y-2.8346
X3.7843Y-2.1654
X3.7844Y-2.6811
X3.8091Y-2.6575
X3.8091Y-2.7067
X3.8303Y-2.7933
X3.8307Y-2.0734
X3.8386Y-4.1339
X3.8386Y-4.2323
X3.8894Y-2.7933
X3.9024Y-1.8921
X3.911Y-2.3244
X3.9217Y-2.6169
X3.937Y-4.1339
X3.937Y-4.2323
X3.9425Y-2.9335
X3.9449Y-2.0591
X3.9449Y-2.2008
X3.9488Y-2.2717
X3.9555Y-3.0169
X3.9606Y-1.9567
X3.9606Y-1.9921
X3.9776Y-2.9602
X3.9843Y-2.4409
X3.9843Y-2.4803
X3.9861Y-2.9877
X3.9984Y-2.5429
X4.0016Y-3.0327
X4.02Y-2.52
X4.0213Y-3.6224
X4.0354Y-4.1339
X4.0354Y-4.2323
X4.0476Y-2.52
X4.0518Y-2.9919
X4.0575Y-3.076
X4.0632Y-2.8912
X4.0632Y-2.9211
X4.0672Y-2.9483
X4.0751Y-2.52
X4.1027Y-2.52
X4.11Y-2.35
X4.1205Y-2.9976
X4.1205Y-3.111
X4.1205Y-3.1386
X4.1224Y-2.9433
X4.1302Y-2.52
X4.1339Y-1.9961
X4.1339Y-4.1339
X4.1339Y-4.2323
X4.148Y-2.9768
X4.1578Y-2.52
X4.1827Y-2.8268
X4.1858Y-2.525
X4.1998Y-1.9972
X4.2129Y-2.52
X4.2323Y-4.1339
X4.2323Y-4.2323
X4.2405Y-2.52
X4.2657Y-3.5059
X4.2657Y-3.5335
X4.2657Y-3.5906
X4.268Y-2.52
X4.2866Y-3.3276
X4.2956Y-2.5195
X4.3209Y-2.0512
X4.3283Y-2.6453
X4.3307Y-3.3858
X4.3307Y-3.4252
X4.3307Y-3.4646
X4.3307Y-4.1339
X4.3307Y-4.2323
X4.352Y-2.085
X4.3626Y-3.2799
X4.3678Y-3.1222
X4.3744Y-2.7819
X4.3781Y-2.5215
X4.3794Y-2.0912
X4.389Y-2.6528
X4.3909Y-3.4626
X4.3937Y-3.4252
X4.4057Y-2.5215
X4.4094Y-2.1374
X4.4094Y-2.165
X4.4094Y-2.1925
X4.4094Y-2.2201
X4.4094Y-2.2476
X4.4272Y-2.4488
X4.4287Y-2.4941
X4.4291Y-3.2776
X4.4291Y-4.1339
X4.4291Y-4.2323
X4.4528Y-2.0551
X4.4628Y-2.6234
X4.4803Y-2.0551
X4.4811Y-3.7406
X4.4913Y-3.6799
X4.4942Y-2.6072
X4.5039Y-2.2783
X4.5047Y-2.3142
X4.5079Y-2.0551
X4.5173Y-2.5921
X4.5344Y-2.7921
X4.5787Y-3.5906
X4.6059Y-2.5988
X4.6209Y-2.7283
X4.6419Y-2.3144
X4.6425Y-2.2783
X4.6614Y-3.2844
X4.6614Y-3.3238
X4.6614Y-3.3937
X4.6695Y-3.2224
X4.6928Y-3.1782
X4.6949Y-2.75
X4.7417Y-2.6783
X4.7831Y-4.2925
X4.7898Y-3.8138
X4.8126Y-4.6138
X4.813Y-4.7343
X4.8142Y-3.787
X4.8146Y-4.2965
X4.8591Y-3.3091
X4.8764Y-2.9331
X4.8792Y-3.3985
X4.8959Y-3.1663
X4.8959Y-3.2057
X4.8959Y-3.2451
X4.8959Y-3.2844
X4.9177Y-3.5909
X4.9186Y-3.3858
X4.9311Y-3.6404
X4.958Y-3.3858
X4.9736Y-3.5909
X4.9764Y-4.3859
X4.9772Y-4.3571
X4.978Y-2.7965
X4.9973Y-3.3858
X5.0248Y-3.5945
X5.0347Y-2.063
X5.0367Y-3.3858
X5.0465Y-3.4469
X5.0591Y-3.9173
X5.0622Y-2.063
X5.0839Y-3.3748
X5.0898Y-2.063
X5.09Y-3.7337
X5.0957Y-3.4055
X5.0961Y-4.3862
X5.0984Y-3.9567
X5.1002Y-3.5769
X5.1173Y-2.063
X5.1351Y-3.3858
X5.1378Y-3.9961
X5.139Y-2.764
X5.1437Y-2.1512
X5.1449Y-2.063
X5.1488Y-3.7339
X5.161Y-4.3697
X5.1685Y-3.6075
X5.1725Y-2.063
X5.1745Y-3.3858
X5.1772Y-4.0354
X5.185Y-3.787
X5.1854Y-3.8146
X5.187Y-2.1949
X5.1941Y-2.7917
X5.2Y-2.063
X5.2056Y-3.4298
X5.2165Y-4.0748
X5.2276Y-2.063
X5.2362Y-2.1949
X5.2457Y-3.389
X5.2551Y-2.063
X5.2559Y-4.1142
X5.2669Y-2.7543
X5.2827Y-2.063
X5.2953Y-4.1535
X5.3051Y-2.2539
X5.3103Y-2.063
X5.3123Y-2.7425
X5.3138Y-2.7713
X5.3165Y-3.3902
X5.3378Y-2.063
X5.3642Y-4.3622
X5.3654Y-2.063
X5.3705Y-2.7799
X5.385Y-4.2386
X5.3929Y-2.063
X5.4142Y-3.8591
X5.4205Y-2.063
X5.4311Y-3.0839
X5.4469Y-3.1476
X5.4724Y-3.1663
X5.4724Y-3.2057
X5.4724Y-3.2451
X5.4724Y-3.2844
X5.4724Y-3.3238
X5.4724Y-3.3575
X5.4728Y-3.0083
X5.4744Y-2.7591
X5.4942Y-3.595
X5.5Y-2.7315
X5.5094Y-3.4236
X5.5118Y-2.9075
X5.5231Y-2.8088
X5.5272Y-2.7815
X5.5315Y-3.1169
X5.5465Y-4.261
X5.55Y-3.6528
X5.5689Y-3.5882
X5.5689Y-3.6157
X5.5689Y-3.7736
X5.5689Y-3.8012
X5.5689Y-3.8287
X5.5689Y-3.8563
X5.5689Y-3.8839
X5.5689Y-3.9114
X5.5689Y-3.939
X5.5689Y-3.9665
X5.5689Y-3.9941
X5.5689Y-4.0217
X5.5689Y-4.0492
X5.5689Y-4.0768
X5.6169Y-4.261
X5.6189Y-3.7024
X5.6205Y-3.4921
X5.6587Y-2.5173
X5.6591Y-2.4847
X5.6606Y-3.522
X5.6787Y-2.7935
X5.6835Y-3.422
X5.6846Y-3.2988
X5.6945Y-2.9949
X5.6969Y-4.2393
X5.698Y-3.1744
X5.6993Y-2.8144
X5.7031Y-1.8122
X5.7031Y-2.4819
X5.7031Y-2.5382
X5.7043Y-3.4858
X5.7043Y-3.55
X5.7291Y-3.5224
X5.75Y-3.5665
X5.7709Y-3.5224
X5.7768Y-2.0941
X5.8177Y-2.7024
X5.8177Y-2.7299
X5.8177Y-2.7575
X5.8177Y-2.785
X5.8177Y-2.8126
X5.8177Y-2.8402
X5.8177Y-2.8677
X5.8177Y-2.8953
X5.8177Y-2.998
X5.8177Y-3.0256
X5.8177Y-3.1236
X5.8177Y-3.1512
X5.8953Y-3.5224
X5.8957Y-3.5882
X5.8957Y-3.6157
X5.8957Y-3.7736
X5.8957Y-3.8012
X5.8957Y-3.8287
X5.8957Y-3.8563
X5.8957Y-3.8839
X5.8957Y-3.9114
X5.8957Y-3.939
X5.8957Y-3.9665
X5.8957Y-3.9941
X5.8957Y-4.0217
X5.8957Y-4.0492
X5.8957Y-4.0768
X5.9126Y-2.9339
X5.9335Y-2.7299
X5.9335Y-2.7575
X5.9335Y-2.785
X5.9335Y-2.8126
X5.9335Y-2.8402
X5.9335Y-2.8677
X5.9335Y-2.8953
X5.9335Y-2.998
X5.9335Y-3.0256
X5.9335Y-3.1236
X5.9335Y-3.1512
X5.9571Y-3.2053
X5.9886Y-2.698
X5.998Y-4.3346
X6.0362Y-2.6709
X6.0362Y-3.478
X6.0864Y-4.3861
X6.0867Y-4.3585
X6.087Y-2.5535
X6.087Y-2.5906
X6.1024Y-4.4882
X6.1024Y-4.5669
X6.1024Y-4.6457
X6.3386Y-5.0787
X6.4173Y-4.4094
X6.4173Y-5.0
X6.4173Y-5.0787
T2
X2.6575Y-3.6024
X3.189Y-2.0551
X3.189Y-2.1102
X3.189Y-2.1654
X3.189Y-2.2185
X3.2421Y-2.2185
X3.2441Y-2.0551
X3.2441Y-2.1102
X3.2441Y-2.1654
X3.2972Y-2.2205
X3.2992Y-2.0551
X3.2992Y-2.1102
X3.2992Y-2.1654
X3.3071Y-3.5236
X3.3524Y-2.2205
X3.3543Y-2.0551
X3.3543Y-2.1102
X3.3543Y-2.1654
X3.3858Y-3.5236
X3.3996Y-4.2063
X3.5441Y-1.6039
X3.5465Y-1.6827
X3.8894Y-2.8785
X3.9142Y-2.4441
X3.9364Y-2.3853
X3.9567Y-2.8827
X4.0382Y-2.8684
X4.0453Y-2.0925
X4.0453Y-2.1437
X4.0453Y-2.2008
X4.0453Y-2.2559
X4.0984Y-2.2008
X4.1004Y-2.0925
X4.1004Y-2.1437
X4.1004Y-2.2559
X4.1535Y-2.2559
X4.1555Y-2.0925
X4.1555Y-2.1457
X4.1555Y-2.2008
X4.1565Y-1.8913
X4.2087Y-2.2028
X4.2087Y-2.2559
X4.2106Y-2.0925
X4.2106Y-2.1457
X4.2913Y-1.5748
X4.3701Y-1.5748
X4.4488Y-1.5748
X4.5165Y-2.5126
X4.5276Y-1.5748
X4.6063Y-1.5748
X4.6665Y-3.6559
X4.6843Y-3.5193
X4.7335Y-3.589
X4.85Y-2.4354
X4.8665Y-3.8244
X4.9291Y-3.7142
X4.9432Y-2.8594
X5.2335Y-2.831
X5.2744Y-2.5776
X5.3882Y-4.1075
X5.4079Y-2.9177
X5.5925Y-2.6252
X5.8394Y-2.6339
X5.9071Y-2.6295
X5.9449Y-3.3071
X5.9449Y-3.3858
T3
X6.2205Y-4.6063
T4
X2.6575Y-2.8543
X2.6575Y-2.9528
X2.6575Y-3.0512
X2.6575Y-3.1496
X2.6772Y-2.2047
X2.6772Y-2.2835
X2.6772Y-2.3622
X2.7559Y-2.2047
X2.7559Y-2.2835
X2.7559Y-2.3622
X2.7559Y-2.8543
X2.7559Y-2.9528
X2.7559Y-3.0512
X2.7559Y-3.1496
X2.7559Y-4.3307
X2.7559Y-4.4291
X2.7559Y-4.5276
X2.7559Y-4.626
X2.7559Y-4.7244
X2.7559Y-4.8228
X2.8543Y-1.5748
X2.8543Y-1.6732
X2.8543Y-1.7717
X2.8543Y-1.8701
X2.8543Y-2.8543
X2.8543Y-2.9528
X2.8543Y-3.0512
X2.8543Y-3.1496
X2.8543Y-4.3307
X2.9134Y-2.3228
X2.9134Y-2.4016
X2.9134Y-2.4803
X2.9134Y-2.5591
X2.9134Y-2.6378
X2.9528Y-2.8543
X2.9528Y-2.9528
X2.9528Y-3.0512
X2.9528Y-3.1496
X2.9528Y-4.3307
X2.9528Y-4.8228
X3.0315Y-5.1969
X3.0512Y-4.3307
X3.0512Y-4.4291
X3.0512Y-4.8228
X3.0512Y-4.9213
X3.0709Y-1.6142
X3.0709Y-1.6929
X3.0709Y-1.7717
X3.0709Y-1.8504
X3.1102Y-5.1969
X3.1496Y-1.6142
X3.1496Y-1.6929
X3.1496Y-4.8228
X3.2283Y-1.6142
X3.3071Y-1.6142
X3.3799Y-5.1882
X3.3858Y-1.6142
X3.4177Y-5.3047
X3.5232Y-5.3055
X3.6516Y-5.3258
X3.8583Y-3.7795
X3.937Y-3.7795
X3.9764Y-1.5748
X3.9764Y-1.6535
X4.0157Y-3.937
X4.0551Y-1.5748
X4.0551Y-1.6535
X4.0945Y-3.7795
X4.0945Y-3.8583
X4.0945Y-3.937
X4.1732Y-3.7795
X4.1732Y-3.8583
X4.1996Y-3.1193
X4.252Y-3.7795
X4.5949Y-2.0386
X4.5957Y-1.9386
X4.685Y-1.5748
X4.685Y-1.6535
X4.8031Y-1.9291
X4.8031Y-2.0079
X4.8031Y-2.0866
X4.8031Y-2.1654
X4.863Y-3.9043
X4.8819Y-2.0079
X4.8819Y-2.0866
X4.8819Y-2.1654
X4.9063Y-1.8039
X4.9098Y-3.9496
X4.9102Y-3.8669
X4.9213Y-5.2756
X4.9606Y-2.0866
X4.9606Y-2.1654
X4.9793Y-5.0551
X5.0Y-5.1969
X5.0Y-5.2756
X5.0787Y-4.6457
X5.0787Y-5.1969
X5.0787Y-5.2756
X5.1575Y-4.4882
X5.1575Y-4.5669
X5.1575Y-4.6457
X5.1575Y-5.1969
X5.1575Y-5.2756
X5.1969Y-4.7244
X5.1969Y-4.8031
X5.2362Y-4.5669
X5.2362Y-4.6457
X5.2362Y-5.1969
X5.2362Y-5.2756
X5.2766Y-5.377
X5.315Y-4.6457
X5.315Y-5.1969
X5.4724Y-5.2756
X5.4724Y-5.3543
X5.5142Y-4.6224
X5.5512Y-5.2756
X5.5512Y-5.3543
X5.563Y-4.5197
X5.6205Y-2.1563
X5.6299Y-5.1969
X5.6299Y-5.2756
X5.6299Y-5.3543
X5.6374Y-4.6217
X5.702Y-2.1559
X5.7087Y-5.1969
X5.7087Y-5.2756
X5.7087Y-5.3543
X5.748Y-5.0
X5.7874Y-1.5748
X5.7874Y-1.6535
X5.7874Y-1.7323
X5.7874Y-5.1969
X5.7874Y-5.2756
X5.7874Y-5.3543
X5.8661Y-1.7323
X5.8661Y-5.0
X5.9449Y-4.5197
X6.0913Y-1.8323
X6.3598Y-4.4768
X6.4173Y-1.811
X6.4173Y-1.9291
X6.4173Y-2.3622
X6.4173Y-2.4409
X6.4173Y-2.5197
T6
X3.3406Y-4.7516
X3.3409Y-4.5547
X3.3409Y-4.85
X3.3415Y-4.6531
T7
X6.3164Y-3.5105
X6.3164Y-3.6105
X6.3164Y-3.7105
X6.3164Y-3.8105
X6.3164Y-3.9105
X6.3164Y-4.0105
X6.3164Y-4.1105
X6.3164Y-4.2105
X6.3164Y-4.3105
X6.4164Y-3.5105
X6.4164Y-3.6105
X6.4164Y-3.7105
X6.4164Y-3.8105
X6.4164Y-3.9105
X6.4164Y-4.0105
X6.4164Y-4.1105
X6.4164Y-4.2105
X6.4164Y-4.3105
X5.7228Y-1.9921
X5.8228Y-1.9921
X5.9228Y-1.9921
X2.7539Y-3.7063
X2.7539Y-3.8063
X2.7539Y-3.9063
X2.7539Y-4.0063
X2.7539Y-4.1063
X2.7539Y-4.2063
X2.8539Y-3.7063
X2.8539Y-3.8063
X2.8539Y-3.9063
X2.8539Y-4.0063
X2.8539Y-4.1063
X2.8539Y-4.2063
X4.7835Y-1.5937
X4.7835Y-1.6937
X4.8835Y-1.5937
X4.8835Y-1.6937
X4.9835Y-1.5937
X4.9835Y-1.6937
X5.0835Y-1.5937
X5.0835Y-1.6937
X5.1835Y-1.5937
X5.1835Y-1.6937
X5.2835Y-1.5937
X5.2835Y-1.6937
X5.3835Y-1.5937
X5.3835Y-1.6937
X5.4835Y-1.5937
X5.4835Y-1.6937
X5.5835Y-1.5937
X5.5835Y-1.6937
X5.6835Y-1.5937
X5.6835Y-1.6937
X6.3189Y-2.6425
X6.3189Y-2.7425
X6.3189Y-2.8425
X6.3189Y-2.9425
X6.3189Y-3.0425
X6.3189Y-3.1425
X6.3189Y-3.2425
X6.3189Y-3.3425
X6.4189Y-2.6425
X6.4189Y-2.7425
X6.4189Y-2.8425
X6.4189Y-2.9425
X6.4189Y-3.0425
X6.4189Y-3.1425
X6.4189Y-3.2425
X6.4189Y-3.3425
T8
X3.6638Y-3.926
X3.6638Y-4.0047
X3.6638Y-4.0835
X3.6638Y-4.1622
X3.6638Y-4.2409
X3.6638Y-4.3197
X3.6638Y-4.3984
X3.6638Y-4.4772
X3.6638Y-4.5559
X3.6638Y-4.6346
X3.6638Y-4.7134
X3.6638Y-4.7921
X3.6638Y-4.8709
X3.6638Y-4.9496
X3.6638Y-5.0283
X3.6638Y-5.1071
X4.6244Y-3.926
X4.6244Y-4.0047
X4.6244Y-4.0835
X4.6244Y-4.1622
X4.6244Y-4.2409
X4.6244Y-4.3197
X4.6244Y-4.3984
X4.6244Y-4.4772
X4.6244Y-4.5559
X4.6244Y-4.6346
X4.6244Y-4.7134
X4.6244Y-4.7921
X4.6244Y-4.8709
X4.6244Y-4.9496
X4.6244Y-5.0283
X4.6244Y-5.1071
T9
X3.2343Y-4.4437
X3.2343Y-4.961
T10
X6.3634Y-1.6476
X2.7134Y-1.6476
X6.3634Y-5.2476
X2.872Y-5.285
T11
X3.1939Y-5.3096
X3.1939Y-5.4179
X6.0203Y-1.5147
X6.0203Y-1.623
X2.5907Y-3.373
X2.699Y-3.373
T12
X3.7504Y-3.8354
X4.5378Y-3.8315
T4
G00X5.913Y-5.3077
M15
G01X5.913Y-5.3333
M16
G05
G00X6.1886Y-5.3077
M15
G01X6.1886Y-5.3333
M16
G05
T5
G00X5.9465Y-5.2142
M15
G01X5.9583Y-5.2142
M16
G05
G00X6.1433Y-5.2142
M15
G01X6.1551Y-5.2142
M16
G05
T0
M30
